<?xml version="1.0" encoding="UTF-8" standalone="no"?>
<!-- Created with Inkscape (http://www.inkscape.org/) -->

<svg
   xmlns:dc="http://purl.org/dc/elements/1.1/"
   xmlns:cc="http://creativecommons.org/ns#"
   xmlns:rdf="http://www.w3.org/1999/02/22-rdf-syntax-ns#"
   xmlns:svg="http://www.w3.org/2000/svg"
   xmlns="http://www.w3.org/2000/svg"
   xmlns:sodipodi="http://sodipodi.sourceforge.net/DTD/sodipodi-0.dtd"
   xmlns:inkscape="http://www.inkscape.org/namespaces/inkscape"
   width="210mm"
   height="297mm"
   viewBox="0 0 744.09448819 1052.3622047"
   id="svg3374"
   version="1.1"
   inkscape:version="0.91pre4 r13712"
   sodipodi:docname="components.svg">
  <defs
     id="defs3376" />
  <sodipodi:namedview
     id="base"
     pagecolor="#ffffff"
     bordercolor="#666666"
     borderopacity="1.0"
     inkscape:pageopacity="0.0"
     inkscape:pageshadow="2"
     inkscape:zoom="0.35"
     inkscape:cx="22.142857"
     inkscape:cy="520"
     inkscape:document-units="px"
     inkscape:current-layer="layer1"
     showgrid="false"
     inkscape:window-width="1920"
     inkscape:window-height="1017"
     inkscape:window-x="1912"
     inkscape:window-y="-8"
     inkscape:window-maximized="1" />
  <metadata
     id="metadata3379">
    <rdf:RDF>
      <cc:Work
         rdf:about="">
        <dc:format>image/svg+xml</dc:format>
        <dc:type
           rdf:resource="http://purl.org/dc/dcmitype/StillImage" />
        <dc:title></dc:title>
      </cc:Work>
    </rdf:RDF>
  </metadata>
  <g
     inkscape:label="Layer 1"
     inkscape:groupmode="layer"
     id="layer1">
    <path
       style="fill:#00ff00"
       d="m 185.0892,587.84491 c 0.22221,-0.0536 0.65588,-0.36893 0.96371,-0.70065 0.50476,-0.54391 0.64101,-0.58934 1.38767,-0.46319 0.96357,0.16277 1.00165,-0.12409 0.10531,-0.79335 -0.42197,-0.31505 -0.80211,-0.39713 -1.65382,-0.35706 -1.92819,0.0906 -2.40392,0.0816 -3.02494,-0.0567 -0.33332,-0.0742 -0.79959,-0.17403 -1.03616,-0.22161 -0.29921,-0.0602 -0.55653,-0.40994 -0.84541,-1.14921 -0.52355,-1.33996 -0.86051,-2.99563 -0.71274,-3.50217 0.0624,-0.21384 0.87341,-1.07059 1.80231,-1.90385 1.32572,-1.18928 2.30733,-1.83344 4.56478,-2.99558 l 2.87587,-1.48043 2.93788,-0.10098 c 2.363,-0.0811 3.20471,-0.19264 4.30144,-0.56983 1.32311,-0.45502 1.36355,-0.4573 1.36355,-0.0769 0,0.21557 -0.19698,0.65838 -0.43773,0.98401 -0.72135,0.97568 -0.30833,1.88286 1.67337,3.67549 1.78824,1.61765 2.29627,2.36924 2.10813,3.11881 -0.16752,0.66741 0.27847,2.06997 0.73608,2.31491 0.52576,0.28139 0.93245,-0.009 0.47814,-0.33989 -0.19323,-0.14127 -0.32063,-0.41536 -0.2831,-0.60897 0.12013,-0.61956 0.48212,-0.5141 0.74673,0.2176 0.23183,0.64116 0.63457,0.97835 0.63457,0.53124 0,-0.2531 2.64391,1.17019 3.13349,1.68691 0.26029,0.27463 0.98665,0.55823 2.02008,0.7886 0.88751,0.19786 1.93183,0.48305 2.32069,0.63369 0.80455,0.31175 5.57032,0.73857 6.29138,0.56344 0.26172,-0.0636 0.6696,-0.29051 0.90639,-0.5044 0.4527,-0.40879 1.54659,-0.55112 2.14505,-0.27898 0.46608,0.21194 0.46338,-0.17659 -0.005,-0.64442 -0.23528,-0.23527 -0.99907,-0.45302 -2.22813,-0.6351 -1.02855,-0.15239 -1.91635,-0.35186 -1.97287,-0.44335 -0.0565,-0.0914 -0.7583,-0.15435 -1.55951,-0.13982 -1.45318,0.026 -1.46131,0.0231 -3.29211,-1.16829 -1.3501,-0.87879 -2.08672,-1.52842 -2.78613,-2.45717 -0.52291,-0.69436 -1.03082,-1.2625 -1.12867,-1.2625 -0.29681,0 -2.26222,-4.31065 -2.16444,-4.74718 0.40199,-1.7948 0.85536,-3.12449 1.23978,-3.63613 0.96979,-1.29081 1.34958,-2.34315 1.54894,-4.29177 0.11737,-1.14722 0.35382,-2.23272 0.58505,-2.68601 0.36572,-0.71685 0.51658,-0.80258 2.61703,-1.48713 1.22591,-0.39952 2.35378,-0.7264 2.50635,-0.7264 0.1526,0 0.38669,-0.26374 0.5202,-0.58607 0.25545,-0.61671 0.76916,-1.14262 1.64717,-1.68627 0.50731,-0.31411 0.56614,-0.30179 1.50813,0.31621 1.28557,0.84339 1.90313,1.77479 1.90313,2.87029 0,0.54284 0.11989,0.95394 0.32881,1.1273 0.28601,0.23738 0.40412,0.18266 0.90759,-0.42043 0.76742,-0.91925 0.87138,-1.64192 0.47838,-3.32559 -0.42672,-1.82799 -0.52838,-1.9927 -1.50049,-2.43105 -0.45116,-0.20345 -0.82032,-0.44829 -0.82032,-0.54407 0,-0.487 0.9795,-1.60219 1.58509,-1.8047 0.37184,-0.12435 1.06202,-0.60247 1.53375,-1.0625 0.76634,-0.74735 0.96959,-1.16851 1.90876,-3.95474 1.36416,-4.04707 1.48785,-5.37556 0.75933,-8.1552 -0.29741,-1.13469 -0.86781,-2.61259 -1.33504,-3.45898 -0.44865,-0.81278 -0.81576,-1.59863 -0.81576,-1.74631 0,-0.14769 0.28404,-0.56157 0.63123,-0.91977 0.59718,-0.61614 0.62199,-0.70368 0.46109,-1.62566 -0.28495,-1.63258 -0.31885,-1.58047 1.02813,-1.58047 1.1975,0 1.21606,-0.009 1.61607,-0.76889 0.40169,-0.7633 0.40176,-0.77104 0.009,-1.06351 -0.29364,-0.21836 -0.38199,-0.49157 -0.34126,-1.05558 0.0506,-0.69979 -0.01,-0.7976 -0.75604,-1.21676 -0.50092,-0.28153 -0.7708,-0.56059 -0.70585,-0.72983 0.0829,-0.21625 -0.13526,-0.25689 -1.03539,-0.19282 -0.6273,0.0447 -1.31552,0.17484 -1.52936,0.2893 -0.32096,0.17176 -0.42786,0.12246 -0.6123,-0.28231 -0.32976,-0.72377 -1.10389,-1.08903 -1.62215,-0.76538 -0.33674,0.2103 -0.4927,0.19975 -0.88946,-0.0602 -1.54783,-1.01418 -5.04107,0.79289 -5.80648,3.00371 -0.22301,0.64415 -0.42213,0.84323 -1.06665,1.06636 -1.0807,0.37414 -1.25402,0.60523 -1.33208,1.77591 l -0.0674,1.01004 0.79578,0.10098 c 0.75805,0.0962 0.80748,0.14708 1.04264,1.07241 0.13577,0.53426 0.27718,1.53419 0.31426,2.22207 l 0.0674,1.25069 -0.88881,-0.0414 c -0.97129,-0.0452 -1.69163,-0.46368 -0.79811,-0.46368 0.3537,0 0.5858,-0.15977 0.74743,-0.51451 0.25279,-0.55482 0.31006,-1.67945 0.11181,-2.19605 -0.1465,-0.38175 -0.90532,-0.41226 -1.84073,-0.074 -0.5329,0.19269 -0.76359,0.19269 -1.07213,0 -0.21625,-0.13504 -0.80347,-0.24552 -1.30493,-0.24552 -0.67579,0 -0.91178,-0.0784 -0.91178,-0.30301 0,-0.16666 -0.19235,-0.49537 -0.42746,-0.73047 -0.33198,-0.33198 -0.40497,-0.59526 -0.32673,-1.17855 0.0554,-0.41308 0.0162,-0.90204 -0.087,-1.08656 -0.10325,-0.18453 -0.22232,-0.60866 -0.26456,-0.94253 -0.07,-0.55318 -0.0247,-0.60704 0.51062,-0.60704 0.6096,0 0.62558,-0.0276 0.87817,-1.51507 0.27686,-1.63028 0.46088,-2.45987 0.59312,-2.67383 0.0839,-0.13579 -0.0277,-0.32754 -0.26445,-0.45424 -0.5294,-0.28333 -0.52122,-0.71001 0.021,-1.08973 0.53753,-0.37651 0.36785,-0.95063 -0.26061,-0.88169 -0.35876,0.0394 -0.51322,-0.11829 -0.76432,-0.78006 -0.17308,-0.45616 -0.43271,-0.97076 -0.57701,-1.14356 -0.18972,-0.22724 -0.1995,-0.35299 -0.0353,-0.45447 0.1527,-0.0944 0.0783,-0.29861 -0.22741,-0.62399 -0.57774,-0.615 -0.62683,-0.60909 -1.06206,0.12765 -0.30599,0.51805 -0.47019,0.60403 -1.07552,0.56326 -0.48301,-0.0325 -0.79628,0.0639 -0.96724,0.29766 -0.13903,0.19018 -0.46098,0.34577 -0.71537,0.34577 -0.25441,0 -0.9489,0.24626 -1.5433,0.54723 -1.06989,0.54174 -1.08072,0.5565 -1.08072,1.47464 0,0.51009 0.0762,1.0138 0.16932,1.11934 0.16872,0.19124 1.04272,2.53376 1.04272,2.79475 0,0.0755 -0.16645,0.20252 -0.36989,0.28227 -0.52773,0.20686 -2.25434,2.2123 -2.58399,3.00125 -0.15303,0.36624 -0.27823,1.22896 -0.27823,1.91716 0,0.68821 -0.1308,1.71379 -0.29067,2.27907 -0.62602,2.2135 -0.79325,3.33876 -0.56596,3.8078 0.1205,0.24865 0.2723,1.13388 0.33737,1.96716 0.0853,1.09239 0.28362,1.85178 0.71092,2.72213 0.32595,0.66389 0.57524,1.20932 0.55399,1.21204 -0.0212,0.002 -0.40224,0.20278 -0.84665,0.44458 -0.58768,0.31973 -0.7949,0.55384 -0.75991,0.85854 0.056,0.48727 -0.19653,0.54558 -0.54492,0.12578 -0.28743,-0.34632 -1.80828,-0.61196 -2.41012,-0.42095 -0.23195,0.0736 -0.73606,0.60529 -1.12023,1.18149 -0.38416,0.5762 -0.88513,1.16204 -1.11326,1.30185 -0.50928,0.31214 -0.53215,0.74713 -0.0578,1.09788 0.19635,0.14517 0.51382,0.50969 0.70549,0.81004 0.22544,0.35326 0.59864,0.593 1.05702,0.679 0.38971,0.0731 0.70856,0.17407 0.70856,0.22434 0,0.1043 -0.8468,1.04905 -1.6642,1.85663 -0.30422,0.30058 -0.81964,0.96675 -1.14538,1.48036 -0.32572,0.5136 -0.91988,1.29652 -1.32037,1.73983 -1.21732,1.34741 -3.3655,5.37533 -5.08436,9.53332 -0.82368,1.99252 -0.96937,2.20523 -2.40414,3.50991 -0.84003,0.76386 -1.9377,1.92216 -2.43926,2.57399 -0.57928,0.75281 -1.63741,1.70309 -2.9007,2.60503 -1.09381,0.78092 -2.21385,1.71498 -2.48897,2.07565 -0.57601,0.75525 -4.41761,2.90688 -6.35551,3.55966 -0.6882,0.23187 -2.91358,0.69344 -4.94528,1.02586 -2.03171,0.33238 -4.40197,0.83247 -5.26727,1.11137 -1.83414,0.59117 -1.93755,0.59923 -2.81354,0.21953 -0.36486,-0.15813 -1.58456,-0.39867 -2.71045,-0.53458 -1.90143,-0.22946 -2.15926,-0.21655 -3.62398,0.18163 -0.8673,0.23572 -1.71267,0.56439 -1.87859,0.73036 -0.22716,0.22715 0.0312,0.1934 1.04595,-0.13648 1.50871,-0.49051 1.68372,-0.47119 5.08965,0.56285 0.99993,0.30353 2.31802,0.56079 2.9291,0.5717 1.86156,0.0335 7.70185,-0.67472 8.9893,-1.08962 1.31165,-0.42266 2.57665,-0.55072 3.25563,-0.32947 0.59569,0.19401 4.41956,-1.08876 6.2386,-2.09284 0.80514,-0.44447 1.52139,-0.80808 1.59167,-0.80808 0.0703,0 0.11324,0.65899 0.0954,1.4645 -0.0298,1.35153 0.0239,1.55811 0.69647,2.67663 0.40085,0.6666 0.92667,1.57563 1.16851,2.02004 0.24184,0.44444 0.56423,0.88073 0.71644,0.96962 0.15219,0.0888 0.27672,0.38426 0.27672,0.65648 0,0.6005 0.22026,0.62884 0.70703,0.091 0.20109,-0.2222 0.55607,-0.40118 0.78883,-0.39763 0.39291,0.006 0.39813,0.0255 0.0728,0.27248 -0.1927,0.14634 -0.29118,0.32527 -0.21884,0.39758 0.14847,0.14854 4.59248,0.13752 5.21537,-0.0125 z m 27.14755,-45.6879 c -0.5112,-0.10393 -0.70177,-0.25837 -0.75225,-0.60956 -0.0372,-0.25867 0.031,-0.56893 0.1515,-0.68944 0.3821,-0.3821 0.23827,-0.70801 -0.37157,-0.84196 -0.42238,-0.0928 -0.6526,-0.30738 -0.80803,-0.75322 -0.11951,-0.34291 -0.21733,-0.63526 -0.21733,-0.64965 0,-0.0144 0.77267,0.15629 1.71706,0.37926 0.94438,0.22299 1.71705,0.47559 1.71705,0.56134 0,0.22891 -1.29767,0.1899 -1.95641,-0.0589 -0.31277,-0.11804 -0.47777,-0.1305 -0.36667,-0.0276 0.30618,0.28366 1.50491,0.6463 2.13641,0.6463 0.48522,0 0.63135,0.15349 1.08089,1.13544 0.28591,0.6245 0.51983,1.17647 0.51983,1.22658 0,0.0998 -1.76133,-0.0972 -2.85048,-0.31869 z m -7.52067,-2.70683 c -0.20573,-0.15357 -0.286,-0.4059 -0.21437,-0.67373 0.10875,-0.40665 0.20774,-0.42307 1.96641,-0.32608 1.3835,0.0763 1.99237,0.20082 2.40739,0.49246 0.30555,0.21468 0.55522,0.45233 0.55486,0.52809 -0.002,0.25966 -4.36438,0.24045 -4.71429,-0.0207 z m 17.1149,-3.49931 c -0.0827,-0.3296 -0.0387,-0.58451 0.11779,-0.68117 0.18257,-0.11289 0.13585,-0.23436 -0.17338,-0.45096 -0.46112,-0.32297 -0.36992,-0.56326 0.21381,-0.56326 0.2037,0 0.37034,-0.14393 0.37034,-0.31984 0,-0.57224 0.4985,-0.17382 0.75831,0.60607 0.22716,0.68199 0.21014,0.82084 -0.16527,1.34807 -0.51893,0.72878 -0.9481,0.75216 -1.12154,0.0611 z"
       id="path3347"
       inkscape:connector-curvature="0" />
    <path
       style="fill:#0000ff"
       d="m 367.89935,583.1759 c -0.1577,-0.17426 -0.4304,-0.78828 -0.6782,-1.52687 -0.095,-0.28387 -0.228,-0.57724 -0.2949,-0.65193 -0.067,-0.0747 -0.1216,-0.20269 -0.1216,-0.28444 0,-0.0817 -0.1355,-0.47592 -0.3011,-0.87595 -0.3678,-0.88865 -0.3777,-1.14646 -0.058,-1.518 l 0.2433,-0.28256 0.017,-1.75083 c 0.01,-0.96296 0.053,-1.81913 0.098,-1.90261 0.045,-0.0835 0.1987,-0.17527 0.3423,-0.20399 0.2498,-0.0499 0.2611,-0.0712 0.2611,-0.49013 0,-0.45162 -0.1104,-0.76251 -0.3136,-0.88249 -0.064,-0.0378 -0.1165,-0.17748 -0.1165,-0.31033 0,-0.23876 -0.011,-0.24382 -0.9677,-0.43811 -0.5323,-0.1081 -1.1613,-0.22747 -1.3979,-0.26527 -0.597,-0.0954 -1.1184,-0.19918 -2.3655,-0.47092 -0.7327,-0.15966 -1.365,-0.2392 -1.9848,-0.24967 -1.0532,-0.0178 -1.1991,-0.0865 -1.6494,-0.77594 -0.2449,-0.37512 -0.2793,-0.49835 -0.2761,-0.98923 0,-0.37473 0.056,-0.66004 0.163,-0.86006 0.1616,-0.30379 0.9508,-1.12003 1.0829,-1.12003 0.04,0 0.095,-0.0677 0.1225,-0.15053 0.028,-0.0828 0.1754,-0.29173 0.3283,-0.46429 0.153,-0.17256 0.4213,-0.50159 0.5963,-0.73117 0.6007,-0.78807 0.9291,-1.23616 0.9291,-1.26758 0,-0.0173 0.1355,-0.17936 0.3011,-0.36014 0.1656,-0.18079 0.3011,-0.36623 0.3011,-0.41209 0,-0.083 -0.5561,0.46749 -0.9242,0.91474 -0.2141,0.2602 -0.3988,0.28014 -1.0973,0.11842 -0.3336,-0.0772 -0.436,-0.14055 -0.4562,-0.28209 -0.045,-0.31335 0.1915,-0.4598 0.6535,-0.40508 l 0.4086,0.0484 0.3626,-0.48481 c 0.4887,-0.6535 0.5291,-0.84648 0.2346,-1.11946 -0.3834,-0.35525 -0.5422,-0.3621 -0.8551,-0.0368 -0.6151,0.63952 -0.8159,0.91824 -0.8635,1.19876 -0.084,0.49664 -0.1278,0.57468 -0.3443,0.61606 -0.2723,0.052 -0.5196,-0.21731 -0.5969,-0.64999 -0.094,-0.52591 0.061,-0.87317 0.8503,-1.9086 0.2633,-0.3453 0.5721,-0.84018 0.7787,-1.24787 0.1163,-0.22955 0.2515,-0.44208 0.3004,-0.4723 0.049,-0.0302 0.1612,-0.19747 0.2495,-0.37168 0.1368,-0.2696 0.1688,-0.60476 0.2156,-2.25221 0.03,-1.06451 0.074,-2.20643 0.098,-2.53762 0.1398,-1.95227 0.1327,-2.08807 -0.1362,-2.61719 -0.201,-0.39561 -0.3229,-0.52729 -0.6063,-0.65507 -0.1951,-0.088 -0.5742,-0.37478 -0.8425,-0.63737 -0.9532,-0.93297 -2.3469,-1.96924 -2.6617,-1.9792 -0.063,-0.002 -0.346,-0.18747 -0.6297,-0.4122 -0.8742,-0.69275 -1.2317,-0.95608 -1.3062,-0.96203 -0.039,-0.003 -0.2408,-0.14437 -0.4476,-0.31385 -0.2709,-0.22201 -0.4253,-0.29252 -0.5522,-0.25227 -0.1679,0.0533 -0.1764,0.12403 -0.1846,1.53395 -0.021,3.65448 -0.049,4.39903 -0.1788,4.70384 -0.08,0.1885 -0.135,0.64155 -0.1475,1.21161 -0.02,0.89053 -0.015,0.91509 0.2112,1.11827 0.7539,0.67757 0.7736,0.73151 0.4033,1.10425 -0.1301,0.13097 -0.3266,0.39972 -0.4366,0.59724 -0.2062,0.37021 -0.2057,0.68206 0,1.10323 0.068,0.1377 0.064,0.28811 -0.014,0.55913 -0.059,0.20391 -0.097,0.48688 -0.085,0.62881 0.023,0.26696 0.018,0.79069 -0.01,1.05376 -0.01,0.0828 0.089,0.61505 0.2187,1.18279 0.3019,1.32595 1.3061,6.21768 1.4611,7.11719 0.066,0.38091 0.2804,0.5244 0.6744,0.45049 0.3115,-0.0584 0.4704,0.0479 0.8389,0.5613 0.3152,0.43934 0.772,1.40012 0.8271,1.74019 0.049,0.29959 -0.1176,0.58276 -0.3416,0.58205 -0.1904,-5.6e-4 -0.6788,-0.35206 -0.7227,-0.52012 -0.028,-0.1071 -0.118,-0.16773 -0.2489,-0.16773 -0.1686,0 -0.205,0.044 -0.205,0.24806 0,0.18274 0.096,0.33491 0.3655,0.5779 0.8288,0.74771 0.684,1.17783 -0.3451,1.02532 -0.3631,-0.0538 -0.4755,-0.13069 -1.0312,-0.70525 -0.5825,-0.60237 -0.6236,-0.66988 -0.6236,-1.02447 0,-0.20879 -0.039,-0.37962 -0.086,-0.37962 -0.047,0 -0.086,-0.0503 -0.086,-0.11183 0,-0.0615 -0.047,-0.15864 -0.1041,-0.21588 -0.06,-0.0605 -0.1055,-0.35225 -0.1075,-0.69628 0,-0.44358 -0.042,-0.6347 -0.1566,-0.7615 -0.2712,-0.29976 -0.3414,-0.71162 -0.1822,-1.0689 0.1298,-0.29143 0.1303,-0.37402 0.01,-1.03225 -0.2387,-1.25861 -0.4923,-2.51292 -0.5708,-2.82299 -0.042,-0.16559 -0.1604,-0.76559 -0.2631,-1.33332 -0.1028,-0.56774 -0.2991,-1.50777 -0.4363,-2.08895 -0.1372,-0.58119 -0.2494,-1.11753 -0.2494,-1.19188 0,-0.0743 -0.092,-0.24447 -0.2044,-0.37806 -0.245,-0.29117 -0.3645,-0.94199 -0.2219,-1.20844 0.055,-0.10215 0.099,-0.32598 0.099,-0.49738 0,-0.25361 -0.061,-0.36396 -0.3249,-0.59252 -0.1787,-0.15448 -0.4646,-0.31849 -0.6353,-0.36446 -0.3862,-0.10398 -0.4312,-0.38488 -0.081,-0.50687 0.2834,-0.0988 0.5941,-0.35777 0.5941,-0.49517 0,-0.0565 0.046,-0.118 0.1017,-0.13665 0.071,-0.0235 0.1034,-0.3612 0.1071,-1.10394 0.01,-1.14716 -0.1236,-8.11319 -0.1592,-8.57108 -0.026,-0.33312 -0.1841,-0.54191 -0.4105,-0.54191 -0.2239,0 -0.171,-0.28781 0.061,-0.33085 0.326,-0.0605 0.3848,-0.1807 0.346,-0.70819 -0.02,-0.27741 -0.098,-0.68936 -0.172,-0.91546 -0.074,-0.22609 -0.1743,-0.57493 -0.2224,-0.7752 -0.049,-0.2053 -0.1598,-0.40285 -0.2533,-0.4529 -0.5425,-0.29035 -0.9313,-1.51201 -0.6526,-2.05088 0.1718,-0.33229 0.5052,-0.59076 0.9239,-0.71619 0.2515,-0.0754 0.3462,-0.15523 0.3821,-0.32255 0.026,-0.1223 0.087,-0.30368 0.1348,-0.40307 0.048,-0.0994 0.074,-0.27358 0.058,-0.38709 -0.024,-0.16752 -0.094,-0.21627 -0.3733,-0.25881 -0.1892,-0.0288 -0.4982,-0.12021 -0.6866,-0.20305 -0.2522,-0.11092 -0.4602,-0.13678 -0.7891,-0.0981 -0.3966,0.0466 -0.4763,0.0275 -0.7122,-0.171 -0.2318,-0.19504 -0.8475,-0.34982 -1.4951,-0.37581 -0.039,-0.002 -0.2864,-0.21571 -0.5508,-0.47593 -0.2644,-0.2602 -0.5283,-0.47311 -0.58642,-0.47311 -0.0581,0 -0.21021,-0.33871 -0.33796,-0.75268 -0.29315,-0.94982 -0.68449,-1.7789 -1.03458,-2.19161 -0.44133,-0.52034 -0.76212,-1.25083 -0.82246,-1.87288 -0.0297,-0.30753 -0.12632,-0.74179 -0.21442,-0.96504 -0.12249,-0.31039 -0.14027,-0.46219 -0.0756,-0.64515 0.0796,-0.22516 0.11492,-0.23937 0.59819,-0.24118 0.5802,-0.002 0.72861,-0.0641 0.72861,-0.30423 0,-0.17607 -0.0271,-0.18156 -0.99749,-0.20113 -0.24108,-0.005 -0.50237,-0.062 -0.58064,-0.12691 -0.36335,-0.30149 0.006,-1.40598 0.64273,-1.92056 0.50125,-0.40526 0.7107,-0.50731 1.32249,-0.64438 0.28389,-0.0636 0.59354,-0.13519 0.68816,-0.15909 0.0947,-0.0239 0.34619,-0.0674 0.55919,-0.0968 0.2129,-0.0293 0.536,-0.12795 0.7181,-0.21918 0.2713,-0.13598 0.5813,-0.17393 1.7204,-0.21061 1.1377,-0.0367 1.4545,-0.0753 1.749,-0.21379 l 0.3596,-0.16905 0.3683,0.18787 c 0.4143,0.21138 0.8592,0.20285 2.5684,-0.0493 0.4967,-0.0733 1.2129,-0.15687 1.5913,-0.18576 0.9486,-0.0724 1.1301,-0.1775 1.2014,-0.69564 0.086,-0.62427 -0.038,-0.85911 -0.4873,-0.92196 -0.2035,-0.0285 -0.4861,-0.0698 -0.628,-0.0919 -0.142,-0.0221 -0.5484,-0.0797 -0.9032,-0.12808 -0.3549,-0.0484 -0.8968,-0.13284 -1.2043,-0.18766 -0.3076,-0.0548 -1.3721,-0.10414 -2.3656,-0.10957 -1.5456,-0.008 -1.8375,0.0106 -2.0215,0.13204 -0.1183,0.078 -0.3202,0.16734 -0.4488,0.19842 -0.2068,0.0499 -0.2751,0.004 -0.5904,-0.39605 -0.1962,-0.24891 -0.4006,-0.47191 -0.4544,-0.49557 -0.3129,-0.13764 -0.829,-0.5363 -0.829,-0.64044 0,-0.0672 -0.073,-0.14536 -0.1624,-0.17371 -0.3714,-0.1179 -1.48028,-2.16138 -1.61199,-2.97077 -0.14502,-0.89112 0.0426,-2.18555 0.41356,-2.85364 0.3516,-0.63324 0.74053,-1.16445 1.08223,-1.47826 0.2134,-0.19594 0.4504,-0.43256 0.5268,-0.52584 0.076,-0.0933 0.2938,-0.33005 0.483,-0.52616 0.3282,-0.34014 0.3747,-0.35939 1.0082,-0.41814 0.4439,-0.0412 0.7317,-0.11481 0.8681,-0.22208 0.3281,-0.25807 1.3373,-0.73572 2.0807,-0.98483 0.3785,-0.12682 0.843,-0.29985 1.0322,-0.38451 0.1893,-0.0847 0.4409,-0.18059 0.5592,-0.21315 0.369,-0.10163 0.8602,-0.33036 0.8602,-0.40061 0,-0.0369 0.08,-0.0925 0.1771,-0.12338 0.097,-0.0309 0.4693,-0.26579 0.8263,-0.52193 0.357,-0.25613 0.686,-0.46569 0.7312,-0.46569 0.045,0 0.2596,-0.13549 0.4764,-0.30107 0.2501,-0.19096 0.4896,-0.30108 0.6548,-0.30108 0.3988,0 0.5757,-0.20536 0.4789,-0.55593 -0.043,-0.15762 -0.069,-0.80293 -0.056,-1.43403 0.021,-1.02557 0.039,-1.15061 0.1778,-1.17723 0.3426,-0.066 0.3914,0.10608 0.3542,1.24968 -0.019,0.59652 -0.072,1.21776 -0.1169,1.38052 -0.1155,0.41832 0.032,0.63255 0.4055,0.59132 0.3369,-0.0371 0.2923,0.005 0.5562,-0.52744 0.2872,-0.57964 0.3414,-0.84558 0.2314,-1.13381 -0.051,-0.13339 -0.1087,-0.57156 -0.1283,-0.97371 -0.02,-0.40214 -0.057,-0.94791 -0.082,-1.2128 -0.038,-0.39167 -0.016,-0.5194 0.1171,-0.68384 0.1604,-0.19818 0.1684,-0.19915 0.398,-0.0487 0.2097,0.13739 0.2277,0.18675 0.1709,0.46878 -0.035,0.17338 -0.075,0.81845 -0.089,1.4335 -0.044,1.89439 -0.052,1.79398 0.1521,1.93547 0.1022,0.071 0.3244,0.27003 0.4938,0.44235 l 0.3078,0.31331 0.7122,-0.0227 c 0.703,-0.0224 0.8217,-0.0663 1.1789,-0.43651 0.1805,-0.18707 1.3256,-0.60064 2.2809,-0.82379 0.7184,-0.16779 3.1776,-0.14306 3.828,0.0385 1.3536,0.37782 2.3121,0.89282 2.5889,1.39093 0.082,0.14662 0.1928,0.17111 0.8172,0.17977 1.2089,0.0168 1.603,0.13797 2.1614,0.66463 0.1761,0.16606 0.5051,0.3659 0.7311,0.44409 0.2261,0.0782 0.6448,0.25598 0.9305,0.39511 0.2858,0.13913 0.579,0.25297 0.6516,0.25297 0.073,0 0.5937,0.23818 1.1579,0.52928 0.5642,0.29112 1.2194,0.62621 1.4559,0.74464 0.6788,0.33986 1.0414,0.67625 1.2078,1.12038 0.2005,0.53504 0.5088,1.06048 0.7478,1.27444 0.1275,0.11403 0.4157,0.20696 0.8325,0.2684 0.8145,0.12003 1.0997,0.37066 1.2631,1.10995 0.061,0.27569 0.1743,0.75287 0.2519,1.0604 0.1489,0.59013 0.1188,1.6723 -0.056,1.99804 -0.048,0.089 -0.1252,0.40168 -0.1724,0.6948 -0.05,0.31085 -0.1552,0.60694 -0.2525,0.71053 -0.1818,0.19356 -0.2271,0.71688 -0.075,0.86868 0.1639,0.16393 0.1185,0.62273 -0.083,0.83708 -0.1599,0.1702 -0.25,0.19521 -0.5722,0.1589 -0.5348,-0.0603 -0.9289,0.20725 -1.1666,0.79195 -0.02,0.0498 0.48,0.0724 1.2877,0.058 1.2537,-0.0223 1.331,-0.014 1.5195,0.16315 0.1775,0.16674 0.2883,0.18568 1.0401,0.17779 1.0697,-0.0113 1.3883,0.0476 1.4587,0.26929 0.088,0.27688 -0.1309,0.39642 -0.8231,0.44975 -0.3548,0.0273 -0.8503,0.0733 -1.1011,0.10219 -0.4896,0.0564 -0.783,0.24635 -0.6248,0.40455 0.1743,0.17439 0.09,0.30767 -0.2311,0.36521 -0.3169,0.0568 -0.6236,0.25029 -0.6236,0.39343 0,0.04 0.1655,0.0727 0.3679,0.0727 0.3676,0 0.793,0.20546 0.7085,0.34221 -0.1001,0.16198 0.09,0.36768 0.5573,0.60369 0.5051,0.255 0.8955,0.6365 1.0515,1.02774 0.1766,0.44279 0.2213,0.77116 0.1222,0.89876 -0.1395,0.1797 -0.7788,0.32758 -1.1307,0.26156 -0.1646,-0.0309 -0.3963,-0.0318 -0.5149,-0.002 -0.2447,0.0614 -0.294,0.30336 -0.065,0.31955 0.083,0.006 0.3415,0.0237 0.5748,0.0395 0.2732,0.0186 0.4828,0.0875 0.5889,0.19356 0.1622,0.16222 0.16,0.17347 -0.1484,0.75475 -0.2615,0.49265 -0.3108,0.6684 -0.2991,1.06459 0.015,0.50072 -0.1511,1.0486 -0.6256,2.06591 -0.1435,0.30753 -0.3713,0.8301 -0.5064,1.16128 -0.2896,0.71016 -0.6968,1.53222 -0.8508,1.71776 -0.06,0.0724 -0.1783,0.1317 -0.2626,0.1317 -0.084,0 -0.3159,0.13574 -0.5145,0.30164 -0.4129,0.34502 -0.3553,0.32953 -1.8796,0.50505 -1.2469,0.14356 -1.3804,0.20966 -1.3857,0.6857 0,0.13481 -0.145,0.47547 -0.3188,0.75704 -0.2554,0.41393 -0.3219,0.61357 -0.3469,1.04276 -0.022,0.37842 -0.08,0.5825 -0.2002,0.71086 -0.2131,0.2269 -0.2122,0.33264 0,0.6269 0.096,0.12975 0.1965,0.38947 0.2234,0.57716 0.082,0.57163 0.3037,1.07019 0.5559,1.24975 0.1645,0.11715 0.2834,0.32153 0.3797,0.65269 l 0.1401,0.48214 0.3839,-0.0526 c 0.4042,-0.0554 0.507,-0.0135 1.9705,0.80377 0.9691,0.54116 1.1734,0.62201 1.4098,0.55798 0.7234,-0.19595 2.2083,0.18334 2.315,0.5913 0.035,0.13282 0.097,0.15144 0.3636,0.10881 0.4584,-0.0733 0.5784,0.0896 0.4225,0.57377 -0.064,0.19957 -0.1224,0.42092 -0.1291,0.49189 -0.01,0.071 -0.018,0.17503 -0.025,0.23125 -0.01,0.0562 -0.1289,0.22936 -0.2708,0.38476 -0.1419,0.1554 -0.26,0.3223 -0.2624,0.37089 0,0.0486 -0.079,0.41739 -0.1694,0.81954 -0.091,0.40214 -0.2843,1.33117 -0.4302,2.0645 -0.1459,0.73333 -0.298,1.41074 -0.338,1.50537 -0.081,0.19158 -0.2766,1.08621 -0.3104,1.41934 -0.012,0.11828 -0.103,0.63969 -0.2023,1.1587 -0.1415,0.73943 -0.1608,1.00377 -0.089,1.22147 0.06,0.18221 0.064,0.37829 0.011,0.56982 -0.082,0.29806 -0.3409,0.66289 -0.4698,0.66289 -0.039,0 -0.342,0.23273 -0.6725,0.51717 -0.9786,0.84227 -1.203,0.96325 -1.8629,1.00417 -0.3343,0.0207 -0.6353,-0.003 -0.7096,-0.0558 -0.1087,-0.0773 -0.081,-0.13226 0.172,-0.34786 0.1656,-0.14084 0.3688,-0.31445 0.4517,-0.3858 0.083,-0.0714 0.2401,-0.12974 0.3497,-0.12974 0.1419,0 0.2533,-0.0963 0.3875,-0.33505 0.1036,-0.18426 0.2462,-0.35725 0.3169,-0.38439 0.2348,-0.0901 0.1444,-0.24914 -0.1079,-0.19009 -0.3765,0.0881 -1.6651,0.74736 -1.715,0.87738 -0.025,0.065 -0.137,0.11817 -0.2491,0.11817 -0.1846,0 -0.1956,-0.0213 -0.1174,-0.22701 0.048,-0.12486 0.1793,-0.33755 0.293,-0.47266 0.1137,-0.1351 0.2322,-0.32589 0.2633,-0.424 0.1568,-0.49392 1.2272,-1.16775 1.7109,-1.077 0.1582,0.0297 0.3871,0.0162 0.5087,-0.0301 0.2251,-0.0856 0.259,-0.18004 0.3566,-0.99504 0.1069,-0.89344 0.168,-1.18017 0.4307,-2.02149 0.7291,-2.33498 0.8984,-3.05213 0.7543,-3.19615 -0.052,-0.0515 -0.2133,-0.1076 -0.3597,-0.12464 -0.3285,-0.0382 -0.7731,-0.2612 -0.8332,-0.41781 -0.08,-0.20778 -1.0613,-0.92013 -1.4774,-1.07223 -0.4138,-0.15124 -1.3077,-0.74225 -1.3077,-0.86459 0,-0.0373 -0.068,-0.0904 -0.1505,-0.11795 -0.299,-0.0994 -2.8081,-2.01898 -3.0991,-2.371 -0.073,-0.0888 -0.091,-0.25581 -0.054,-0.50327 l 0.056,-0.37038 -0.3758,-0.14606 c -0.8934,-0.34725 -1.2102,-0.56699 -1.4437,-1.00147 -0.1248,-0.23219 -0.2936,-0.45477 -0.3752,-0.49462 -0.5013,-0.24499 -0.4508,-0.0907 -0.4827,-1.47627 -0.01,-0.37848 -0.026,-0.41219 -0.2032,-0.3871 -0.2097,0.0298 -0.2163,0.0871 -0.1007,0.87957 0.082,0.56306 -0.034,0.64771 -0.8051,0.58932 -0.4779,-0.0362 -0.6079,-0.0801 -0.7506,-0.25344 l -0.1727,-0.2097 -0.7736,0.10675 c -0.9224,0.12728 -1.0746,0.22967 -1.0746,0.72273 0,0.29816 0.055,0.4203 0.3143,0.69502 0.1729,0.18331 0.3954,0.37334 0.4946,0.4223 0.099,0.049 0.2928,0.26331 0.4303,0.47634 0.1375,0.21303 0.3959,0.47954 0.5743,0.59224 0.5465,0.34535 0.7079,0.64313 0.7642,1.41006 0.065,0.88964 -0.059,1.37137 -0.4368,1.6952 -0.1603,0.13734 -0.3549,0.2717 -0.4324,0.29856 -0.1641,0.0569 -0.5384,0.59907 -0.6119,0.8865 -0.028,0.10889 0.078,0.72824 0.2352,1.37633 0.1572,0.64809 0.3122,1.31383 0.3444,1.47942 0.032,0.16559 0.1279,0.61075 0.2126,0.98925 0.4254,1.9016 0.6186,2.98236 0.5601,3.13258 -0.029,0.0749 -0.07,0.39637 -0.091,0.71433 -0.021,0.31796 -0.072,0.66825 -0.114,0.77842 -0.042,0.11017 -0.1025,0.46936 -0.1347,0.79822 -0.079,0.80554 -0.1067,0.88147 -0.3735,1.02393 -0.1268,0.0677 -0.3429,0.22209 -0.4804,0.34313 -0.1375,0.12105 -0.3005,0.2201 -0.3623,0.2201 -0.2268,0 -0.4413,0.3466 -0.4489,0.7256 0,0.20477 -0.064,0.63818 -0.1326,0.96313 -0.069,0.32495 -0.1707,0.84243 -0.2263,1.14995 -0.1218,0.6734 -0.233,0.99625 -0.4531,1.31579 -0.1743,0.25295 -0.3982,1.06001 -0.4034,1.45404 0,0.18852 0.1001,0.30584 0.5453,0.62351 0.4172,0.29768 0.5612,0.45565 0.6022,0.66026 0.068,0.33929 0.068,1.18185 -10e-5,1.40873 -0.07,0.23508 -0.8422,0.88808 -1.1308,0.95662 -0.4622,0.10976 -0.5192,0.23052 -0.4744,1.00442 0.022,0.38809 0.086,0.74873 0.1403,0.80143 0.1347,0.12984 1.053,0.29954 1.2376,0.22871 0.082,-0.0313 0.2409,-0.16692 0.354,-0.30135 0.1132,-0.13442 0.3148,-0.30082 0.4481,-0.36978 0.204,-0.10546 0.2418,-0.17801 0.2379,-0.45707 -0.01,-0.37145 0.1149,-0.64549 0.4168,-0.95173 0.283,-0.28694 0.3404,-0.58213 0.1695,-0.87143 -0.1435,-0.24297 -0.1134,-0.51293 0.057,-0.51293 0.052,0 0.2475,0.10645 0.4354,0.23655 0.2899,0.20073 0.4293,0.23656 0.9201,0.23656 0.4576,0 0.618,0.0359 0.7685,0.17204 0.1782,0.16111 0.3442,0.17478 2.6114,0.21505 1.7462,0.031 2.4752,0.0738 2.6148,0.15357 0.2585,0.14766 0.2476,0.17627 -0.129,0.33688 -0.9497,0.40502 -2.0691,0.61951 -3.5699,0.684 l -1.0968,0.0471 0,0.23532 c 0,0.16662 -0.1028,0.32764 -0.3524,0.55165 l -0.3523,0.31634 0.1017,0.42396 c 0.1097,0.45745 0.069,0.69242 -0.1824,1.04936 -0.2106,0.29902 -0.2057,0.69366 0.011,0.88977 0.1389,0.12581 0.1641,0.23251 0.1317,0.55832 -0.053,0.52837 -0.1134,0.67179 -0.3113,0.73463 -0.2295,0.0728 -0.3057,0.43893 -0.1315,0.63143 0.1857,0.20519 0.1755,0.38185 -0.033,0.5704 -0.095,0.0856 -0.173,0.19808 -0.1742,0.24989 0,0.1195 -0.6331,0.79096 -0.853,0.90867 -0.091,0.0488 -0.4352,0.0887 -0.7644,0.0887 -0.4705,0 -0.61,-0.0296 -0.6517,-0.13824 -0.078,-0.20458 0.093,-0.75441 0.5063,-1.62518 0.2022,-0.42581 0.4347,-0.91906 0.5166,-1.09611 0.1833,-0.39604 0.1308,-0.63197 -0.2209,-0.99169 -0.2187,-0.22367 -0.3403,-0.27778 -0.6242,-0.27778 -0.1939,0 -0.6729,-0.0817 -1.0643,-0.18154 -0.3915,-0.0998 -0.7747,-0.15736 -0.8517,-0.12783 -0.1248,0.0479 -0.1338,0.21355 -0.083,1.53636 0.031,0.81547 0.095,1.57944 0.1416,1.69772 0.047,0.11828 0.2172,0.30125 0.3792,0.40659 0.2101,0.13667 0.3107,0.27819 0.3512,0.49406 0.083,0.43999 0,0.66711 -0.3907,1.0437 -0.3343,0.32437 -0.4318,0.57289 -0.2651,0.67594 0.124,0.0766 0.091,0.75372 -0.047,0.97108 -0.068,0.10646 -0.1965,0.19355 -0.2862,0.19355 -0.09,0 -0.2821,0.0677 -0.4276,0.15054 -0.2946,0.1677 -0.3628,0.5219 -0.1365,0.70967 0.075,0.0619 0.1312,0.25698 0.1341,0.46214 0,0.19529 0.037,0.5483 0.076,0.78449 0.039,0.23619 0.042,0.50667 0.01,0.60109 -0.035,0.0944 -0.025,0.2333 0.022,0.30864 0.062,0.0984 0.043,0.20161 -0.065,0.36664 -0.1775,0.27099 -0.5477,0.30971 -0.7563,0.0791 z m 0.6722,-0.19927 c 0.093,-0.1498 -0.013,-0.18153 -0.1308,-0.0394 -0.068,0.0818 -0.074,0.1311 -0.017,0.1311 0.05,0 0.117,-0.0413 0.1482,-0.0917 z m -1.096,-12.14043 c 0.064,-0.0636 0.1033,-0.37523 0.1033,-0.8111 l 0,-0.70787 -0.4572,-0.13288 c -0.566,-0.16457 -1.1558,-0.58109 -1.2275,-0.86704 -0.03,-0.11832 -0.04,-0.52652 -0.023,-0.90711 0.03,-0.6689 0.041,-0.6998 0.3245,-0.92546 0.1611,-0.1284 0.4677,-0.33172 0.6813,-0.45182 0.2588,-0.14557 0.4154,-0.30329 0.4697,-0.47312 0.045,-0.14011 0.1555,-0.33625 0.246,-0.43586 0.1237,-0.13632 0.1773,-0.36502 0.2169,-0.92472 0.032,-0.45267 0.02,-0.74362 -0.03,-0.74362 -0.045,0 -0.3057,0.39677 -0.5787,0.88171 -0.273,0.48495 -0.5321,0.93978 -0.5759,1.01075 -0.044,0.071 -0.1176,0.21752 -0.1643,0.32568 -0.047,0.10815 -0.2581,0.37239 -0.4699,0.58719 -0.3767,0.38222 -1.3372,2.10381 -1.3372,2.39698 0,0.0754 -0.066,0.23826 -0.1474,0.36198 -0.081,0.12372 -0.156,0.28344 -0.1665,0.35493 -0.015,0.10452 0.3331,0.90848 0.4498,1.0379 0.037,0.0409 0.5414,0.1538 1.5845,0.35455 1.0159,0.19549 0.9769,0.19305 1.1011,0.0689 z m -3.6393,-2.09932 c 0.095,-0.19304 0.2955,-0.46353 0.4456,-0.60109 0.3145,-0.28828 1.0235,-1.59507 1.1353,-2.09253 0.042,-0.18567 0.3419,-0.7894 0.6671,-1.34162 0.3253,-0.55223 0.6703,-1.14559 0.7668,-1.3186 0.096,-0.17299 0.2514,-0.45002 0.3441,-0.61561 0.093,-0.16559 0.2364,-0.39339 0.3191,-0.50622 0.083,-0.11283 0.1506,-0.27734 0.1506,-0.36559 0,-0.0882 0.039,-0.16044 0.086,-0.16044 0.047,0 0.086,-0.0414 0.086,-0.092 0,-0.0506 0.1139,-0.25757 0.2531,-0.45991 0.3058,-0.44452 0.4215,-0.82455 0.2508,-0.82405 -0.064,1.7e-4 -0.2832,0.17456 -0.4866,0.38749 -0.2034,0.21292 -0.528,0.47405 -0.7213,0.58029 -0.3647,0.20038 -0.4258,0.2366 -0.9418,0.55875 -0.1705,0.10645 -0.4118,0.19355 -0.5361,0.19355 -0.302,0 -0.7475,0.41411 -1.6545,1.53782 -0.8782,1.0882 -0.9449,1.22564 -0.7673,1.58173 0.1865,0.37381 0.1718,0.42754 -0.235,0.85406 -0.9371,0.98271 -0.9673,1.05158 -0.8304,1.89469 0.1182,0.72773 0.2145,0.84133 0.7134,0.84133 0.1069,0 0.2689,0.0757 0.36,0.16821 0.2368,0.24049 0.3977,0.18094 0.5951,-0.22023 z m -1.4215,-2.78146 c 0.063,-0.11734 0.061,-0.18414 0,-0.22522 -0.1229,-0.0759 -0.3741,0.17494 -0.2982,0.29778 0.088,0.14168 0.2036,0.11394 0.3034,-0.0726 z m 0.089,-2.4138 c 0,-0.0473 -0.039,-0.086 -0.086,-0.086 -0.047,0 -0.086,0.0387 -0.086,0.086 0,0.0473 0.039,0.086 0.086,0.086 0.047,0 0.086,-0.0387 0.086,-0.086 z m 0.9247,-1.11341 c 0.1065,-0.0888 0.1948,-0.19398 0.1963,-0.2337 0,-0.0398 0.137,-0.20585 0.3011,-0.36917 0.1641,-0.16331 0.2983,-0.33333 0.2983,-0.37782 0,-0.0445 0.1837,-0.29796 0.4082,-0.56327 0.2244,-0.26532 0.447,-0.53212 0.4946,-0.59291 0.048,-0.0608 0.1252,-0.15755 0.1725,-0.21504 0.2936,-0.35683 0.542,-0.74644 0.6424,-1.00777 0.064,-0.16559 0.2389,-0.43656 0.3895,-0.60215 0.3022,-0.3322 0.7315,-1.04468 0.7315,-1.21406 0,-0.0595 -0.087,-0.20092 -0.1935,-0.31428 -0.1537,-0.16369 -0.1936,-0.30646 -0.1936,-0.69371 0,-0.26818 -0.024,-0.52631 -0.052,-0.57363 -0.029,-0.0473 -0.1214,-0.39569 -0.2058,-0.77418 -0.084,-0.3785 -0.2625,-0.86326 -0.3957,-1.07726 -0.223,-0.35827 -0.3938,-0.89592 -0.6005,-1.89046 -0.044,-0.21291 -0.1957,-0.73549 -0.3366,-1.16129 -0.3347,-1.01197 -0.8316,-3.13761 -0.9182,-3.92825 -0.038,-0.34438 -0.019,-0.41506 0.1358,-0.49765 0.2819,-0.15083 0.2141,-0.31846 -0.2287,-0.56544 -0.2247,-0.12536 -0.5441,-0.39745 -0.7097,-0.60466 -0.3332,-0.41695 -0.3999,-0.44509 -1.2043,-0.50829 -0.5567,-0.0437 -0.7742,-0.17093 -0.7742,-0.45277 0,-0.16115 -0.2401,-0.5134 -0.6451,-0.94644 -0.2942,-0.31448 -0.419,-0.38123 -0.8602,-0.45986 -0.3485,-0.0621 -0.5624,-0.15141 -0.6584,-0.27488 -0.1248,-0.16039 -0.22,-0.18073 -0.7742,-0.16535 -0.3476,0.01 -0.6816,-0.0148 -0.7423,-0.0543 -0.1222,-0.0795 -0.2708,-0.74122 -0.3355,-1.49396 -0.051,-0.59097 -0.1835,-0.70417 -0.9269,-0.79017 -0.8565,-0.0991 -0.9019,-0.1219 -0.9594,-0.48128 -0.1071,-0.67009 -0.3688,-0.6911 -0.5499,-0.0441 -0.098,0.35125 -0.094,0.45619 0.03,0.80352 0.177,0.49396 0.1809,0.92863 0.013,1.50509 -0.1258,0.43259 -0.1224,0.46356 0.132,1.21753 0.3161,0.93661 0.5132,1.63701 0.5132,1.82377 0,0.17509 0.6633,0.78877 1.093,1.0113 0.1795,0.0929 0.5378,0.30095 0.7962,0.46225 0.5584,0.34849 1.1028,0.45614 1.2227,0.24179 0.05,-0.0886 0.1897,-0.14183 0.3735,-0.14183 0.1749,0 0.5747,-0.1434 0.9864,-0.35381 0.6426,-0.32846 0.7258,-0.34963 1.1604,-0.29533 0.603,0.0753 0.9715,0.26441 1.349,0.69215 0.4883,0.55325 0.5099,0.69703 0.4567,3.04778 -0.026,1.16241 -0.064,2.4038 -0.084,2.75864 -0.055,0.97494 -0.1879,4.68883 -0.2594,7.2505 -0.036,1.27306 -0.023,1.47131 0.11,1.67393 0.083,0.12642 0.1583,0.34754 0.168,0.49139 0.029,0.4314 0.1266,0.90688 0.1854,0.90383 0.03,-0.002 0.1422,-0.0755 0.2486,-0.16432 z m -1.6129,-3.57473 c 0,-0.0654 -0.039,-0.1428 -0.086,-0.17204 -0.049,-0.0302 -0.086,0.0438 -0.086,0.17204 0,0.12823 0.037,0.20231 0.086,0.17204 0.047,-0.0292 0.086,-0.10666 0.086,-0.17204 z m 0.056,-2.21504 c 0.085,-1.88695 0.078,-2.12902 -0.057,-2.12902 -0.1053,0 -0.2954,3.67094 -0.2026,3.91289 0.1295,0.33737 0.18,-0.01 0.2597,-1.78387 z m 6.2522,0.0124 c 0.1955,-0.0891 0.2085,-0.13723 0.2028,-0.75269 0,-0.36163 0,-1.10267 0.013,-1.64675 l 0.019,-0.98924 -0.2465,-0.21506 c -0.1355,-0.11828 -0.3134,-0.25376 -0.3953,-0.30107 -0.104,-0.0601 -0.1616,-0.2334 -0.1911,-0.57499 -0.037,-0.42935 -0.02,-0.50052 0.1349,-0.58367 0.2222,-0.11892 0.2234,-0.22255 0,-0.40968 -0.2287,-0.1958 -0.217,-0.33376 0.043,-0.50407 0.4065,-0.26635 0.2382,-0.49485 -0.963,-1.30731 -0.6136,-0.41506 -0.9638,-0.89216 -1.093,-1.48912 -0.026,-0.12304 -0.2003,-0.394 -0.386,-0.60214 l -0.3376,-0.37844 -0.064,0.24952 c -0.043,0.16771 -0.019,0.33694 0.073,0.51613 0.1945,0.37901 0.3693,0.94209 0.7503,2.41666 0.3447,1.33395 0.6081,2.28929 0.8214,2.97973 0.068,0.21925 0.1232,0.55551 0.1232,0.74723 0,0.43622 0.2834,1.64097 0.4623,1.96539 0.074,0.13396 0.2148,0.40807 0.3131,0.60915 0.1894,0.38716 0.337,0.44294 0.7157,0.27042 z m -6.1792,-2.85822 c 0,-0.33589 -0.1673,-0.32217 -0.1997,0.0164 -0.02,0.20946 0,0.27838 0.086,0.2509 0.062,-0.0208 0.1137,-0.14111 0.1137,-0.26728 z m -1.7865,-3.05203 c 0.082,-0.0524 0.086,-0.23872 0.014,-0.83738 -0.051,-0.42354 -0.1069,-0.8498 -0.1251,-0.94725 -0.023,-0.12398 -0.2163,-0.25962 -0.6433,-0.45161 -0.3357,-0.15093 -0.6404,-0.27442 -0.6773,-0.27442 -0.037,0 -0.137,-0.0774 -0.2227,-0.17204 -0.086,-0.0946 -0.2248,-0.17204 -0.3093,-0.17204 -0.084,0 -0.1766,-0.0371 -0.2046,-0.0825 -0.028,-0.0454 -0.2819,-0.18615 -0.5642,-0.31282 -0.2823,-0.12668 -0.5132,-0.26067 -0.5132,-0.29776 0,-0.0371 -0.1258,-0.0943 -0.2796,-0.12722 -0.1538,-0.0329 -0.3183,-0.0897 -0.3656,-0.12633 -0.1981,-0.15327 -1.9654,-1.03059 -2.0021,-0.99388 -0.022,0.022 -0.017,0.13235 0.012,0.24519 0.033,0.1328 0.1762,0.26142 0.4052,0.36465 0.1945,0.0877 0.534,0.34499 0.7545,0.5717 0.2205,0.22672 0.4315,0.41281 0.469,0.41355 0.183,0.003 1.5232,1.12673 1.5232,1.27647 0,0.0443 0.2033,0.23503 0.4517,0.42386 0.2483,0.18883 0.56,0.4451 0.6925,0.56947 0.1326,0.12438 0.2776,0.22614 0.3224,0.22614 0.045,0 0.2266,0.12945 0.4041,0.28766 0.3025,0.26948 0.6116,0.47963 0.71,0.4826 0.024,5.6e-4 0.091,-0.029 0.149,-0.066 z m 23.8765,-1.50706 c 0.072,-0.11039 0.158,-0.37753 0.1904,-0.59366 0.064,-0.42428 0.083,-0.39304 -0.5602,-0.91571 -0.2593,-0.21083 -2.5405,-1.38669 -2.6902,-1.38669 -0.029,0 -0.2798,-0.1328 -0.5568,-0.29512 -0.2769,-0.16232 -0.6177,-0.32235 -0.7573,-0.35564 -0.1395,-0.0333 -0.3118,-0.10688 -0.3827,-0.16356 -0.3502,-0.27965 -1.5484,-0.62015 -1.5484,-0.44002 0,0.13736 0.1243,0.30811 0.2242,0.30811 0.066,0 0.1199,0.0293 0.1199,0.0652 0,0.0359 0.2613,0.23892 0.5806,0.45125 0.3194,0.21232 0.8818,0.60878 1.2499,0.88102 0.368,0.27225 0.6873,0.49499 0.7094,0.49499 0.137,0 0.9275,0.66582 1.1889,1.00135 0.386,0.4954 0.5551,0.61667 1.2603,0.90366 0.7053,0.28707 0.8101,0.2919 0.972,0.0448 z m -31.047,-1.76958 c -0.01,-0.14645 -0.016,-0.38468 -0.021,-0.52941 -0.01,-0.14473 -0.04,-0.24496 -0.076,-0.22276 -0.036,0.0222 -0.059,0.26643 -0.052,0.54271 0.015,0.5835 0.012,0.56737 0.096,0.51561 0.036,-0.0219 0.06,-0.15969 0.054,-0.30615 z m 27.4743,-21.21815 c 0.2965,-0.032 0.5603,-0.0925 0.5862,-0.13446 0.097,-0.15766 -0.063,-0.41889 -0.257,-0.41889 -0.2574,0 -0.3568,-0.24795 -0.3837,-0.95653 -0.016,-0.42297 0.013,-0.60391 0.1126,-0.70352 0.1808,-0.18081 0.1719,-0.20327 -0.1024,-0.25877 -0.1302,-0.0263 -0.3192,-0.12522 -0.4201,-0.21978 -0.3077,-0.28826 -0.8073,-0.37818 -1.2445,-0.22395 -0.2591,0.0914 -0.8086,0.14273 -1.7721,0.16546 -0.768,0.0181 -1.4403,0.0601 -1.4939,0.0932 -0.087,0.0536 -1.6525,0.3145 -2.6432,0.44047 -0.5064,0.0644 -0.6383,0.2763 -0.5438,0.87368 0.097,0.61089 0.2458,0.71403 0.9563,0.66075 0.9049,-0.0679 1.3547,-0.0548 2.5468,0.0741 1.4142,0.15285 1.6394,0.20038 2.0123,0.42482 0.4762,0.28655 1.215,0.33777 2.6465,0.18346 z m -9.3561,-2.14474 c 0,-0.071 -0.036,-0.12904 -0.081,-0.12904 -0.1085,0 -0.1862,0.13434 -0.1175,0.20306 0.097,0.0969 0.1984,0.059 0.1984,-0.074 z"
       id="path3373"
       inkscape:connector-curvature="0" />
    <path
       style="fill:#000000"
       d="m 256.91249,461.01603 c -1.07042,-1.0704 -0.64815,-1.7963 1.65558,-2.8459 1.80295,-0.8215 2.25764,-1.6871 2.25764,-4.2979 0,-2.4359 0.66134,-3.887 2.59425,-5.6927 1.42683,-1.3329 2.88222,-3.7344 3.23416,-5.3367 0.79442,-3.61688 2.74118,-4.70438 8.42136,-4.70438 4.79718,0 6.73133,1.35342 7.74333,5.41838 0.33277,1.3371 1.76324,2.8412 3.50777,3.6888 2.51033,1.2196 2.98608,1.9727 3.21862,5.0953 0.1647,2.2109 0.97059,4.2956 2.0319,5.256 4.08707,3.6987 2.79218,4.0211 -16.1518,4.0211 -9.85098,0 -18.18175,-0.2709 -18.51281,-0.602 z m -104.74846,-2.8046 c 1.17488,-0.9334 2.17457,-3.0114 2.48857,-5.1724 0.493,-3.3935 1.05569,-4.1287 6.61025,-8.6372 0.62088,-0.5039 1.12884,-1.8871 1.12884,-3.07376 0,-1.18665 0.63857,-2.79614 1.41907,-3.57665 1.14501,-1.14501 1.17454,-1.4191 0.15262,-1.4191 -0.69655,0 -1.81462,1.02416 -2.4845,2.27591 -0.78595,1.4685 -1.52844,1.96552 -2.09294,1.40096 -0.56461,-0.56454 -0.33731,-1.69558 0.64072,-3.18817 1.18383,-1.80671 1.29798,-2.71996 0.52158,-4.17072 -0.76956,-1.43787 -0.67357,-2.34664 0.42463,-4.02281 1.04186,-1.59008 1.41882,-4.47864 1.41882,-10.87284 0,-7.97124 0.13366,-8.64526 1.58037,-7.97137 1.71854,0.80048 7.98307,1.00303 10.15946,0.32848 1.14128,-0.35372 1.30592,0.684 1.04549,6.58888 -0.25655,5.81793 0.009,7.5444 1.55118,10.16165 1.02319,1.7341 1.6182,3.78376 1.32236,4.55478 -0.29584,0.77101 0.21213,2.7947 1.12891,4.49706 1.27269,2.3632 1.41701,3.34508 0.61038,4.15174 -0.8067,0.80666 -1.31456,0.49011 -2.14773,-1.3385 -0.60029,-1.31728 -1.51374,-2.39505 -2.03002,-2.39505 -0.56911,0 -0.51193,0.42675 0.14497,1.08368 0.59601,0.59602 1.08366,2.24001 1.08366,3.6533 0,2.49893 3.42507,7.00283 5.32536,7.00283 0.49074,0 1.01721,1.7271 1.16994,3.8381 0.21438,2.9632 0.74077,4.0411 2.30957,4.7293 1.11754,0.4903 2.0319,1.4047 2.0319,2.0319 0,0.8826 -4.23728,1.136 -18.73857,1.1204 -17.91184,-0.019 -18.65201,-0.089 -16.77489,-1.5804 z m 15.19452,-21.87911 c 0.30694,-0.49668 0.12777,-0.90306 -0.39826,-0.90306 -0.52596,0 -0.95633,0.40638 -0.95633,0.90306 0,0.49669 0.17916,0.90307 0.39822,0.90307 0.21902,0 0.64939,-0.40638 0.95637,-0.90307 z m 51.92621,21.87421 c 0,-0.3863 0.75188,-1.3462 1.67075,-2.133 0.91896,-0.7868 1.92813,-3.0398 2.24267,-5.0068 0.39076,-2.4438 1.23015,-3.9286 2.65049,-4.6888 1.37874,-0.7379 2.39258,-2.4654 3.01083,-5.12996 l 0.93205,-4.01744 -1.92508,1.80855 c -3.92795,3.69005 -6.52832,1.41496 -3.56023,-3.11488 1.15104,-1.75679 1.20414,-2.47908 0.28962,-3.94344 -0.92102,-1.47478 -0.85059,-2.20319 0.3969,-4.10719 1.18851,-1.81392 1.5165,-4.46977 1.5165,-12.27997 0,-5.48101 0.22017,-9.96548 0.4893,-9.96548 0.2691,0 1.33996,0.79253 2.37974,1.76119 3.01218,2.80628 6.64486,3.18027 10.247,1.05495 l 3.13915,-1.85216 0,8.42688 c 0,7.27498 0.26738,8.76681 1.95622,10.9138 1.57593,2.00342 1.75644,2.80679 0.92889,4.13204 -0.79083,1.26628 -0.72275,2.2293 0.29584,4.18207 0.72776,1.39533 1.32579,3.48112 1.32875,4.63507 0.009,2.88873 -2.77402,2.2584 -4.3263,-0.98032 -1.11845,-2.33338 -1.49962,-2.46278 -6.77993,-2.30163 l -5.59486,0.17076 5.1927,0.32584 c 4.6687,0.29297 5.32946,0.59021 6.54722,2.94513 0.74505,1.44061 1.35452,3.17579 1.35452,3.85589 0,0.6801 1.01594,2.1199 2.25765,3.1996 1.7672,1.5366 2.25768,2.8242 2.25768,5.9274 0,3.2049 0.34605,4.0549 1.80612,4.4367 0.99336,0.2598 1.80615,0.9167 1.80615,1.4599 0,0.6782 -5.09275,0.9876 -16.25519,0.9876 -8.94034,0 -16.25515,-0.316 -16.25515,-0.7023 z m 43.83458,-17.68431 c 0.43048,-2.29467 0.22279,-3.16759 -0.85169,-3.57991 -1.1644,-0.44683 -1.31965,-1.51508 -0.85954,-5.91711 0.47177,-4.51359 0.16093,-6.47001 -1.94546,-12.24538 -1.3788,-3.78045 -2.30211,-7.07836 -2.05178,-7.32869 0.25034,-0.25034 1.51226,-0.0533 2.80429,0.43799 2.99637,1.13921 7.49922,-0.33381 8.87427,-2.90306 0.99054,-1.85086 1.01321,-1.84724 2.16146,0.34425 0.63819,1.21811 1.83638,4.84562 2.66252,8.06115 0.88924,3.46083 2.44061,6.83578 3.8021,8.27108 1.69469,1.78663 2.15361,3.00764 1.74389,4.64012 -0.4527,1.80353 0.0443,2.67338 2.67289,4.67832 2.26968,1.73112 2.94524,2.74657 2.27402,3.41781 -0.67126,0.67123 -1.64558,0.64027 -3.2796,-0.10423 -2.45739,-1.11966 -9.47222,-1.3956 -12.79911,-0.50347 -1.24634,0.33422 -2.19339,1.50107 -2.55515,3.14839 -0.8562,3.89815 -3.38803,3.49995 -2.65311,-0.41726 z m -82.64795,-5.52234 c -0.58889,-0.70954 -0.83949,-2.02075 -0.5569,-2.91378 0.28255,-0.89304 -0.2908,-2.84284 -1.27404,-4.33289 -1.78536,-2.70542 -2.35928,-8.65771 -1.23801,-12.84001 l 0.53702,-2.00324 2.98168,2.27422 c 1.864,1.42176 3.20126,1.91877 3.56773,1.32594 1.04637,-1.69317 4.62793,-1.00362 6.80089,1.30938 1.27114,1.35308 3.12206,2.25766 4.61945,2.25766 3.81679,0 4.10217,1.7465 0.71882,4.39817 -15.47146,12.1255 -15.0538,11.85342 -16.15664,10.52455 z m -21.9765,-21.5816 c -0.90155,-1.92399 -4.05098,-6.78405 -6.99875,-10.80013 -2.94781,-4.01607 -5.35963,-7.74482 -5.35963,-8.28611 0,-0.59142 1.25086,-0.83812 3.13447,-0.61822 4.13305,0.48251 8.60539,-3.65084 8.60539,-7.95312 0,-3.37787 -4.22537,-8.12758 -7.23032,-8.12758 -1.07301,0 -1.8154,-0.38166 -1.64979,-0.84813 0.16551,-0.46648 5.4723,-4.73346 11.79276,-9.48217 12.9093,-9.69915 15.43554,-10.86175 11.91005,-5.48126 -0.78783,1.2024 -1.1578,2.63051 -0.82214,3.17359 0.3356,0.54307 -0.68225,5.01277 -2.26198,9.93267 -2.53492,7.8949 -3.23369,9.15855 -5.95077,10.76169 -3.40182,2.00712 -3.74192,2.91182 -1.72402,4.58652 1.72042,1.42782 1.73549,4.47269 0.0343,6.90167 -0.88853,1.26858 -1.40544,4.80491 -1.58037,10.81196 l -0.25988,8.92677 -1.63916,-3.49815 z m 18.82299,-2.33024 c -0.82529,-1.33547 0.48786,-5.45992 1.73842,-5.45992 0.61428,0 1.88552,0.84946 2.82507,1.8877 1.67643,1.85238 1.67579,1.9115 -0.0326,3.16072 -2.02124,1.47794 -3.77337,1.63708 -4.53087,0.4115 z m 80.67294,-1.78356 c -1.41708,-1.1579 -1.82916,-2.04202 -1.22887,-2.63669 1.11058,-1.10023 11.35242,-3.81585 12.26469,-3.25199 1.19214,0.73673 -0.25077,4.02693 -2.56379,5.84636 -2.86699,2.25515 -5.74631,2.26954 -8.47203,0.0424 z m -91.70848,-0.0728 c -2.50808,-1.01026 -5.02329,-4.79441 -4.63758,-6.97721 0.28158,-1.59371 0.62276,-1.5704 7.29416,0.49822 7.61824,2.36221 8.64349,3.78459 4.33441,6.01293 -2.98407,1.54312 -4.1277,1.61937 -6.99099,0.46606 z m 64.24972,-3.11102 c -1.84685,-1.84684 -3.1712,-6.81403 -1.81678,-6.81403 1.44933,0 13.14607,4.86857 13.14607,5.47181 0,1.39055 -3.99885,3.55884 -6.56346,3.55884 -1.50251,0 -3.45937,-0.91012 -4.76583,-2.21662 z m 24.87527,-2.79128 c 0,-0.76761 0.99753,-2.39312 2.21668,-3.61226 2.82413,-2.82421 7.01193,-2.92177 9.70749,-0.22617 l 1.99044,1.99044 -5.37693,1.60955 c -6.62804,1.98406 -8.53768,2.0374 -8.53768,0.23844 z m -82.6304,-0.54024 c -7.42536,-2.43995 -10.38524,-3.70455 -10.38524,-4.43707 0,-1.09895 4.9159,-3.56076 7.11035,-3.56076 2.70658,0 7.33868,4.3257 7.33868,6.85326 0,2.39373 -0.14126,2.43351 -4.06379,1.14457 z m 62.81384,-2.22894 c -6.89833,-2.61453 -6.93744,-2.64519 -5.53553,-4.33443 3.04053,-3.66366 9.79591,-2.14324 12.00337,2.70159 1.64347,3.6071 -0.0985,4.0469 -6.46784,1.63284 z m 7.71332,-1.90731 c -1.4651,-4.55205 -7.99591,-7.05713 -12.33883,-4.73287 -2.26,1.20952 -2.23915,0.89538 0.61526,-9.24787 2.80331,-9.96175 4.20115,-12.4717 6.91524,-12.41673 4.25133,0.0861 7.17519,2.16589 8.76639,6.23571 1.50903,3.8596 1.49248,4.20898 -0.57527,12.16883 -2.7602,10.6249 -2.63269,10.32364 -3.38279,7.99293 z m 10.75427,-0.50832 c -1.96517,-8.47075 -5.04119,-21.30095 -5.48007,-22.85739 -0.48758,-1.72922 -0.18216,-1.88667 3.5038,-1.80613 2.67722,0.0585 4.62655,-0.44432 5.78455,-1.49212 2.38374,-2.15673 2.71768,-2.02596 3.46001,1.3546 0.35456,1.61422 1.80911,6.55863 3.23254,10.98756 1.4234,4.42895 2.588,9.01913 2.588,10.20041 0,1.93568 -0.2909,2.0932 -2.94599,1.59511 -2.26723,-0.42533 -3.72161,-0.0263 -6.3126,1.73198 l -3.36664,2.28464 -0.4636,-1.99866 z m -79.19192,-2.63298 c -1.76683,-1.8401 -3.30015,-2.52641 -5.64416,-2.52641 -1.7701,0 -3.21832,-0.13533 -3.21832,-0.30074 0,-0.16539 1.16459,-3.9244 2.58799,-8.35335 1.4234,-4.42893 2.87798,-9.37334 3.23251,-10.98756 0.35447,-1.61423 0.79207,-2.93496 0.97262,-2.93496 0.18051,0 1.78183,0.85769 3.55852,1.90598 2.05039,1.20977 4.21343,1.76169 5.92157,1.51099 1.48011,-0.21723 2.69115,6.8e-4 2.69115,0.48435 0,1.51959 -6.46234,22.71429 -7.08412,23.2336 -0.32554,0.27199 -1.68359,-0.64237 -3.01776,-2.0319 z m -30.09535,-4.68034 c -1.58225,-1.15696 -1.22241,-1.49675 4.79428,-4.52667 l 6.50485,-3.27581 0,2.72054 c 0,5.29737 -6.8136,8.36186 -11.29913,5.08194 z m -2.24681,-5.11163 c 0,-4.63948 7.31191,-7.94505 11.23276,-5.07809 1.50594,1.10116 1.21767,1.44308 -3.42597,4.06379 -5.91515,3.33831 -7.80679,3.58408 -7.80679,1.0143 z m 34.09581,-15.29074 c -2.24265,-1.76409 -3.78222,-5.9938 -2.47546,-6.80136 0.85285,-0.52714 11.87157,3.0221 13.08133,4.21365 1.31295,1.29318 -2.806,4.37352 -5.84815,4.37352 -1.36807,0 -3.50904,-0.8036 -4.75772,-1.78581 z m 11.55851,0.20545 c 1.25382,-2.85396 1.49504,-8.11713 0.46047,-10.05008 -1.59517,-2.98067 -6.07528,-4.88009 -9.87619,-4.18723 -2.88717,0.52631 -3.11574,0.44009 -1.92216,-0.72513 0.87498,-0.85424 4.17587,-1.51522 9.32286,-1.86687 7.59642,-0.51899 8.20761,-0.41942 13.09445,2.13294 3.6315,1.8967 5.65274,3.6645 6.93229,6.06302 1.7404,3.2624 1.96234,3.37598 6.09569,3.11924 4.96215,-0.30823 5.69028,1.07373 1.32496,2.51444 -3.81491,1.25902 -21.21487,4.58003 -23.99639,4.58003 -1.69136,0 -1.9872,-0.32566 -1.43598,-1.58036 z m 45.5552,-1.41076 c -9.28169,-2.81793 -9.39487,-2.88447 -5.35246,-3.1475 l 4.12961,-0.26872 3.54641,-7.28562 3.54635,-7.28561 19.15402,0.36895 c 10.53468,0.20293 19.32882,0.55454 19.5426,0.78135 0.7403,0.78577 -1.37457,12.16122 -2.62432,14.11503 -0.85449,1.33599 -2.86688,2.29734 -6.30177,3.01043 -6.07025,1.26015 -7.64544,0.79355 -7.64544,-2.26469 0,-4.3753 -2.44949,-8.5621 -5.83742,-9.97767 -2.81673,-1.17691 -3.56972,-1.17691 -6.38649,0 -4.87924,2.03868 -6.9598,8.83639 -3.90861,12.77061 0.8475,1.09289 0.11133,2.20529 -1.40201,2.1184 -0.53807,-0.0309 -5.24527,-1.35163 -10.46047,-2.93496 z m 13.57432,0.56441 c -2.40297,-3.05487 -1.60636,-3.59023 6.59145,-4.43013 6.7907,-0.69572 7.56427,0.13865 4.15142,4.4774 -2.6629,3.38527 -8.06151,3.36151 -10.74287,-0.0472 z m -66.62938,-5.78434 c -5.85935,-1.85634 -6.74687,-2.94412 -4.0638,-4.98086 3.96465,-3.00956 11.96561,0.11871 11.96561,4.67835 0,2.6062 -0.56242,2.62774 -7.90181,0.30251 z m 64.79488,-0.29246 c 0,-2.41407 4.14741,-5.94551 6.98251,-5.94551 4.59732,0 8.66663,4.4181 5.26982,5.72157 -0.71141,0.27302 -3.75928,0.77536 -6.77297,1.11632 -4.76919,0.53958 -5.47936,0.42392 -5.47936,-0.89238 z m -37.86676,-2.55902 c -0.74582,-2.23101 -2.26353,-3.6389 -6.3276,-5.86992 l -5.3464,-2.93496 -14.51287,0 -14.51297,0 0,-17.96343 0,-17.96343 11.9656,-4.73133 c 8.59483,-3.39848 12.80843,-5.58843 14.95744,-7.7739 l 2.99186,-3.04259 19.52651,0 c 19.01124,0 19.58331,0.0536 21.67511,2.03189 1.18165,1.11755 9.94498,5.32724 19.47404,9.35488 l 17.32565,7.32297 0.55983,5.77146 c 0.30795,3.1743 0.84309,10.14004 1.18925,15.47941 l 0.62941,9.70794 -19.48371,0 -19.48372,0 -3.35134,6.77299 -3.35137,6.77298 -11.47173,0 -11.4718,0 -0.98119,-2.93496 z m 8.9687,-1.58036 c 0,-1.98674 -0.40636,-3.61226 -0.90306,-3.61226 -0.4967,0 -0.90306,1.62552 -0.90306,3.61226 0,1.98674 0.40636,3.61226 0.90306,3.61226 0.4967,0 0.90306,-1.62552 0.90306,-3.61226 z m 3.61226,0 c 0,-1.98674 -0.40639,-3.61226 -0.90306,-3.61226 -0.49669,0 -0.90305,1.62552 -0.90305,3.61226 0,1.98674 0.40636,3.61226 0.90305,3.61226 0.49667,0 0.90306,-1.62552 0.90306,-3.61226 z m 3.61227,0 c 0,-1.98674 -0.40639,-3.61226 -0.90309,-3.61226 -0.49667,0 -0.90306,1.62552 -0.90306,3.61226 0,1.98674 0.40639,3.61226 0.90306,3.61226 0.4967,0 0.90309,-1.62552 0.90309,-3.61226 z m 3.61223,0 c 0,-1.98674 -0.40636,-3.61226 -0.90306,-3.61226 -0.99915,0 -1.25668,5.6668 -0.30098,6.62247 1.05461,1.0546 1.20404,0.68088 1.20404,-3.01021 z m -115.14073,1.80613 c -0.30694,-0.49669 -1.95649,-0.90307 -3.66554,-0.90307 -1.70912,0 -3.10743,-0.44209 -3.10743,-0.98244 0,-0.64585 -1.23758,-0.77336 -3.61227,-0.37215 -3.13299,0.52931 -3.61226,0.38851 -3.61226,-1.06108 0,-0.91925 0.88809,-2.07251 1.97347,-2.56281 3.07693,-1.38987 3.23379,-3.3642 0.2384,-3.00122 -2.98336,0.36152 -4.21125,-1.83639 -1.43198,-2.5632 1.23169,-0.32209 1.80558,-1.12858 1.67555,-2.35466 -0.13204,-1.24505 0.85268,-2.58326 2.96294,-4.0267 1.73841,-1.18905 3.4554,-2.95541 3.81565,-3.92523 0.36953,-0.99492 1.84523,-2.00138 3.38648,-2.30964 1.50234,-0.30047 2.73158,-1.05579 2.73158,-1.67847 0,-1.18491 2.7455,-2.48988 8.20407,-3.89953 2.54071,-0.6561 3.41847,-0.54879 4.07924,0.49869 0.73112,1.15919 2.04807,1.04454 10.01553,-0.87198 8.76922,-2.10938 9.19283,-2.13344 9.60807,-0.54563 0.24717,0.94545 1.24885,1.66105 2.32505,1.66105 1.79878,0 1.89064,0.46071 1.89064,9.48218 0,7.82656 -0.23651,9.48218 -1.35459,9.48218 -1.51842,0 -1.84678,2.29843 -0.45153,3.16072 1.52706,0.94382 1.00157,2.25767 -0.90306,2.25767 -1.00342,0 -1.80615,0.60204 -1.80615,1.35459 0,1.08169 -1.34231,1.3546 -6.66245,1.3546 -4.82038,0 -6.97319,0.37451 -7.78658,1.35459 -1.31208,1.58091 -4.62622,1.78554 -6.03889,0.37286 -0.70701,-0.70696 -1.15157,-0.70696 -1.58847,0 -0.76193,1.23266 -10.1304,1.30038 -10.88547,0.0787 z m 12.27302,-9.3744 c 2.05611,-3.37182 2.15173,-5.24128 0.43763,-8.55592 -1.41213,-2.7307 -4.80258,-4.6463 -8.22358,-4.6463 -2.4027,0 -7.4678,4.15274 -7.71026,6.32146 -0.42527,3.80292 0.2839,6.29659 2.38959,8.40225 4.11064,4.11071 10.09588,3.41592 13.10662,-1.52149 z m -12.31409,0.83634 c -3.01581,-3.01579 -3.01581,-7.90309 0,-10.91888 4.59487,-4.59481 12.59368,-1.21726 12.59368,5.31772 0,6.95941 -7.77666,10.41816 -12.59368,5.60116 z m 32.09987,-3.20178 c 0,-1.3245 -0.60207,-1.80613 -2.25768,-1.80613 -1.65557,0 -2.25764,0.48163 -2.25764,1.80613 0,1.3245 0.60207,1.80613 2.25764,1.80613 1.65561,0 2.25768,-0.48163 2.25768,-1.80613 z m -9.03065,-5.95628 c 0,-0.29585 -0.8404,-1.71817 -1.86763,-3.16073 -1.59093,-2.23428 -2.47367,-2.62283 -5.95887,-2.62283 l -4.09124,0 2.57239,3.09552 c 2.06068,2.47976 3.24606,3.10851 5.95887,3.16073 1.86255,0.0359 3.38648,-0.17685 3.38648,-0.47269 z m 9.03065,-2.62283 c 0,-3.14401 -0.0215,-3.16073 -4.06379,-3.16073 -2.23508,0 -4.0638,0.22337 -4.0638,0.49638 0,0.273 0.62007,1.69533 1.37783,3.16072 1.0572,2.04441 2.0027,2.66435 4.06376,2.66435 2.46766,0 2.686,-0.25691 2.686,-3.16072 z m 6.92352,9.78319 c -0.33116,-0.33112 -0.60208,-4.5981 -0.60208,-9.48218 0,-8.8701 0,-8.88013 2.25768,-8.88013 l 2.25765,0 0,9.48218 c 0,8.59279 -0.15532,9.48218 -1.65557,9.48218 -0.91066,0 -1.9266,-0.27092 -2.25768,-0.60205 z m 5.37839,-0.12223 c -0.24626,-0.39836 -0.39815,-4.66534 -0.33758,-9.48218 0.10702,-8.52114 0.16655,-8.7579 2.20044,-8.7579 2.05248,0 2.09038,0.17222 2.09038,9.48218 0,8.78403 -0.12905,9.48218 -1.75284,9.48218 -0.964,0 -1.95424,-0.32593 -2.2004,-0.72428 z m 4.85633,-8.69509 0,-9.54499 2.28927,0 2.28926,0 -0.25737,9.25641 c -0.24529,8.82154 -0.35285,9.26997 -2.28929,9.54499 -1.99719,0.28364 -2.03187,0.12555 -2.03187,-9.25641 z m 117.0884,1.09555 c -0.32023,-4.11389 -0.5824,-8.90214 -0.58267,-10.64054 0,-3.12396 0.0424,-3.08914 3.69198,2.99371 3.34552,5.57596 3.59286,6.39518 2.63172,8.71568 -0.58354,1.40868 -1.98293,3.42743 -3.10989,4.48611 l -2.04885,1.92486 -0.58229,-7.47982 z"
       id="path3386-3"
       inkscape:connector-curvature="0" />
    <path
       style="fill:#00ff00"
       d="m 272.26639,634.90936 c -0.40783,-0.6599 0.95831,-1.9404 2.31492,-2.1693 0.77151,-0.1316 1.99924,-0.71315 2.72827,-1.29465 1.73033,-1.3804 4.42076,-2.7379 5.42965,-2.7396 0.43989,0 1.31587,-0.3159 1.94667,-0.7005 0.68958,-0.4204 1.76435,-0.6994 2.69554,-0.6994 1.33775,0 1.61091,-0.1289 2.00563,-0.9488 0.31886,-0.662 0.9118,-1.0801 1.96187,-1.3834 0.95516,-0.2759 2.52152,-1.3049 4.28778,-2.8167 2.90818,-2.4893 2.80995,-2.3191 4.00469,-6.93552 0.68394,-2.64284 1.85756,-8.7356 2.32775,-12.08456 0.22991,-1.63759 0.85901,-4.61174 1.39797,-6.60923 l 0.97998,-3.63177 -1.00427,-1.27214 c -0.73057,-0.92541 -1.10223,-1.92086 -1.36359,-3.65227 -0.32457,-2.14985 -0.52867,-2.5654 -2.10927,-4.29485 -0.96247,-1.05308 -2.19341,-2.28424 -2.73544,-2.73591 -1.35771,-1.13134 -5.68917,-3.7246 -6.22118,-3.7246 -0.75561,0 -1.55304,-1.19214 -1.79043,-2.6767 -0.17124,-1.07087 -0.0429,-1.85337 0.50873,-3.10032 0.40578,-0.91734 0.73782,-1.72668 0.73782,-1.79851 0,-0.072 -0.52158,-0.13051 -1.15906,-0.13051 -0.63745,0 -1.46473,-0.22355 -1.83841,-0.49678 -0.66566,-0.48674 -0.65993,-0.53645 0.28333,-2.45972 0.61074,-1.24529 0.96271,-2.53144 0.96271,-3.51794 0,-1.50327 -0.0437,-1.56624 -1.31353,-1.89293 -0.72245,-0.18586 -2.25931,-0.43804 -3.41523,-0.5604 -4.91348,-0.52009 -5.24476,-0.62308 -5.36503,-1.66803 -0.0899,-0.78058 0.0762,-1.03579 0.87572,-1.34672 1.16457,-0.45288 4.18398,-0.20822 7.58696,0.61474 2.04804,0.4953 2.44258,0.50793 2.70932,0.0865 0.60172,-0.9505 0.30572,-1.26317 -1.79947,-1.90055 -2.30725,-0.69859 -3.04069,-1.48206 -2.43931,-2.60576 0.39882,-0.74521 1.8393,-1.09312 4.01337,-0.96927 l 1.3782,0.0785 0.44448,-1.92654 c 0.24447,-1.05958 0.7822,-3.47304 1.19497,-5.36323 0.61664,-2.82374 0.88506,-3.48658 1.50495,-3.71651 0.97182,-0.36041 9.4625,-1.08072 12.72329,-1.0794 1.38117,7.2e-4 3.43029,-0.22474 4.55364,-0.50067 1.1233,-0.27596 3.95213,-0.60734 6.28625,-0.73646 4.10942,-0.22728 4.26728,-0.20952 4.98441,0.56018 0.44889,0.48183 1.26065,0.84407 2.06118,0.91976 2.43993,0.23069 2.30258,-0.34963 1.99551,8.43157 -0.15317,4.38071 -0.25525,9.34417 -0.2268,11.02988 0.0369,2.20048 -0.0682,3.06321 -0.37335,3.0588 -2.62826,-0.0379 -12.25138,0.36711 -13.12267,0.5523 -0.79354,0.16867 -1.13839,0.44091 -1.13839,0.89874 0,0.60833 0.33418,0.65678 4.53003,0.65678 4.22239,0 4.54511,0.0476 4.75237,0.70057 0.1741,0.54854 0.52997,0.70054 1.64032,0.70054 1.22121,0 1.6068,0.20658 2.77864,1.48855 0.74834,0.81867 1.36065,1.69663 1.36065,1.95098 0,0.25436 -0.47288,1.14977 -1.05085,1.98981 -1.21975,1.77284 -1.28983,2.30222 -0.41027,3.09822 0.45569,0.41238 1.28986,0.5801 2.88981,0.58102 3.88299,10e-4 5.23315,1.38648 4.71683,4.83588 -0.13523,0.90364 -0.25593,1.95824 -0.2681,2.34354 -0.0455,1.43883 0.80817,5.91946 1.22305,6.41934 0.29098,0.35059 0.45149,2.21173 0.49514,5.74156 0.0661,5.34433 0.47814,8.00588 1.85867,12.00558 0.67279,1.94941 0.6827,2.12938 0.13899,2.52692 -0.32198,0.23552 -0.70324,0.47316 -0.8473,0.52832 -0.14412,0.0558 -0.087,0.94523 0.12693,1.97835 0.38016,1.83654 0.36693,1.89696 -0.59914,2.7279 -0.85577,0.73615 -1.14602,1.53895 -2.17019,6.00317 -0.65024,2.8342 -1.1862,5.802 -1.19097,6.5949 -0.007,0.9219 -0.2729,1.7773 -0.74182,2.3733 l -0.73313,0.932 1.2796,1.41655 c 0.70382,0.7789 1.21768,1.6023 1.14192,1.8297 -0.10076,0.3032 -2.96497,0.4383 -10.70458,0.5064 -5.81181,0.051 -10.56689,0 -10.56689,-0.1051 0,-0.1082 0.23552,-0.6532 0.5234,-1.2097 0.67433,-1.30405 1.83356,-2.10565 3.04515,-2.10565 0.52841,0 1.71493,-0.4793 2.63673,-1.0649 0.9218,-0.5857 2.54293,-1.3159 3.60253,-1.6228 1.0596,-0.3069 2.23745,-0.7734 2.61749,-1.0367 0.37999,-0.2634 1.2619,-0.479 1.9598,-0.479 0.76957,0 1.48105,-0.2411 1.80805,-0.613 0.57187,-0.6501 1.66065,-5.4781 1.68646,-7.4784 0.01,-0.655 0.23576,-1.8095 0.50511,-2.56542 0.32721,-0.9185 0.3803,-1.57921 0.16,-1.99086 -0.18137,-0.33871 -0.35194,-1.92704 -0.37903,-3.52929 -0.0455,-2.68929 -0.52277,-7.34451 -1.37599,-13.42165 -0.18935,-1.3486 -0.49568,-4.65298 -0.68076,-7.3431 -0.33146,-4.81859 -0.35161,-4.903 -1.35802,-5.69065 -0.56186,-0.43973 -1.51832,-1.67967 -2.12545,-2.75545 -1.51583,-2.68592 -3.1972,-3.46499 -7.54643,-3.49666 -1.73389,-0.012 -3.38895,-0.11828 -3.67794,-0.23471 -0.28897,-0.11643 -0.92997,-0.29944 -1.42445,-0.40665 -0.49445,-0.10728 -1.11218,-0.59326 -1.37273,-1.08009 -0.45054,-0.84188 -0.62076,-0.8849 -3.47946,-0.8798 -1.65317,0.002 -3.21709,0.13929 -3.47542,0.30303 -0.36939,0.23414 -0.0856,1.09616 1.3298,4.03779 1.81562,3.77364 1.9348,3.90024 4.35827,4.63041 1.57135,0.47342 2.38293,1.8346 2.36638,3.9689 -0.01,1.0834 -0.24832,2.18615 -0.58876,2.70566 -0.69134,1.05515 -0.89725,2.42681 -0.98955,6.5916 -0.0491,2.21206 -0.23883,3.4138 -0.63627,4.02826 -1.02945,1.59161 -2.14222,8.20235 -2.18151,12.96037 l -0.0361,4.37851 -1.05082,0.1093 c -0.77727,0.08 -1.18766,0.3935 -1.57627,1.203 -0.28898,0.6021 -0.83078,1.2626 -1.204,1.4679 -2.62193,1.4425 -7.68703,5.1241 -9.24573,6.7206 l -1.86975,1.9149 0.99312,1.2501 c 1.56777,1.97325 1.9768,2.58155 1.83021,2.72185 -0.28077,0.2687 -22.10302,0.3645 -22.26783,0.097 z m 26.35375,-64.91865 c 0.6337,-0.41523 1.22524,-0.50198 2.17693,-0.31925 1.60454,0.30808 2.93822,0.27376 3.29684,-0.0848 0.14832,-0.14831 -0.0514,-0.79716 -0.44331,-1.44194 l -0.71293,-1.17233 -2.16832,0.23523 c -1.19257,0.12932 -3.10954,0.49447 -4.25994,0.81132 -2.07222,0.57079 -2.08123,0.57883 -0.97138,0.86645 0.61616,0.15966 1.28709,0.60196 1.49096,0.98291 0.44829,0.83757 0.49437,0.84114 1.59115,0.1224 z"
       id="path4026-8"
       inkscape:connector-curvature="0" />
    <path
       style="opacity:1;fill:#a02c2c"
       d="m 418.72065,301.65143 -2.6537,2.69908 c -1.9067,1.93905 -5.6457,3.88348 -13.2713,6.89876 l -10.6177,4.19642 0,15.93796 0,0.4612 -0.8023,0 0.059,-2.15017 -2.0301,0 -2.0332,0 0,2.15017 -0.9062,0 c -0.1684,-2.08503 -0.6048,-2.15017 -1.7474,-2.15017 -1.1544,0 -1.5864,0.10923 -1.7766,2.15017 l -1.1758,0 0,-2.15017 -2.0041,0 c -1.2915,0 -1.7465,0.0383 -1.9098,2.15017 l -1.0166,0 c -0.1689,-1.9785 -0.5747,-2.15017 -1.5558,-2.15017 -0.9549,0 -1.8432,-0.63574 -2.0625,-1.4746 -0.1842,-0.70438 -0.3717,-1.05056 -1.4844,-0.98739 -1.1125,0.0632 -3.1514,0.53559 -7.0416,1.47135 -7.0691,1.70043 -8.2378,1.80477 -8.8865,0.77629 -0.5863,-0.92938 -1.3641,-1.02712 -3.6183,-0.44498 -4.8431,1.2507 -7.27879,2.41107 -7.27879,3.46237 0,0.55246 -1.0901,1.22099 -2.42303,1.48757 -1.36748,0.27351 -2.67657,1.16677 -3.00436,2.0495 -0.31971,0.86046 -1.84529,2.42688 -3.38771,3.48186 -1.87229,1.28068 -2.74469,2.46814 -2.62759,3.5728 0.11535,1.08784 -0.39482,1.80269 -1.48764,2.08847 -2.46589,0.64486 -1.377,2.59761 1.27006,2.27686 2.65755,-0.32206 2.5188,1.42693 -0.21124,2.66011 -0.96294,0.43502 -1.7506,1.458 -1.7506,2.2736 0,1.28613 0.42598,1.41154 3.20577,0.94192 2.10693,-0.35596 3.20576,-0.24174 3.20576,0.3313 0,0.47941 1.24109,0.87047 2.7576,0.87047 1.51629,0 2.97889,0.36155 3.25125,0.80225 0.66991,1.08391 8.98032,1.02227 9.65632,-0.0715 0.3876,-0.62725 0.7823,-0.62725 1.4096,0 1.2533,1.25338 4.195,1.07462 5.3592,-0.32804 0.7217,-0.86957 2.6317,-1.20177 6.9085,-1.20177 4.7202,0 5.9114,-0.24204 5.9114,-1.20177 0,-0.6677 0.711,-1.20174 1.6012,-1.20174 1.6899,0 2.1572,-1.16664 0.8023,-2.00403 -1.2379,-0.76507 -0.9477,-2.80627 0.3995,-2.80627 0.6027,0 0.8985,-0.72254 1.0524,-2.7056 l 1.1562,0 c 0.092,1.18502 0.2049,2.0465 0.3313,2.17292 0.2938,0.29379 1.1928,0.53268 2.0008,0.53268 0.8662,0 1.2275,-0.37096 1.3739,-2.7056 l 1.1823,0 c 0.055,1.09733 0.1247,1.92071 0.2143,2.06573 0.2185,0.35345 1.0968,0.63987 1.9521,0.63987 0.9465,0 1.3163,-0.3119 1.4616,-2.7056 l 0.9647,0 c 0.1316,2.65736 0.5236,2.73415 1.7311,2.56268 1.0958,-0.15566 1.5321,-0.39474 1.7605,-2.56268 l 1.244,0 0,3.50785 8.4773,0 c -0.5383,0.62844 -0.1184,0.66035 2.0429,0.26634 1.2093,-0.22045 2.4939,-0.1372 3.7125,0.17213 l -0.51,1.27972 c -1.826,-0.36594 -3.7386,-0.16015 -5.109,0.88021 -2.2897,1.73814 -1.6057,2.70238 3.0726,4.23865 l -0.3639,0.91918 c -2.3592,-0.72624 -4.5598,-1.28089 -4.8978,-1.07184 -1.1596,0.7165 0.2057,4.46637 2.1956,6.03155 0.1682,0.13238 0.3817,0.25036 0.5813,0.37352 l -0.5683,1.42587 c -0.082,-0.0457 -0.1653,-0.0753 -0.2469,-0.12338 -1.5763,-0.93011 -3.0002,-1.69222 -3.1603,-1.69222 -0.1602,0 -0.5462,1.17269 -0.8607,2.6049 -0.3146,1.43223 -1.6052,5.81768 -2.868,9.74726 -1.2629,3.92957 -2.2963,7.26527 -2.2963,7.41194 0,0.14684 1.2845,0.26633 2.855,0.26633 0.4201,0 0.7937,0.0444 1.1627,0.0974 l -0.5392,1.5688 c -0.1237,-0.0174 -0.2603,-0.0651 -0.3767,-0.0651 -1.9471,0 -6.3076,2.18528 -6.3076,3.16032 0,0.47915 1.4591,1.2247 4.8492,2.44576 l -0.3215,1.07184 c -4.4744,-1.36473 -4.9636,-1.33869 -5.1903,-0.0552 -0.3422,1.93668 1.8899,5.29434 4.1152,6.1907 0.1,0.0399 0.1653,0.0512 0.2599,0.0877 l 0,0.87371 c -0.9826,-0.11058 -1.8498,-0.25691 -2.3094,-0.47097 -1.2836,-0.5979 -1.4031,-0.001 -1.4031,7.07091 0,5.67325 -0.3359,8.23571 -1.2602,9.64659 -0.9744,1.4872 -1.0596,2.29375 -0.3768,3.56958 0.6888,1.28714 0.5891,2.09968 -0.4613,3.70262 -0.8677,1.32425 -1.0693,2.32482 -0.5683,2.82578 0.5009,0.50084 1.1605,0.0635 1.8578,-1.24065 0.5944,-1.11052 1.5841,-2.02034 2.2022,-2.02034 0.9067,0 0.8828,0.24431 -0.1333,1.26021 -0.6924,0.69245 -1.2602,2.12044 -1.2602,3.1733 0,1.05288 -0.4495,2.27792 -1.0003,2.72514 -4.9283,4.00008 -5.4285,4.65445 -5.866,7.66527 -0.2786,1.91747 -1.1662,3.76116 -2.2086,4.58938 -1.6655,1.32226 -1.0065,1.38321 14.8856,1.3998 12.8662,0.0162 16.6233,-0.21067 16.6233,-0.99379 0,-0.5564 -0.8111,-1.36764 -1.8026,-1.8026 -1.392,-0.6106 -1.8593,-1.56735 -2.0495,-4.19633 -0.011,-0.1165 -0.029,-0.21491 -0.039,-0.32812 1.7657,0.033 3.6957,0.0512 5.7392,0.0512 9.9038,0 14.4212,-0.27503 14.4212,-0.87689 0,-0.48194 -0.72,-1.06216 -1.6014,-1.29261 -1.2954,-0.33881 -1.6044,-1.09308 -1.6044,-3.93661 0,-2.75323 -0.4329,-3.8985 -2.0008,-5.26178 -1.1017,-0.9581 -2.004,-2.23527 -2.004,-2.83875 0,-0.43704 -0.3265,-1.37462 -0.7341,-2.33865 l 1.7604,0 c 1.1185,0.77562 2.1784,0.45865 2.173,-1.2213 0,-1.0239 -0.5333,-2.87711 -1.1791,-4.1152 -0.9036,-1.73249 -0.9648,-2.5856 -0.263,-3.70913 0.7342,-1.17584 0.5764,-1.88948 -0.8218,-3.667 -1.4985,-1.90492 -1.7377,-3.22763 -1.7377,-9.68231 l 0,-7.47691 -2.7835,1.6435 c -1.3632,0.8043 -2.7286,1.1801 -4.0568,1.18227 l 0,-1.3057 c 0.071,0.005 0.1492,0.0292 0.2176,0.0292 2.2754,0 5.8238,-1.92331 5.8238,-3.15705 0,-0.25658 -2.4193,-1.39133 -5.0442,-2.49448 l 0.3572,-0.93866 c 4.8932,1.7479 6.2343,1.25809 4.8591,-1.76044 -0.6378,-1.39976 -1.7056,-2.47878 -2.946,-3.19602 l 0.3866,-1.01663 c 1.7039,0.86922 3.1092,2.23634 3.6669,3.96906 0.6656,2.06792 0.5522,2.33651 3.0011,-7.09038 1.8347,-7.06234 1.8489,-7.37195 0.51,-10.79638 -0.096,-0.2449 -0.2117,-0.45988 -0.3183,-0.68857 4.156,-0.79392 8.4273,-1.70075 10.4391,-2.28011 l 6.3629,0 8.1784,0 c 0.9195,0.30298 2.1037,0.66961 3.9529,1.23101 2.1135,0.64168 4.0449,1.20516 5.6612,1.66298 l -0.5035,1.10432 c -0.3056,-0.0325 -0.6091,-0.0714 -0.9321,-0.0781 -2.4081,-0.0488 -3.6482,2.17872 -6.1354,11.01724 -2.5327,8.99953 -2.551,9.27759 -0.5457,8.20445 1.2818,-0.68603 2.7768,-0.86337 4.2515,-0.69183 l -0.2175,0.97764 c -1.8358,-0.20745 -3.6577,0.33243 -4.8428,1.76044 -1.1364,1.36931 -0.968,1.58822 3.6962,3.37141 l -0.2111,0.94842 c -2.1525,-0.85188 -4.1645,-1.58503 -4.6739,-1.58503 -1.2017,0 -0.024,4.40589 1.6143,6.04455 0.5076,0.50762 1.1332,0.929 1.7798,1.26347 l -0.328,1.46808 c -0.8609,-0.35745 -1.6936,-0.87661 -2.4749,-1.6045 -0.9226,-0.85944 -1.8757,-1.56228 -2.1145,-1.56228 -0.2388,0 -0.432,3.97807 -0.432,8.84105 0,6.92957 -0.2902,9.28448 -1.3446,10.89375 -1.1069,1.68941 -1.1713,2.3358 -0.3541,3.64424 0.8114,1.29912 0.7647,1.94269 -0.2566,3.5014 -2.6334,4.0191 -0.3247,6.0348 3.1603,2.76083 l 1.7052,-1.60456 -0.8249,3.5664 c -0.5486,2.36407 -1.45,3.89573 -2.6731,4.55043 -1.2603,0.67427 -2.0049,1.99216 -2.3516,4.16058 -0.2791,1.74516 -1.1725,3.74539 -1.9878,4.44332 -0.8153,0.69813 -1.4843,1.5475 -1.4843,1.89021 0,0.34271 6.4921,0.62367 14.4244,0.62367 9.9037,0 14.4211,-0.27511 14.4211,-0.87697 0,-0.48187 -0.72,-1.06228 -1.6013,-1.29265 -1.2955,-0.33881 -1.6046,-1.09302 -1.6046,-3.93645 0,-2.75321 -0.4327,-3.89859 -2.0007,-5.26185 -1.1017,-0.95802 -2.0041,-2.23515 -2.0041,-2.83865 0,-0.38804 -0.262,-1.17326 -0.5975,-2.01703 l 2.2574,0 c 0.8522,0.2695 1.5438,-0.189 1.5396,-1.54295 0,-1.02388 -0.5335,-2.8771 -1.1791,-4.11518 -0.9038,-1.7325 -0.9648,-2.58561 -0.2631,-3.70912 0.7342,-1.17588 0.5764,-1.88947 -0.8218,-3.66702 -1.4984,-1.90496 -1.7377,-3.22765 -1.7377,-9.68234 l 0,-7.47689 -2.7835,1.64349 c -1.1963,0.70587 -2.396,1.10113 -3.5695,1.18876 l 0.2987,-1.33493 c 2.2534,-0.26397 5.2521,-1.96839 5.2521,-3.10509 0,-0.22239 -1.909,-1.12773 -4.0958,-2.07548 l 0.2371,-1.0621 c 4.2318,1.40447 5.3312,0.79077 4.0341,-2.05599 -0.6246,-1.3708 -1.6604,-2.43643 -2.868,-3.1538 l 0.2436,-1.08809 c 1.7334,0.86678 3.1674,2.24407 3.732,3.99831 0.6655,2.06791 0.5521,2.33649 3.0011,-7.09039 1.8347,-7.06235 1.8489,-7.37195 0.5099,-10.79637 -0.8706,-2.22709 -2.1933,-3.77786 -3.9625,-4.66088 l 0.5196,-1.14005 c 0.1515,0.033 0.6653,0.17869 0.7211,0.18187 1.3428,0.0771 1.9959,-0.91094 1.244,-1.88057 -2.4907,-3.21158 -1.1237,-8.56403 2.4815,-10.80936 l 0.3735,1.14653 c -1.6168,1.10818 -2.9654,2.75367 -2.9654,4.04701 0,1.13321 0.6594,1.25236 4.5601,0.82176 l 0.3087,0.93867 c -4.7807,0.61965 -5.0809,1.29284 -3.2415,3.63126 1.2765,1.62283 3.2469,2.35425 5.1643,2.24438 l 0.3247,0.99064 c -0.402,0.0256 -0.8051,0.052 -1.2536,0.0423 -3.2704,-0.0715 -3.541,0.0703 -3.1084,1.60451 0.3894,1.38095 3.1186,12.76167 4.8622,20.2773 l 0.4126,1.7734 2.988,-2.02676 c 0.2222,-0.15066 0.3994,-0.2384 0.6042,-0.36701 l 0.2989,1.11082 c -0.3974,0.25804 -0.7843,0.55044 -1.1401,0.90618 -1.0817,1.08169 -1.965,2.52472 -1.965,3.20578 0,1.2491 1.1183,1.45338 4.388,0.65609 l 0.2501,0.93542 c -1.6427,0.50995 -3.0891,1.02667 -3.4364,1.37067 -0.5326,0.52761 -0.1692,1.31121 1.0881,2.33857 1.2175,0.99479 2.4706,1.48132 3.7384,1.4681 l 0.3118,1.16277 c -0.7301,0.005 -1.4415,-0.0968 -2.0754,-0.33778 -1.1464,-0.43584 -2.2658,-0.61185 -2.488,-0.38977 -0.2221,0.2221 0.5988,3.14833 1.8221,6.50251 1.869,5.12417 2.1433,6.85982 1.7248,10.86459 -0.4083,3.90568 -0.2698,4.85557 0.7632,5.25203 0.9527,0.36552 1.1346,1.14324 0.7535,3.17647 -0.6498,3.4721 1.5955,3.82444 2.3548,0.36702 0.321,-1.46163 1.1613,-2.49666 2.2671,-2.79317 0.4001,-0.10802 0.8687,-0.18991 1.3707,-0.25991 l 0,1.13675 c -1.6317,0.58905 -2.4348,1.69248 -2.8549,3.60542 -0.3123,1.42162 -1.6021,3.55278 -2.868,4.73548 -1.715,1.60211 -2.3029,2.8894 -2.3029,5.05063 0,2.31638 -0.4043,3.0842 -2.004,3.81312 -2.044,0.93126 -2.4178,1.57724 -1.4681,2.52692 0.2938,0.29377 7.685,0.5327 16.4252,0.5327 16.8078,0 17.9564,-0.28451 14.3301,-3.5663 -0.9416,-0.85205 -1.6564,-2.70243 -1.8026,-4.66405 -0.2063,-2.77055 -0.6277,-3.43911 -2.855,-4.52117 -1.5479,-0.75205 -2.8163,-2.08775 -3.1115,-3.27409 -0.6358,-2.55357 -1.7037,-3.88054 -3.7711,-4.4498 l 0,-0.81518 c 0.9316,0.14966 1.7242,0.35021 2.2671,0.59768 1.4498,0.66114 2.3147,0.68964 2.9103,0.0944 0.5955,-0.59566 0,-1.49766 -2.017,-3.03359 -2.3323,-1.77888 -2.7727,-2.55067 -2.3711,-4.15095 0.3636,-1.44846 -0.043,-2.53323 -1.546,-4.11838 -1.208,-1.2735 -2.5857,-4.2667 -3.3747,-7.3373 -0.733,-2.85296 -1.7951,-6.07135 -2.3613,-7.15211 -0.5093,-0.97218 -0.7711,-1.45873 -1.0134,-1.49732 -0.2423,-0.0386 -0.4667,0.37092 -0.9062,1.19201 -0.4824,0.90143 -1.405,1.63936 -2.5009,2.15342 l -0.406,-1.51032 c 0.1926,-0.12871 0.3855,-0.24803 0.5782,-0.3995 2.0521,-1.61429 3.3312,-4.53339 2.2735,-5.18706 -0.3352,-0.2072 -2.172,0.13787 -4.1834,0.62036 l -0.2501,-0.92893 4.6966,-1.40638 -1.7669,-1.7669 c -1.1916,-1.19165 -2.7128,-1.76594 -4.2483,-1.73445 l -0.3639,-1.35767 c 0.5748,-0.0546 1.1638,-0.0188 1.8351,0.10715 2.3557,0.44193 2.6147,0.3013 2.6147,-1.41613 0,-1.04807 -1.0334,-5.11935 -2.2963,-9.04892 -1.2629,-3.92953 -2.5534,-8.31504 -2.868,-9.74726 -0.6586,-2.99937 -0.9544,-3.11533 -3.0694,-1.20176 -0.3238,0.29292 -0.7436,0.51809 -1.205,0.71455 l -0.3865,-1.18227 c 0.6551,-0.36285 1.2642,-0.82286 1.754,-1.44535 2.9998,-3.81374 2.3369,-4.57169 -3.5339,-3.9853 l -0.3248,-0.99065 c 1.6734,-0.2428 3.1425,-0.49221 3.5696,-0.65611 3.0137,-1.15651 -0.5951,-5.07662 -4.674,-5.07662 -0.235,0 -0.4891,0.0525 -0.7404,0.10398 l -0.3606,-1.10433 c 1.3946,-0.41433 2.2464,-0.23256 4.1477,0.56192 3.0059,1.25592 5.1805,4.96884 5.1805,8.85081 0,2.71338 1.396,3.12856 6.782,2.0105 3.0475,-0.63266 4.8316,-1.48451 5.5897,-2.66985 1.0065,-1.57349 2.6396,-10.01247 2.4425,-12.08259 l 0.4872,-0.47094 c 0.9851,-0.95473 2.1976,-2.76327 2.6958,-4.02103 0.8207,-2.07186 0.5895,-2.79732 -2.4555,-7.69777 -1.8848,-3.03361 -2.6945,-4.3087 -3.0498,-4.37832 -0.137,-1.71248 -0.2793,-3.49575 -0.3801,-4.53421 l -0.4936,-5.11886 -15.3728,-6.49925 c -8.4546,-3.57351 -16.231,-7.30711 -17.2794,-8.29864 -1.856,-1.75523 -2.3638,-1.80265 -19.2314,-1.80265 l -17.3249,0 z m -41.8051,31.87265 0.8704,0 c -0.022,1.05932 -0.029,2.29904 -0.029,4.05026 0,1.68682 0.042,3.21299 0.1039,4.56021 l -0.9516,0 c 0.032,-1.08441 0.046,-2.38052 0.046,-4.02753 0,-1.95534 -0.011,-3.42944 -0.039,-4.58294 z m 4.8492,0 1.0816,0 c -0.037,1.03532 -0.06,2.24907 -0.081,3.93983 -0.022,1.7579 0.011,3.28273 0.039,4.67064 l -1.0783,0 c 0.025,-1.08552 0.039,-2.33333 0.039,-4.02753 l 0,-4.58294 z m 4.7745,0 0.8316,0 0,4.63816 c 0,1.7104 0.011,2.88534 0.026,3.97231 l -0.8607,0 c 0.024,-1.08692 0.036,-2.32251 0.036,-4.02753 0,-1.97145 0,-3.42705 -0.033,-4.58294 z m 4.7876,0 0.8511,0 0,8.61047 -1.1271,0 c 0.058,-1.10312 0.1061,-2.42403 0.1558,-4.22566 l 0.1202,-4.38481 z m -37.7644,0.97766 3.6312,0 c 3.0922,0 3.8729,0.34645 5.2845,2.32881 0.9114,1.27992 1.6564,2.5405 1.6564,2.80303 0,0.2624 -1.3518,0.45075 -3.0044,0.419 -2.4069,-0.0465 -3.4561,-0.60289 -5.2844,-2.80303 l -2.2833,-2.74781 z m 14.9797,0 c 3.5865,0 3.6053,0.0168 3.6053,2.80626 0,2.5764 -0.1913,2.80302 -2.3808,2.80302 -1.8287,0 -2.6673,-0.55063 -3.6053,-2.36454 -0.6723,-1.30015 -1.2245,-2.56082 -1.2245,-2.80302 0,-0.24223 1.6226,-0.44172 3.6053,-0.44172 z m -20.8554,0.80226 c 3.0352,0 6.0421,1.69887 7.295,4.12172 1.5207,2.94088 1.4378,4.59895 -0.3865,7.59058 -2.6712,4.38068 -7.9839,4.99836 -11.63111,1.35116 -1.86824,-1.86824 -2.49824,-4.08004 -2.12092,-7.45417 0.21507,-1.92418 4.71167,-5.60929 6.84353,-5.60929 z m 22.4599,8.01281 c 1.469,0 2.0008,0.42611 2.0008,1.60128 0,1.17515 -0.5318,1.60125 -2.0008,1.60125 -1.4689,0 -2.004,-0.4261 -2.004,-1.60125 0,-1.17517 0.5351,-1.60128 2.004,-1.60128 z m 38.7649,5.46316 c 1.1035,0.65438 2.012,1.51884 2.5497,2.52368 0.6936,1.29569 0.7386,4.27601 0.2404,6.74936 -0.8166,1.69852 -1.6674,4.25104 -2.7608,8.13624 -2.5326,8.99954 -2.5508,9.27759 -0.5457,8.20447 1.3912,-0.74456 3.034,-0.91248 4.6285,-0.6561 l -0.3736,0.98089 c -1.9097,-0.27806 -3.8276,0.23608 -5.0604,1.72146 -1.0904,1.31396 -0.9407,1.58182 3.1733,3.17003 l -0.341,0.89322 c -1.876,-0.7257 -3.5647,-1.32843 -4.021,-1.32843 -1.2017,0 -0.027,4.40591 1.611,6.04452 0.3579,0.35802 0.7787,0.6642 1.218,0.94192 l 0,1.70195 c -0.7783,-0.35575 -1.53,-0.85426 -2.2412,-1.51681 -0.9225,-0.85944 -1.8724,-1.56228 -2.1112,-1.56228 -0.2388,0 -0.4352,3.97805 -0.4352,8.84105 0,6.92957 -0.2901,9.2844 -1.3447,10.89381 -1.1068,1.6893 -1.1712,2.33573 -0.354,3.64432 0.8115,1.29912 0.7647,1.94253 -0.2566,3.50124 -0.2287,0.34906 -0.3728,0.66104 -0.5295,0.97767 -0.2017,-0.77861 -0.5677,-1.69026 -1.0652,-2.53338 -1.3681,-2.32219 -1.6016,-3.85455 -1.374,-9.01649 0.2311,-5.23908 0.083,-6.16025 -0.9289,-5.84642 -0.8294,0.25709 -2.35,0.34775 -3.9105,0.3378 l 0,-0.42548 c 0.9042,-0.0589 1.8235,-0.41812 3.1505,-1.10433 3.5319,-1.8265 2.9587,-3.0513 -2.4685,-4.8785 l 0.302,-1.01337 c 0.592,0.20009 1.0514,0.3666 1.7247,0.58789 3.4803,1.14361 3.6054,1.10719 3.6054,-1.01664 0,-1.44906 -1.7172,-3.54684 -3.5794,-4.86224 l 0.5782,-1.67599 c 0.4128,0.30037 0.8256,0.65533 1.2505,1.09784 1.1838,1.23284 2.3874,2.04396 2.6763,1.80263 0.5517,-0.46074 6.2848,-19.26357 6.2848,-20.61183 0,-0.42914 -1.074,-0.62471 -2.3872,-0.43197 -0.7569,0.11109 -1.6125,0.0455 -2.5075,-0.18191 l 0.5619,-1.40963 c 0.4137,0.0992 0.8077,0.16249 1.1466,0.16249 2.6991,0 6.3553,-2.73075 5.1903,-3.87811 -0.4097,-0.40352 -2.1812,-1.11032 -4.1412,-1.80591 l 0.3898,-0.98412 c 4.3314,1.30075 4.9532,1.11933 4.9532,-0.88345 0,-1.69785 -1.2576,-3.16697 -2.9687,-4.10875 l 0.4709,-1.18226 z m 26.5363,1.74741 c 0.4407,0 0.799,1.44307 0.799,3.20579 0,1.76271 -0.3583,3.20252 -0.799,3.20252 -0.4408,0 -0.8024,-1.43981 -0.8024,-3.20252 0,-1.76272 0.3616,-3.20579 0.8024,-3.20579 z m 3.2024,0 c 0.4407,0 0.8024,1.44307 0.8024,3.20579 0,1.76271 -0.3617,3.20252 -0.8024,3.20252 -0.4406,0 -0.7989,-1.43981 -0.7989,-3.20252 0,-1.76272 0.3583,-3.20579 0.7989,-3.20579 z m 3.2059,0 c 0.4406,0 0.8022,1.44307 0.8022,3.20579 0,1.76271 -0.3616,3.20252 -0.8022,3.20252 -0.4407,0 -0.8023,-1.43981 -0.8023,-3.20252 0,-1.76272 0.3616,-3.20579 0.8023,-3.20579 z m 3.2058,0 c 0.4406,0 0.7989,1.44307 0.7989,3.20579 0,3.27488 -0.1297,3.60553 -1.0653,2.66986 -0.848,-0.84793 -0.6202,-5.87565 0.2664,-5.87565 z m -29.2743,60.81569 c 2.118,0.0699 2.494,0.52266 3.2382,2.07538 0.03,0.0632 0.067,0.10814 0.097,0.16896 l -1.1498,0 c -0.8648,-1.31658 -1.8273,-1.55106 -5.3203,-1.77023 l -2.8744,-0.18194 0,-0.15965 3.2317,-0.10146 c 1.1713,-0.035 2.0711,-0.0549 2.7771,-0.0316 z m -8.4319,1.47771 -0.8282,3.56643 c -0.5189,2.2367 -1.3571,3.71808 -2.4815,4.42703 0.011,-0.60668 -0.3008,-1.41638 -0.9776,-2.67309 -0.3778,-0.70144 -0.668,-1.45928 -0.8542,-2.14376 0.773,0.21537 1.9994,-0.22516 3.4331,-1.57201 l 1.7084,-1.6046 z m 49.0513,5.00855 c 2.1182,0.0699 2.4941,0.52269 3.2384,2.07541 0.078,0.16296 0.1691,0.29082 0.2533,0.43849 l -1.1335,0 c -0.9177,-1.55935 -1.7722,-1.8063 -5.4924,-2.03979 l -3.4786,-0.2175 0,-0.10814 3.8359,-0.1164 c 1.1712,-0.035 2.071,-0.0549 2.7769,-0.0316 z m -7.6522,0.18178 0,0.0166 -0.088,0 0.088,0 z m -48.8532,0.50022 c 0.4581,0 1.27,0.95555 1.8026,2.12426 0.3551,0.77928 0.6425,1.23378 0.9257,1.43231 -0.4856,0.67036 -0.8357,1.5572 -1.0523,2.70882 -0.3543,-0.74133 -0.5846,-1.46624 -0.5846,-2.06235 0,-1.25408 -0.4327,-2.71285 -0.9615,-3.24168 -0.5829,-0.58286 -0.6349,-0.96136 -0.1298,-0.96136 z"
       id="path3501-8"
       inkscape:connector-curvature="0" />
    <path
       style="fill:#ff00ff"
       d="m 419.76155,126.79883 -2.9122,2.9627 c -2.0938,2.12936 -6.1996,4.26598 -14.5737,7.57721 l -11.6617,4.60793 0,17.50126 0,0.50807 -0.8798,0 0.064,-2.36224 -2.2281,0 -2.2346,0 0,2.36224 -0.9942,0 c -0.1849,-2.28968 -0.6654,-2.36224 -1.9201,-2.36224 -1.2677,0 -1.7421,0.12108 -1.951,2.36224 l -1.2911,0 0,-2.36224 -2.1995,0 c -1.4182,0 -1.919,0.043 -2.0983,2.36224 l -1.1151,0 c -0.1855,-2.17269 -0.6316,-2.36224 -1.709,-2.36224 -1.0486,0 -2.0246,-0.69763 -2.2655,-1.61882 -0.2023,-0.77352 -0.408,-1.15373 -1.6298,-1.08433 -1.2218,0.0694 -3.4613,0.58901 -7.7334,1.6166 -7.7628,1.86735 -9.0445,1.98064 -9.7569,0.85121 -0.6438,-1.02058 -1.4989,-1.12755 -3.9744,-0.48828 -5.31837,1.37345 -7.9929,2.64842 -7.9929,3.8029 0,0.60667 -1.1976,1.33926 -2.66136,1.632 -1.50169,0.30034 -2.93919,1.28292 -3.29923,2.25229 -0.351,0.94491 -2.02554,2.66416 -3.71931,3.82269 -2.05609,1.40638 -3.0143,2.71079 -2.88573,3.92386 0.12667,1.19462 -0.43414,1.98025 -1.63421,2.29408 -2.70791,0.70815 -1.5123,2.85083 1.39448,2.49862 2.91848,-0.35368 2.76696,1.56669 -0.23096,2.92089 -1.05752,0.47773 -1.92235,1.60295 -1.92235,2.49861 0,1.41238 0.46662,1.54949 3.51918,1.03376 2.3137,-0.39089 3.52137,-0.26637 3.52137,0.36292 0,0.52646 1.36342,0.95678 3.02866,0.95678 1.66516,0 3.27073,0.39583 3.56979,0.87977 0.73568,1.19031 9.86127,1.12416 10.60367,-0.0771 0.4257,-0.68881 0.8595,-0.68881 1.5484,0 1.3764,1.37639 4.6074,1.17962 5.8858,-0.36071 0.7925,-0.95491 2.8894,-1.3197 7.586,-1.31968 5.1836,0 6.4907,-0.26577 6.4907,-1.3197 0,-0.73323 0.7819,-1.31968 1.7596,-1.31969 1.8557,0 2.3676,-1.28209 0.8798,-2.20167 -1.3594,-0.84015 -1.0396,-3.08147 0.4399,-3.08147 0.6619,0 0.9857,-0.79382 1.1547,-2.97151 l 1.2691,0 c 0.1008,1.30133 0.2263,2.24762 0.3651,2.38644 0.3226,0.32263 1.31,0.58507 2.1973,0.58507 0.9512,0 1.3481,-0.40775 1.5089,-2.97151 l 1.2976,0 c 0.059,1.20504 0.137,2.11063 0.2354,2.26987 0.2398,0.38812 1.2051,0.70164 2.1445,0.70164 1.0395,0 1.4439,-0.34287 1.6034,-2.97151 l 1.0602,0 c 0.1446,2.91815 0.5743,3.00363 1.9003,2.81534 1.2032,-0.17094 1.6826,-0.43462 1.9333,-2.81534 l 1.3659,0 0,3.44659 c -1.1574,1.16099 -0.8082,1.23878 2.3073,0.67085 1.3586,-0.24768 2.7945,-0.19823 4.179,0.0879 l -0.6071,1.66501 c -2.1638,-0.33277 -4.3756,-0.0234 -5.9913,1.20312 -2.8595,2.17063 -2.0536,3.39397 3.6269,5.28975 l -0.4245,1.16792 c -2.9248,-0.89321 -5.5617,-1.53144 -5.9826,-1.27128 -1.4716,0.90941 0.2612,5.67198 2.7867,7.65857 0.2099,0.16511 0.4467,0.3235 0.6951,0.4773 l -0.6643,1.82556 c -0.1092,-0.0608 -0.219,-0.11408 -0.3277,-0.17815 -2.0008,-1.18052 -3.8041,-2.14669 -4.0074,-2.14669 -0.2033,0 -0.6962,1.48797 -1.0954,3.30582 -0.02,0.0905 -0.075,0.2895 -0.1012,0.39809 l -1.7617,-0.69723 c 1.391,-4.6468 2.2488,-8.57169 1.9201,-9.10366 -0.378,-0.61157 0.039,-2.22008 0.926,-3.57416 3.9702,-6.05913 1.1251,-4.74859 -13.4125,6.17397 -7.1177,5.34767 -13.0918,10.15315 -13.2782,10.67847 -0.1865,0.5253 0.648,0.95457 1.8563,0.95457 0.7716,0 1.6151,0.28882 2.4569,0.76323 l -2.4019,1.45164 c -4.2754,-0.27867 -9.2004,2.84926 -9.2004,6.89097 0,2.89393 2.1301,2.61788 8.7913,-1.14151 4.118,-2.32405 5.1689,-3.0591 4.6123,-3.87109 l 1.2427,-0.75223 c 1.5284,1.78105 2.6416,3.97428 2.6416,5.81104 0,2.50964 -1.3562,4.96168 -3.3058,6.67321 l -0.9304,-1.72658 c 1.3324,-1.2596 2.2017,-2.96377 2.2017,-4.95984 l 0,-3.06387 -7.3243,3.69073 c -6.7756,3.41208 -7.1815,3.79331 -5.3997,5.0962 2.2031,1.61095 4.9053,1.86239 7.2517,1.13932 l 0.937,1.73539 c -1.0197,0.34332 -2.079,0.49339 -3.1211,0.37172 -2.1212,-0.24765 -3.5302,0.0312 -3.5302,0.69723 0,0.60956 2.7158,4.80757 6.0354,9.33021 3.3196,4.52264 6.8677,9.99645 7.8829,12.16312 l 1.8454,3.93928 0.1166,-3.97227 2.448,2.58219 c 0,0.79834 -0.022,1.34484 -0.022,2.33365 0,7.20074 -0.4235,10.45388 -1.5968,12.24451 -1.2367,1.8876 -1.3461,2.9117 -0.4795,4.53093 0.8743,1.63376 0.7459,2.66132 -0.5873,4.69592 -1.1014,1.6808 -1.3572,2.95383 -0.7214,3.58955 0.6357,0.63571 1.4728,0.0771 2.3579,-1.57713 0.7543,-1.40953 2.0133,-2.56226 2.7977,-2.56226 1.1508,0 1.1179,0.30728 -0.1716,1.59679 -0.8789,0.87894 -1.599,2.69305 -1.599,4.02948 0,1.33629 -0.5721,2.89228 -1.2713,3.45968 -6.2552,5.07722 -6.8878,5.90685 -7.443,9.72832 -0.3536,2.4336 -1.4813,4.77311 -2.8044,5.82431 -2.1139,1.67946 -1.2798,1.75789 18.8914,1.77929 16.3304,0.0187 21.1018,-0.26862 21.1018,-1.26254 0,-0.70628 -1.029,-1.73528 -2.2875,-2.2874 -1.7666,-0.77501 -2.3583,-1.98795 -2.5998,-5.32496 -0.172,-2.37726 -0.7648,-4.32189 -1.3174,-4.32189 -2.14,0 -5.998,-5.07322 -5.998,-7.88735 0,-1.59161 -0.5496,-3.44187 -1.2207,-4.11308 -0.7398,-0.73979 -0.8037,-1.22065 -0.1628,-1.22065 0.5814,0 1.6093,1.21307 2.2853,2.69649 0.9382,2.05933 1.5109,2.41501 2.4194,1.50669 0.9084,-0.90844 0.7448,-2.01268 -0.6884,-4.67396 -1.0325,-1.91705 -1.6045,-4.1971 -1.2714,-5.06537 0.2835,-0.73874 -0.1834,-2.51409 -1.0315,-4.23179 l 1.9641,0.54986 c 0.9375,1.60432 1.459,3.51643 1.168,4.43636 -0.3183,1.00567 -0.036,2.4826 0.6268,3.28167 1.242,1.49645 0.7712,1.80188 18.1941,-11.85306 3.8101,-2.98614 3.4888,-4.95324 -0.8094,-4.95324 -1.6862,0 -3.7703,-1.01885 -5.2018,-2.54259 -2.447,-2.60475 -6.4802,-3.38038 -7.6586,-1.47365 -0.4126,0.66761 -1.9193,0.10763 -4.0184,-1.49343 l -3.3586,-2.56021 -0.6027,2.25447 c -0.1268,0.47315 -0.2212,0.97918 -0.3101,1.48684 l -2.1643,-0.60486 c 0.2072,-5.48383 -0.015,-6.65865 -1.2097,-6.28831 -1.0924,0.33858 -3.1038,0.47032 -5.1644,0.44429 l 0,-0.56087 c 1.2133,-0.0328 2.4115,-0.47804 4.1922,-1.39886 4.4797,-2.31656 3.7597,-3.87085 -3.1144,-6.18714 l 0.4575,-1.2581 c 0.7243,0.24449 1.279,0.44561 2.0983,0.71483 4.4173,1.45152 4.5771,1.40675 4.5771,-1.2889 0,-1.77123 -2.022,-4.32466 -4.2824,-6.00238 l 0.761,-2.08731 c 0.4283,0.33754 0.8564,0.72368 1.2977,1.18332 1.5025,1.5648 3.0316,2.59376 3.3982,2.28746 0.7002,-0.58481 7.9775,-24.45375 7.9775,-26.16501 0,-0.54469 -1.364,-0.79011 -3.0308,-0.54549 -0.8542,0.12533 -1.8108,0.0629 -2.811,-0.15397 l 0.6533,-1.79478 c 0.4103,0.0825 0.8016,0.13639 1.1459,0.13639 3.4259,0 8.0638,-3.47055 6.5852,-4.92684 -0.5207,-0.51288 -2.659,-1.41222 -5.1512,-2.29628 l 0.4355,-1.1987 c 5.7408,1.73934 6.2422,1.41551 6.2422,-1.16574 0,-0.18476 -0.037,-0.3629 -0.059,-0.54326 l 0.7632,-0.36291 c 0.2721,2.71241 -0.1428,6.40365 -1.1569,8.71214 -0.6208,1.41296 -0.2881,1.78159 1.6166,1.78159 3.1324,0 22.7267,-3.73996 27.0228,-5.15779 1.469,-0.48481 2.4153,-0.9639 2.8857,-1.38787 0.1071,-0.0293 0.2699,-0.0666 0.3673,-0.0946 l 6.9878,0 8.9805,0 c 1.0097,0.33271 2.3112,0.7362 4.3418,1.35268 2.3211,0.70467 4.4407,1.32285 6.2157,1.82558 l -0.5521,1.21191 c -0.3357,-0.0357 -0.6703,-0.0785 -1.025,-0.0859 -2.6444,-0.0535 -4.0056,2.39337 -6.737,12.09934 -2.7811,9.88281 -2.8002,10.18753 -0.5982,9.00908 1.4077,-0.75337 3.0477,-0.94719 4.6673,-0.75882 l -0.2376,1.07335 c -2.0159,-0.22785 -4.0169,0.36518 -5.3183,1.93333 -1.2479,1.50371 -1.0638,1.74352 4.058,3.70173 l -0.2309,1.04256 c -2.3637,-0.9355 -4.5742,-1.74199 -5.1336,-1.74199 -1.3196,0 -0.026,4.83856 1.7728,6.63803 0.5574,0.55744 1.2452,1.02059 1.9553,1.38787 l -0.3607,1.61221 c -0.9454,-0.39254 -1.8606,-0.96243 -2.7186,-1.76177 -1.013,-0.9438 -2.0582,-1.71559 -2.3204,-1.71559 -0.2622,0 -0.4751,4.36823 -0.4751,9.70849 0,7.60968 -0.3178,10.19578 -1.4758,11.96299 -1.2155,1.85523 -1.2867,2.56621 -0.3893,4.00305 0.891,1.42662 0.8399,2.133 -0.2816,3.84471 -2.8918,4.41354 -0.3563,6.62617 3.4708,3.03088 l 1.8718,-1.76179 -0.9062,3.91728 c -0.6024,2.59608 -1.5908,4.27609 -2.9341,4.99502 -1.3839,0.74049 -2.2015,2.18935 -2.5822,4.5706 -0.3065,1.91645 -1.2887,4.11188 -2.1841,4.87838 -0.8953,0.76663 -1.6298,1.69993 -1.6298,2.07621 0,0.37641 7.1298,0.68423 15.8406,0.68423 10.8759,0 15.8363,-0.30025 15.8363,-0.96123 0,-0.52912 -0.7918,-1.16788 -1.7596,-1.42095 -1.4226,-0.37201 -1.7618,-1.19939 -1.7618,-4.32201 0,-3.02334 -0.4754,-4.28094 -2.1973,-5.77797 -1.2098,-1.05203 -2.1994,-2.45613 -2.1994,-3.11887 0,-0.42612 -0.2893,-1.2883 -0.6577,-2.21487 l 2.4788,0 c 0.936,0.29594 1.6962,-0.2068 1.6914,-1.6936 0,-1.12438 -0.5864,-3.16034 -1.2955,-4.51994 -0.9924,-1.90253 -1.0586,-2.83966 -0.2881,-4.07343 0.8063,-1.2913 0.6337,-2.07303 -0.9018,-4.02505 -1.6455,-2.09191 -1.9091,-3.5463 -1.9091,-10.63449 l 0,-8.21068 -3.0573,1.80578 c -1.3138,0.77515 -2.6307,1.21026 -3.9195,1.3065 l 0.3276,-1.46695 c 2.4746,-0.28988 5.7692,-2.16094 5.7692,-3.40919 0,-0.24423 -2.0966,-1.24009 -4.4979,-2.28086 l 0.2595,-1.16574 c 4.6471,1.54233 5.8541,0.86949 4.4298,-2.25666 -0.6859,-1.50535 -1.8236,-2.67641 -3.1497,-3.46419 l 0.2684,-1.19431 c 1.9035,0.95186 3.4776,2.46375 4.0976,4.39018 0.7308,2.27086 0.6077,2.56593 3.297,-7.78617 2.0147,-7.75549 2.0289,-8.09469 0.5587,-11.85521 -0.9562,-2.44567 -2.4078,-4.14851 -4.3506,-5.11819 l 0.5697,-1.25371 c 0.1663,0.0361 0.7306,0.19665 0.7918,0.20016 1.4745,0.0846 2.1916,-1.00053 1.3659,-2.06532 -2.7352,-3.52679 -1.234,-9.4049 2.7251,-11.8706 l 0.4113,1.26031 c -1.7756,1.21695 -3.2574,3.02267 -3.2574,4.44295 0,1.24442 0.7246,1.37686 5.0082,0.90398 l 0.3387,1.02938 c -5.2498,0.68045 -5.5787,1.41971 -3.5587,3.98764 1.4018,1.7821 3.5647,2.58628 5.6702,2.46561 l 0.3563,1.08875 c -0.4416,0.0282 -0.8843,0.057 -1.3768,0.0462 -3.5914,-0.0785 -3.8887,0.0771 -3.4136,1.76177 0.4276,1.51648 3.4256,14.01431 5.3403,22.26755 l 0.4531,1.94654 3.2816,-2.22588 c 0.2439,-0.16545 0.4394,-0.26126 0.6643,-0.4025 l 0.3277,1.22071 c -0.4362,0.28337 -0.8609,0.60351 -1.2515,0.99417 -1.1879,1.18785 -2.1599,2.77348 -2.1599,3.52138 0,1.37169 1.2285,1.59477 4.8191,0.71921 l 0.2749,1.02717 c -1.804,0.55999 -3.393,1.12668 -3.7743,1.50445 -0.5849,0.57939 -0.1842,1.4408 1.1965,2.569 1.337,1.09243 2.712,1.6267 4.1042,1.6122 l 0.3432,1.2779 c -0.8019,0.005 -1.5825,-0.10716 -2.2787,-0.37169 -1.2589,-0.47862 -2.49,-0.67277 -2.734,-0.42891 -0.2438,0.24391 0.6582,3.45832 2.0016,7.14171 2.0524,5.62709 2.3534,7.53214 1.8937,11.92998 -0.4483,4.289 -0.2965,5.33388 0.838,5.76924 1.0463,0.4014 1.2476,1.25341 0.8292,3.48618 -0.7136,3.81286 1.7505,4.20146 2.5844,0.4047 0.3525,-1.60506 1.2755,-2.74265 2.4898,-3.06827 0.4393,-0.11869 0.9554,-0.20904 1.5067,-0.28594 l 0,1.24931 c -1.7919,0.64687 -2.6751,1.85838 -3.1365,3.95907 -0.3429,1.56116 -1.7594,3.90076 -3.1496,5.19957 -1.8833,1.75935 -2.5294,3.1738 -2.5294,5.54707 0,2.54378 -0.4429,3.38738 -2.1995,4.18789 -2.2446,1.02262 -2.6552,1.73064 -1.6123,2.7736 0.3226,0.32244 8.4399,0.58495 18.038,0.58495 18.4576,0 19.7172,-0.3113 15.7351,-3.91505 -1.0341,-0.93583 -1.819,-2.96844 -1.9795,-5.12267 -0.2266,-3.04246 -0.6884,-3.77588 -3.1343,-4.9641 -1.6998,-0.82592 -3.0938,-2.29341 -3.418,-3.59622 -0.6981,-2.80419 -1.8693,-4.25994 -4.1394,-4.88504 l 0,-0.89519 c 1.0229,0.16435 1.8913,0.38369 2.4876,0.65544 1.5921,0.72601 2.5418,0.7571 3.1958,0.10341 0.654,-0.65409 0,-1.64552 -2.2148,-3.33222 -2.5612,-1.95346 -3.0431,-2.79997 -2.602,-4.55731 0.3992,-1.59062 -0.047,-2.78141 -1.698,-4.52213 -1.3266,-1.3985 -2.8397,-4.68694 -3.7061,-8.05891 -0.805,-3.13296 -1.9714,-6.66531 -2.5932,-7.85214 -0.5594,-1.0676 -0.847,-1.60285 -1.113,-1.64521 -0.266,-0.0424 -0.5116,0.40701 -0.9942,1.30869 -0.5297,0.9899 -1.5435,1.79993 -2.7471,2.36445 l -0.4465,-1.65842 c 0.2115,-0.14135 0.4242,-0.27137 0.6357,-0.43768 2.2536,-1.77273 3.6579,-4.97888 2.4964,-5.69667 -0.3682,-0.22755 -2.3859,0.15199 -4.5947,0.68184 l -0.275,-1.02056 5.1578,-1.54403 -1.9399,-1.93996 c -1.3086,-1.30859 -2.9789,-1.93931 -4.6651,-1.90474 l -0.4003,-1.49125 c 0.6312,-0.06 1.2796,-0.0217 2.0169,0.11657 2.5869,0.4853 2.8703,0.33094 2.8703,-1.55502 0,-1.15094 -1.1338,-5.62202 -2.5206,-9.93726 -1.1632,-3.61923 -2.3081,-7.47296 -2.8637,-9.58755 l 3.8425,-4.25599 c 0.9857,-0.08 2.2018,-0.28067 3.7105,-0.59387 3.3467,-0.69476 5.3062,-1.63022 6.1388,-2.9319 1.1052,-1.72792 2.8976,-10.99618 2.6811,-13.26947 l 0.5367,-0.51688 c 1.0818,-1.04843 2.4133,-3.03316 2.9605,-4.41436 0.9012,-2.27518 0.6471,-3.07337 -2.6966,-8.4548 -2.0698,-3.33132 -2.9595,-4.73162 -3.3498,-4.80806 -0.1505,-1.88058 -0.3073,-3.83926 -0.4179,-4.97963 l -0.5411,-5.61968 -16.8832,-7.13731 c -9.2844,-3.92424 -17.8236,-8.02359 -18.9749,-9.11244 -2.0381,-1.9275 -2.5963,-1.97953 -21.1194,-1.97953 l -19.0233,0 z m -45.9076,35.00035 0.9568,0 c -0.024,1.16328 -0.033,2.52426 -0.033,4.44734 0,1.85237 0.046,3.52879 0.1144,5.00823 l -1.0448,0 c 0.034,-1.19085 0.051,-2.6145 0.051,-4.42316 0,-2.14727 -0.011,-3.76571 -0.044,-5.03241 z m 5.3249,0 1.1877,0 c -0.041,1.13692 -0.065,2.46967 -0.088,4.32637 -0.024,1.93044 0,3.60508 0.042,5.1292 l -1.1833,0 c 0.028,-1.19205 0.042,-2.56268 0.042,-4.42316 z m 5.2436,0 0.9128,0 0,5.09399 c 0,1.87827 0.01,3.16794 0.029,4.36158 l -0.9436,0 c 0.026,-1.19361 0.037,-2.55082 0.037,-4.42316 0,-2.16494 0,-3.76309 -0.035,-5.03241 z m 5.2568,0 0.9347,0 0,9.45557 -1.2361,0 c 0.064,-1.21138 0.1146,-2.66245 0.1694,-4.64092 z m -41.4691,1.07334 3.9877,0 c 3.3957,0 4.2522,0.38109 5.8022,2.55799 1.0009,1.40552 1.819,2.78875 1.819,3.07709 0,0.28812 -1.4845,0.49675 -3.2992,0.46188 -2.6432,-0.051 -3.7945,-0.66317 -5.8023,-3.07927 z m 16.45,0 c 3.9384,0 3.959,0.0182 3.959,3.08147 0,2.82927 -0.2108,3.07927 -2.6152,3.07927 -2.0081,0 -2.929,-0.60566 -3.959,-2.59757 -0.7383,-1.42776 -1.3439,-2.81109 -1.3439,-3.07708 0,-0.26602 1.7817,-0.48609 3.9591,-0.48609 z m -22.90317,0.882 c 3.3331,0 6.63457,1.86588 8.01047,4.52652 1.67,3.22953 1.5788,5.04858 -0.4245,8.33383 -2.93347,4.81063 -8.76727,5.48982 -12.77238,1.48465 -2.05161,-2.0516 -2.74364,-4.48119 -2.32925,-8.18647 0.23617,-2.11302 5.17456,-6.15853 7.51566,-6.15853 z m 24.66487,8.79792 c 1.6131,0 2.1973,0.46908 2.1973,1.75959 0,1.2905 -0.5842,1.75737 -2.1973,1.75737 -1.613,0 -2.2016,-0.46687 -2.2016,-1.75737 0,-1.29051 0.5886,-1.75959 2.2016,-1.75959 z m 107.9044,4.69148 c 0.8309,0.0238 1.6842,0.30593 2.9891,0.85122 3.3009,1.37917 5.69,5.45654 5.69,9.71949 0,0.44645 0.04,0.82976 0.1188,1.16572 l -1.8695,2.06972 c -0.446,0.0471 -1.0598,0.52584 -2.0125,1.38788 -0.3556,0.32168 -0.8152,0.56726 -1.3219,0.78301 l -0.4245,-1.2977 c 0.7194,-0.39845 1.3868,-0.90223 1.9245,-1.58582 3.2944,-4.18802 2.5672,-5.0209 -3.8799,-4.37697 l -0.3563,-1.08875 c 1.8377,-0.26663 3.4506,-0.53924 3.9195,-0.71922 3.3096,-1.27002 -0.6543,-5.57569 -5.1336,-5.57569 -0.2581,0 -0.5355,0.0578 -0.8116,0.11442 l -0.3959,-1.21191 c 0.5743,-0.17062 1.0653,-0.24957 1.5638,-0.23535 z m -73.6848,1.39007 c 1.0969,0.62554 2.0454,1.4145 2.7537,2.32265 l -1.3087,0.62248 c -0.5773,-0.54262 -1.2504,-1.02409 -1.9993,-1.42309 z m 37.4901,1.83658 c 0.484,0 0.8776,1.58564 0.8776,3.52138 0,1.93572 -0.3936,3.51695 -0.8776,3.51695 -0.4839,0 -0.882,-1.58128 -0.882,-3.51695 0,-1.93577 0.3981,-3.52138 0.882,-3.52138 z m 3.517,0 c 0.4839,0 0.8798,1.58564 0.8798,3.52138 0,1.93572 -0.3959,3.51695 -0.8798,3.51695 -0.484,0 -0.8776,-1.58128 -0.8776,-3.51695 0,-1.93577 0.3936,-3.52138 0.8776,-3.52138 z m 3.5192,0 c 0.4839,0 0.882,1.58564 0.882,3.52138 0,1.93572 -0.3981,3.51695 -0.882,3.51695 -0.484,0 -0.8798,-1.58128 -0.8798,-3.51695 0,-1.93577 0.3958,-3.52138 0.8798,-3.52138 z m 3.5213,0 c 0.484,0 0.8776,1.58564 0.8776,3.52138 0,3.59627 -0.1426,3.9594 -1.1701,2.93188 -0.9312,-0.93112 -0.681,-6.45326 0.2925,-6.45326 z m -66.5739,19.15088 1.8894,0.74781 c -0.7037,2.43316 -1.6105,5.42341 -2.536,8.30306 -1.603,4.98759 -2.9143,9.22092 -2.9143,9.40717 0,0.18627 1.6292,0.33872 3.6225,0.33872 0.5715,0 1.0947,0.0453 1.5924,0.12322 l -0.7148,1.96413 c -0.1935,-0.0326 -0.3809,-0.0528 -0.5608,-0.0528 -2.4713,0 -8.0084,2.77209 -8.0084,4.00966 0,0.60033 1.8336,1.53424 6.0178,3.04848 l -0.4927,1.35269 c -5.4575,-1.65803 -6.0814,-1.61328 -6.3653,-0.007 -0.4295,2.43066 2.3344,6.61916 5.127,7.81256 l -0.011,1.23611 c -1.072,-0.13891 -1.9759,-0.3272 -2.4964,-0.56967 -0.9055,-0.4218 -1.3439,-0.3137 -1.5638,1.35269 l -2.4876,-2.62399 0.022,-0.75001 c 0.197,-6.76476 0.7788,-10.74554 1.7794,-12.17414 1.9157,-2.73535 1.9,-6.16506 -0.037,-7.77297 -2.2724,-1.88594 -1.8888,-2.90408 1.9421,-5.16437 2.8636,-1.68961 3.7557,-3.12695 6.1959,-10.58172 z m 6.6843,48.26542 1.9575,0.54765 c -0.01,1.78932 0.1791,3.5626 0.5301,5.16 l -2.1269,-0.59387 c -0.2937,-1.31276 -0.3952,-2.8858 -0.3607,-5.11378 z m 72.3475,6.49286 c 2.326,0.0767 2.7392,0.57354 3.5565,2.27866 0.086,0.17897 0.1869,0.31952 0.2794,0.4817 l -1.2449,0 c -1.0078,-1.7124 -1.9457,-1.98488 -6.031,-2.24129 l -3.8205,-0.23753 0,-0.11881 4.212,-0.12761 c 1.2862,-0.0384 2.2732,-0.0607 3.0485,-0.0351 z"
       id="path3501-4-8"
       inkscape:connector-curvature="0"
       sodipodi:nodetypes="ccccccccccccscccsccscsscssscccsscssssccccssccscccscccsccccccsccscccccccscccccscsccssccsccsccsccsssccccsccsccsssccccscssscsccssccccsssccccccsccsccssccccssccssccsccsssccccccccsscccccsccccsscccccccccssscscscccccssccccsccccccssccccccsccsccccccccccscccccccccscccccccssccsccscccccccscccsccsccccscccscccsccccscccccsccccsccsccccccscccsccsccccccccscscccssscsssssscssssssscscccccscccsccscccccssssssssssssssssscsccsssccssccccccccccssccccccscccccccs" />
  </g>
</svg>
