<?xml version="1.0" encoding="UTF-8" standalone="no"?>
<!-- Created with Inkscape (http://www.inkscape.org/) -->

<svg
   xmlns:dc="http://purl.org/dc/elements/1.1/"
   xmlns:cc="http://creativecommons.org/ns#"
   xmlns:rdf="http://www.w3.org/1999/02/22-rdf-syntax-ns#"
   xmlns:svg="http://www.w3.org/2000/svg"
   xmlns="http://www.w3.org/2000/svg"
   xmlns:sodipodi="http://sodipodi.sourceforge.net/DTD/sodipodi-0.dtd"
   xmlns:inkscape="http://www.inkscape.org/namespaces/inkscape"
   width="15in"
   height="18in"
   viewBox="0 0 381.00001 457.20001"
   version="1.1"
   id="svg8"
   inkscape:version="0.92.4 (5da689c313, 2019-01-14)"
   sodipodi:docname="guitar.svg">
  <defs
     id="defs2" />
  <sodipodi:namedview
     id="base"
     pagecolor="#ffffff"
     bordercolor="#666666"
     borderopacity="1.0"
     inkscape:pageopacity="0.0"
     inkscape:pageshadow="2"
     inkscape:zoom="0.35"
     inkscape:cx="19.173219"
     inkscape:cy="766.88054"
     inkscape:document-units="mm"
     inkscape:current-layer="layer1"
     showgrid="false"
     units="in"
     inkscape:window-width="1920"
     inkscape:window-height="1017"
     inkscape:window-x="-8"
     inkscape:window-y="399"
     inkscape:window-maximized="1" />
  <metadata
     id="metadata5">
    <rdf:RDF>
      <cc:Work
         rdf:about="">
        <dc:format>image/svg+xml</dc:format>
        <dc:type
           rdf:resource="http://purl.org/dc/dcmitype/StillImage" />
        <dc:title></dc:title>
      </cc:Work>
    </rdf:RDF>
  </metadata>
  <g
     inkscape:label="Layer 1"
     inkscape:groupmode="layer"
     id="layer1"
     transform="translate(0,160.20002)">
    <g
       id="g4694"
       transform="matrix(2.3363526,0,0,2.3363526,411.45446,-264.5744)">
      <g
         id="g4718">
        <path
           style="fill:none;stroke:#0000ff;stroke-width:0.26458335"
           d="m -108.63648,225.1861 c -0.0926,-0.2412 0.0349,-0.78246 0.28317,-1.2028 0.2483,-0.42034 0.41496,-0.76766 0.37036,-0.77181 -0.0446,-0.004 -1.62892,-0.0675 -3.52069,-0.14078 -7.3549,-0.28488 -16.92582,-1.84385 -21.26238,-3.46334 -10.52489,-3.93053 -17.28253,-10.55677 -19.39809,-19.0209 -0.5018,-2.00767 -0.59363,-3.09959 -0.59991,-7.13305 -0.0127,-8.16441 1.07081,-12.20599 7.27062,-27.11979 5.95279,-14.31959 6.90605,-19.08355 5.29533,-26.4636 -0.27998,-1.28282 -1.39843,-5.16995 -2.48545,-8.63805 -2.39789,-7.65041 -3.11777,-10.29703 -4.01805,-14.77231 -1.1479,-5.70619 -1.13506,-10.31075 0.0424,-15.21355 0.53062,-2.209416 2.17778,-5.651066 3.36454,-7.030016 0.90671,-1.05354 2.95074,-2.050855 4.4909,-2.75956 2.54513,-0.843168 3.78062,-0.226255 4.44151,2.0723 0.27898,0.97029 0.62982,3.19291 0.77964,4.93916 0.40593,4.731096 0.64399,5.909256 1.59734,7.905076 2.06583,4.32478 6.31715,7.04388 11.01312,7.04388 2.78714,0 4.58535,-1.1301 5.61301,-3.52753 l 0.53275,-1.24287 7.87907,0.0701 7.879062,0.0701 0.0704,7.21069 0.0704,7.2107 1.03521,0.97489 c 2.72647,2.56763 8.23215,2.89856 12.40032,0.74535 3.13607,-1.62006 4.2562,-2.96586 5.33136,-6.40547 0.44208,-1.41426 0.80377,-2.8415 0.80377,-3.17165 0,-1.15159 1.13786,-4.0557 1.90261,-4.85594 0.92152,-0.96429 1.74905,-1.3117 3.12447,-1.3117 1.42087,0 2.19322,0.34495 3.52875,1.576 1.94996,1.79741 3.30928,5.43616 3.76734,10.08479 0.3704,3.75895 -1.03272,9.73528 -4.3714,18.61912 -2.44561,6.5075 -2.79203,8.11212 -2.57866,11.94439 0.19175,3.44381 0.58846,4.57408 4.0876,11.64588 4.96197,10.02822 7.50412,16.75464 8.81573,23.32609 0.71983,3.60646 0.98208,10.32607 0.51644,13.23252 -1.61588,10.08607 -8.13566,17.77874 -17.86684,21.08105 -4.60672,1.56331 -9.80163,2.20738 -19.6516,2.43642 l -7.480772,0.17395 0.59275,0.63096 c 0.95366,1.01512 0.41417,1.51596 -1.7359,1.61153 -1.44345,0.0642 -1.79237,-0.001 -1.93023,-0.36022 z"
           id="path4636"
           inkscape:connector-curvature="0"
           sodipodi:nodetypes="ccccsccsssscccccsscccccccccscsscscscsssccccc" />
        <path
           style="fill:#000000;stroke-width:0.26458335"
           d="m -106.6319,74.06964 c 0,-0.509323 0.0545,-0.717683 0.121,-0.463021 0.0666,0.254661 0.0666,0.67138 0,0.926041 -0.0665,0.254662 -0.121,0.0463 -0.121,-0.46302 z"
           id="path4558"
           inkscape:connector-curvature="0" />
        <path
           inkscape:connector-curvature="0"
           style="fill:#000000;stroke-width:0.2116667"
           d="m -106.61481,95.43441 c 0,-0.407458 0.0436,-0.574146 0.0968,-0.370417 0.0533,0.203729 0.0533,0.537104 0,0.740833 -0.0532,0.20373 -0.0968,0.03704 -0.0968,-0.370416 z"
           id="path4558-2" />
        <path
           sodipodi:nodetypes="ccccsccsssscccccsscccccccccscsscscscsssccccc"
           inkscape:connector-curvature="0"
           id="path4682"
           d="m -108.18556,210.7624 c -0.0726,-0.18916 0.0274,-0.61365 0.22208,-0.9433 0.19473,-0.32965 0.32543,-0.60204 0.29045,-0.60529 -0.035,-0.003 -1.27748,-0.0529 -2.7611,-0.11041 -5.76808,-0.22342 -13.27408,-1.44604 -16.67503,-2.71612 -8.25415,-3.08252 -13.55383,-8.27915 -15.21296,-14.91715 -0.39353,-1.57452 -0.46555,-2.43086 -0.47048,-5.5941 -0.01,-6.40294 0.83979,-9.57255 5.70199,-21.2687 4.66848,-11.23014 5.41607,-14.96628 4.15286,-20.75409 -0.21957,-1.00605 -1.09671,-4.05453 -1.94921,-6.77439 -1.88055,-5.99984 -2.44511,-8.07545 -3.15116,-11.58519 -0.90024,-4.47508 -0.89017,-8.08621 0.0333,-11.93123 0.41613,-1.73274 1.70792,-4.43185 2.63864,-5.51329 0.71108,-0.82624 2.31412,-1.60839 3.52199,-2.16419 1.99602,-0.66125 2.96495,-0.17744 3.48325,1.6252 0.21879,0.76095 0.49394,2.50404 0.61143,3.87354 0.31836,3.71036 0.50505,4.63434 1.25272,6.19956 1.62013,3.39171 4.95423,5.52416 8.63704,5.52416 2.18582,0 3.59606,-0.88628 4.40201,-2.76646 l 0.41781,-0.97472 6.17916,0.055 6.17916,0.055 0.0552,5.65498 0.0552,5.655 0.81186,0.76456 c 2.13824,2.01366 6.45607,2.27319 9.72496,0.58454 2.459461,-1.27054 3.337923,-2.32598 4.181118,-5.0235 0.346701,-1.10913 0.630357,-2.22844 0.630357,-2.48736 0,-0.90314 0.892367,-3.18069 1.492122,-3.80828 0.722703,-0.75624 1.371693,-1.0287 2.450367,-1.0287 1.114318,0 1.720033,0.27053 2.767423,1.23598 1.529257,1.40962 2.595304,4.26331 2.954538,7.909 0.290486,2.94796 -0.809911,7.6349 -3.428272,14.60205 -1.917971,5.10351 -2.189651,6.36194 -2.022315,9.36739 0.15038,2.70081 0.4615,3.58723 3.205702,9.13329 3.891426,7.86463 5.885108,13.13983 6.913738,18.29349 0.564527,2.82837 0.770197,8.09823 0.405019,10.37761 -1.267255,7.91 -6.380394,13.94298 -14.012075,16.53282 -3.612822,1.22603 -7.686932,1.73114 -15.411772,1.91076 l -5.8668,0.13642 0.46487,0.49483 c 0.7479,0.79611 0.32481,1.1889 -1.36138,1.26385 -1.13203,0.0504 -1.40567,-7.9e-4 -1.51379,-0.28251 z"
           style="fill:none;stroke:#ff0000;stroke-width:0.20749958" />
        <path
           style="fill:none;stroke:#ff0000;stroke-width:0.15041573"
           d="m -107.73459,196.33866 c -0.0526,-0.13713 0.0199,-0.44484 0.16098,-0.6838 0.14116,-0.23896 0.23591,-0.43642 0.21055,-0.43877 -0.0254,-0.002 -0.92604,-0.0384 -2.00151,-0.08 -4.18126,-0.16195 -9.62234,-1.04823 -12.08767,-1.9689 -5.98341,-2.23451 -9.82513,-6.00153 -11.02783,-10.81339 -0.28526,-1.14137 -0.33747,-1.76213 -0.34105,-4.05515 -0.007,-4.64147 0.60877,-6.93911 4.13336,-15.41761 3.38416,-8.14069 3.92609,-10.849 3.01039,-15.04457 -0.15916,-0.72928 -0.795,-2.93911 -1.41297,-4.91073 -1.36321,-4.34926 -1.77246,-5.85386 -2.28427,-8.39806 -0.65258,-3.24397 -0.64528,-5.86167 0.0241,-8.64891 0.30165,-1.25606 1.23807,-3.21263 1.91274,-3.99657 0.51546,-0.59893 1.6775,-1.16591 2.55308,-1.56881 1.44691,-0.47934 2.14928,-0.12862 2.525,1.1781 0.1586,0.55161 0.35805,1.81517 0.44322,2.80792 0.23078,2.68963 0.36611,3.35942 0.90809,4.49404 1.17443,2.45864 3.59131,4.00444 6.26096,4.00444 1.5845,0 2.60677,-0.64246 3.191,-2.00539 l 0.30287,-0.70658 4.47926,0.0399 4.47925,0.0399 0.04,4.09928 0.04,4.09929 0.58851,0.55423 c 1.55,1.45969 4.679978,1.64782 7.049588,0.42373 1.78286,-0.92101 2.41965,-1.6861 3.03088,-3.64152 0.25132,-0.80401 0.45694,-1.61539 0.45694,-1.80308 0,-0.65468 0.64688,-2.30567 1.08164,-2.76061 0.523882,-0.54819 0.994332,-0.7457 1.776259,-0.7457 0.807766,0 1.246846,0.19611 2.006096,0.89596 1.108553,1.02183 1.881327,3.09046 2.141734,5.7332 0.210573,2.13697 -0.587101,5.53452 -2.485142,10.58498 -1.390331,3.69952 -1.587271,4.61175 -1.46597,6.79039 0.10901,1.95781 0.33454,2.60037 2.323803,6.62069 2.820881,5.70104 4.266094,9.52502 5.011745,13.26089 0.409224,2.05027 0.558313,5.87038 0.293597,7.52269 -0.918629,5.73394 -4.625126,10.10722 -10.157302,11.98459 -2.61893,0.88874 -5.57223,1.2549 -11.171938,1.3851 l -4.25283,0.0989 0.33698,0.3587 c 0.54216,0.5771 0.23546,0.86183 -0.98685,0.91616 -0.82061,0.0365 -1.01897,-5.7e-4 -1.09735,-0.20479 z"
           id="path4684"
           inkscape:connector-curvature="0"
           sodipodi:nodetypes="ccccsccsssscccccsscccccccccscsscscscsssccccc" />
        <path
           sodipodi:nodetypes="ccccsccsssscccccsscccccccccscsscscscsssccccc"
           inkscape:connector-curvature="0"
           id="path4686"
           d="m -107.28365,181.91496 c -0.0326,-0.0851 0.0124,-0.27602 0.0999,-0.42429 0.0876,-0.14828 0.14638,-0.2708 0.13064,-0.27226 -0.0158,-0.001 -0.5746,-0.0238 -1.24192,-0.0496 -2.59445,-0.10049 -5.97061,-0.65042 -7.50033,-1.22169 -3.71267,-1.3865 -6.09644,-3.72391 -6.8427,-6.70965 -0.17701,-0.70821 -0.2094,-1.09339 -0.21162,-2.51619 -0.004,-2.88001 0.37773,-4.30568 2.56472,-9.56654 2.09985,-5.05125 2.43612,-6.73174 1.86793,-9.33507 -0.0988,-0.45251 -0.49329,-1.8237 -0.87674,-3.04708 -0.84586,-2.69869 -1.0998,-3.63228 -1.41737,-5.21095 -0.40493,-2.01286 -0.4004,-3.63713 0.0149,-5.36659 0.18717,-0.77938 0.76821,-1.99342 1.18684,-2.47985 0.31984,-0.37163 1.04088,-0.72344 1.58417,-0.97344 0.8978,-0.29743 1.33362,-0.0798 1.56675,0.731 0.0984,0.34228 0.22217,1.12631 0.27502,1.7423 0.1432,1.6689 0.22717,2.0845 0.56346,2.78853 0.72873,1.52557 2.22839,2.48473 3.88489,2.48473 0.98318,0 1.61749,-0.39864 1.98,-1.24433 l 0.18793,-0.43843 2.77935,0.0248 2.77935,0.0248 0.0248,2.54358 0.0248,2.54359 0.36517,0.3439 c 0.96176,0.90572 2.9039,1.02246 4.374233,0.26292 1.10625,-0.57148 1.50138,-1.04622 1.88064,-2.25954 0.15594,-0.49889 0.28353,-1.00234 0.28353,-1.11881 0,-0.40622 0.40138,-1.43065 0.67115,-1.71294 0.32507,-0.34015 0.61698,-0.4627 1.10216,-0.4627 0.50121,0 0.77366,0.12169 1.24477,0.55594 0.68785,0.63404 1.16735,1.91761 1.32893,3.55742 0.13066,1.32597 -0.36429,3.43413 -1.54201,6.56791 -0.8627,2.29553 -0.9849,2.86157 -0.90963,4.2134 0.0676,1.21481 0.20758,1.61352 1.44191,4.1081 1.75034,3.53746 2.64708,5.91022 3.10976,8.22831 0.25392,1.27218 0.34643,3.64253 0.18217,4.66778 -0.57,3.55788 -2.86986,6.27147 -6.30255,7.43637 -1.62503,0.55146 -3.457533,0.77866 -6.932123,0.85945 l -2.63885,0.0614 0.20909,0.22258 c 0.33641,0.35808 0.1461,0.53476 -0.61234,0.56847 -0.50918,0.0226 -0.63226,-3.6e-4 -0.68089,-0.12707 z"
           style="fill:none;stroke:#ff0000;stroke-width:0.09333209" />
        <path
           sodipodi:nodetypes="ccccsccsssscccccsscccccccccscsscscscsssccccc"
           inkscape:connector-curvature="0"
           id="path4700"
           d="m -108.39142,217.34745 c -0.0817,-0.21292 0.0308,-0.69072 0.24997,-1.06177 0.21919,-0.37106 0.36631,-0.67765 0.32694,-0.68132 -0.0394,-0.004 -1.43793,-0.0596 -3.10789,-0.12427 -6.49253,-0.25148 -14.94126,-1.62766 -18.76936,-3.05726 -9.29084,-3.46967 -15.25614,-9.31899 -17.12365,-16.79069 -0.44297,-1.77227 -0.52403,-2.73616 -0.52957,-6.2967 -0.0112,-7.20713 0.94525,-10.77483 6.41813,-23.93998 5.25483,-12.64062 6.09632,-16.846 4.67445,-23.36074 -0.24715,-1.13241 -1.23446,-4.56377 -2.19403,-7.62523 -2.11673,-6.7534 -2.75221,-9.0897 -3.54693,-13.04025 -1.01331,-5.03714 -1.00197,-9.10181 0.0374,-13.42976 0.4684,-1.95036 1.92243,-4.98847 2.97005,-6.20574 0.80039,-0.93001 2.60476,-1.810388 3.96434,-2.435998 2.24671,-0.74431 3.33734,-0.19973 3.92074,1.829318 0.24627,0.85652 0.55597,2.81854 0.68822,4.36004 0.35834,4.17637 0.56849,5.21639 1.41006,6.9782 1.82361,3.8177 5.57646,6.21799 9.72182,6.21799 2.46035,0 4.04772,-0.9976 4.95489,-3.11393 l 0.47028,-1.09714 6.95525,0.0619 6.955243,0.0619 0.0621,6.36523 0.0622,6.36525 0.91383,0.86058 c 2.40679,2.26657 7.266925,2.5587 10.946375,0.65796 2.768365,-1.43011 3.757159,-2.61812 4.706256,-5.65443 0.390246,-1.24844 0.709528,-2.50833 0.709528,-2.79977 0,-1.01657 1.004445,-3.58017 1.679528,-4.28658 0.813472,-0.85123 1.543973,-1.1579 2.758125,-1.1579 1.254272,0 1.936064,0.3045 3.115003,1.39121 1.721326,1.58666 2.921265,4.79877 3.325618,8.90234 0.32697,3.31822 -0.911634,8.59382 -3.858852,16.43602 -2.158861,5.7445 -2.464664,7.16098 -2.276311,10.54391 0.169267,3.04002 0.519463,4.03777 3.608327,10.2804 4.380177,8.8524 6.624259,14.79015 7.782082,20.59109 0.63543,3.1836 0.866931,9.11534 0.455888,11.681 -1.426418,8.90348 -7.181751,15.69418 -15.771947,18.60929 -4.06658,1.38001 -8.652385,1.94857 -17.34744,2.15075 l -6.603653,0.15356 0.52325,0.55698 c 0.84184,0.89609 0.36561,1.33821 -1.53237,1.42257 -1.2742,0.0567 -1.58221,-8.8e-4 -1.70391,-0.31798 z"
           style="fill:none;stroke:#ff0000;stroke-width:0.23356085" />
        <path
           style="fill:none;stroke:#ff0000;stroke-width:0.17646608"
           d="m -107.94036,202.92097 c -0.0617,-0.16087 0.0233,-0.52187 0.18887,-0.80222 0.16561,-0.28035 0.27676,-0.512 0.24701,-0.51476 -0.0298,-0.003 -1.08642,-0.045 -2.34815,-0.0939 -4.90541,-0.19 -11.28882,-1.22977 -14.18113,-2.3099 -7.01966,-2.6215 -11.52672,-7.04092 -12.93771,-12.68615 -0.33468,-1.33903 -0.39593,-2.0673 -0.40012,-4.75745 -0.008,-5.44532 0.71419,-8.14088 4.8492,-18.08776 3.97027,-9.55057 4.60605,-12.72794 3.53177,-17.65013 -0.18674,-0.85558 -0.93269,-3.44813 -1.65769,-5.76121 -1.5993,-5.10251 -2.07942,-6.86769 -2.67988,-9.85252 -0.7656,-3.80579 -0.75703,-6.87684 0.0283,-10.1468 0.3539,-1.47359 1.45249,-3.76903 2.24401,-4.68873 0.60473,-0.70266 1.96802,-1.36784 2.99524,-1.84051 1.6975,-0.56236 2.52152,-0.1509 2.9623,1.38213 0.18607,0.64715 0.42007,2.12954 0.51999,3.29422 0.27074,3.15544 0.42951,3.94123 1.06536,5.27236 1.37782,2.88445 4.21328,4.69797 7.34529,4.69797 1.85891,0 3.05823,-0.75373 3.74365,-2.35271 l 0.35532,-0.82894 5.25501,0.0468 5.25501,0.0468 0.0469,4.80922 0.0469,4.80924 0.69043,0.65021 c 1.818446,1.7125 5.490506,1.93322 8.270501,0.49712 2.091626,-1.08052 2.838706,-1.97811 3.555793,-4.27219 0.294849,-0.94325 0.536081,-1.89515 0.536081,-2.11535 0,-0.76807 0.758905,-2.70499 1.268961,-3.23872 0.614616,-0.64313 1.166544,-0.87484 2.083892,-0.87484 0.947661,0 1.462786,0.23007 2.353529,1.05112 1.300542,1.1988 2.207152,3.6257 2.512659,6.72614 0.247041,2.50706 -0.688781,6.49303 -2.915542,12.41818 -1.63112,4.34023 -1.862168,5.41045 -1.719859,7.9664 0.12789,2.29688 0.392479,3.05073 2.72626,7.76733 3.309426,6.6884 5.004934,11.17464 5.879723,15.55752 0.480097,2.40536 0.655007,6.88707 0.344445,8.82554 -1.077725,6.72699 -5.426146,11.85768 -11.916438,14.06019 -3.072491,1.04266 -6.537279,1.47223 -13.106795,1.62498 l -4.98936,0.11602 0.39534,0.42082 c 0.63605,0.67705 0.27623,1.01109 -1.15777,1.07483 -0.96273,0.0429 -1.19544,-6.7e-4 -1.28739,-0.24025 z"
           id="path4702"
           inkscape:connector-curvature="0"
           sodipodi:nodetypes="ccccsccsssscccccsscccccccccscsscscscsssccccc" />
        <path
           sodipodi:nodetypes="ccccsccsssscccccsscccccccccscsscscscsssccccc"
           inkscape:connector-curvature="0"
           id="path4704"
           d="m -107.48931,188.49453 c -0.0417,-0.10883 0.0158,-0.35303 0.12776,-0.54267 0.11202,-0.18964 0.18722,-0.34635 0.16709,-0.34821 -0.0202,-0.002 -0.73491,-0.0305 -1.58842,-0.0635 -3.31829,-0.12853 -7.63639,-0.83189 -9.5929,-1.56254 -4.7485,-1.77333 -7.79733,-4.76288 -8.7518,-8.58162 -0.22639,-0.90581 -0.26782,-1.39845 -0.27066,-3.21821 -0.006,-3.68352 0.48312,-5.50695 3.28027,-12.23558 2.68571,-6.46054 3.11579,-8.60988 2.38908,-11.93953 -0.12631,-0.57877 -0.63092,-2.33251 -1.12135,-3.89721 -1.08185,-3.45162 -1.40664,-4.64569 -1.81282,-6.66479 -0.51789,-2.57445 -0.5121,-4.65188 0.0191,-6.86387 0.23939,-0.99682 0.98254,-2.54958 1.51797,-3.17172 0.40907,-0.47532 1.33128,-0.92528 2.02615,-1.24502 1.14828,-0.38041 1.70569,-0.10208 2.00387,0.93495 0.12586,0.43776 0.28415,1.44054 0.35174,2.2284 0.18315,2.13451 0.29055,2.66607 0.72067,3.56651 0.93204,1.95121 2.8501,3.17797 4.96877,3.17797 1.25747,0 2.06876,-0.50986 2.53241,-1.5915 l 0.24036,-0.56075 3.55479,0.0317 3.55478,0.0317 0.0317,3.25323 0.0317,3.25324 0.46704,0.43985 c 1.2301,1.15842 3.714094,1.30772 5.594634,0.33627 1.4149,-0.73092 1.92026,-1.3381 2.40534,-2.88995 0.199452,-0.63807 0.362634,-1.28199 0.362634,-1.43094 0,-0.51956 0.513371,-1.8298 0.858401,-2.19085 0.415759,-0.43505 0.789113,-0.59179 1.409658,-0.59179 0.641052,0 0.989511,0.15563 1.592059,0.71104 0.87976,0.81093 1.493042,2.45262 1.699703,4.54993 0.167113,1.69592 -0.465929,4.39225 -1.972235,8.40035 -1.103381,2.93598 -1.259675,3.65993 -1.163409,5.38893 0.08651,1.55374 0.265494,2.06368 1.844195,5.25425 2.238681,4.5244 3.385617,7.55915 3.977374,10.52398 0.324764,1.62712 0.443083,4.6588 0.233002,5.97009 -0.729034,4.55051 -3.67055,8.02119 -8.060944,9.5111 -2.078408,0.70531 -4.422178,0.9959 -8.866172,1.09923 l -3.37509,0.0785 0.26743,0.28467 c 0.43026,0.45799 0.18686,0.68396 -0.78318,0.72708 -0.65124,0.029 -0.80866,-4.6e-4 -0.87086,-0.16253 z"
           style="fill:none;stroke:#ff0000;stroke-width:0.11937153" />
        <rect
           y="80.348358"
           x="-171.52252"
           height="155.96806"
           width="129.95221"
           id="rect4706"
           style="fill:none;fill-opacity:0;stroke:#0000ff;stroke-width:0.50755572;stroke-miterlimit:4;stroke-dasharray:none" />
      </g>
    </g>
  </g>
</svg>
