<?xml version="1.0" encoding="UTF-8" standalone="no"?>
<!-- Created with Inkscape (http://www.inkscape.org/) -->

<svg
   xmlns:dc="http://purl.org/dc/elements/1.1/"
   xmlns:cc="http://creativecommons.org/ns#"
   xmlns:rdf="http://www.w3.org/1999/02/22-rdf-syntax-ns#"
   xmlns:svg="http://www.w3.org/2000/svg"
   xmlns="http://www.w3.org/2000/svg"
   xmlns:sodipodi="http://sodipodi.sourceforge.net/DTD/sodipodi-0.dtd"
   xmlns:inkscape="http://www.inkscape.org/namespaces/inkscape"
   width="75cm"
   height="45cm"
   id="svg2"
   version="1.1"
   inkscape:version="0.91pre4 r13712"
   sodipodi:docname="princess_mononoke.svg">
  <defs
     id="defs4" />
  <sodipodi:namedview
     id="base"
     pagecolor="#ffffff"
     bordercolor="#666666"
     borderopacity="1.0"
     inkscape:pageopacity="0.0"
     inkscape:pageshadow="2"
     inkscape:zoom="0.35355339"
     inkscape:cx="1416.7737"
     inkscape:cy="576.56483"
     inkscape:document-units="cm"
     inkscape:current-layer="layer1"
     showgrid="false"
     units="cm"
     width="60cm"
     inkscape:window-width="1920"
     inkscape:window-height="1017"
     inkscape:window-x="-8"
     inkscape:window-y="-8"
     inkscape:window-maximized="1" />
  <metadata
     id="metadata7">
    <rdf:RDF>
      <cc:Work
         rdf:about="">
        <dc:format>image/svg+xml</dc:format>
        <dc:type
           rdf:resource="http://purl.org/dc/dcmitype/StillImage" />
        <dc:title></dc:title>
      </cc:Work>
    </rdf:RDF>
  </metadata>
  <g
     inkscape:label="Layer 1"
     inkscape:groupmode="layer"
     id="layer1"
     transform="translate(0,542.12731)">
    <path
       style="fill:none;stroke:#0000ff"
       d="M 2267.8672 1102.3867 L 2267.8672 1102.3906 L 2267.8672 1102.6094 C 2277.1253 1110.2274 2282.3423 1125.2665 2279.9883 1142.459 C 2277.7273 1158.9724 2273.2918 1170.6579 2266.9941 1176.6914 L 2264.1191 1179.4453 L 2267.4668 1183.3555 C 2270.7716 1187.2163 2272.9447 1193.0386 2276.4121 1207.3223 C 2278.4039 1215.5271 2278.4492 1220.882 2276.5547 1224.1582 C 2274.8242 1227.1508 2273.4655 1229.9456 2272.4238 1232.6582 C 2272.0014 1233.7582 2271.6285 1243.4332 2271.5938 1254.1582 C 2271.5776 1259.1477 2271.5579 1262.8016 2271.5059 1265.5723 C 2277.2786 1267.6401 2283.2285 1269.8244 2289.4688 1272.1426 C 2291.6019 1272.9352 2296.0406 1272.9768 2301.9258 1272.5996 C 2301.8237 1270.6466 2301.7268 1268.3262 2301.6543 1265.7949 C 2301.2836 1252.8476 2301.3004 1252.9102 2298.127 1252.9102 C 2294.5096 1252.9102 2294.3025 1252.2638 2294.2344 1240.791 C 2294.1944 1233.9796 2294.464 1230.901 2295.5859 1225.4199 C 2295.876 1224.0025 2296.3261 1221.7374 2296.5859 1220.3848 C 2296.8457 1219.0322 2297.399 1217.2524 2297.8164 1216.4316 C 2298.8261 1214.4461 2300.9667 1211.3196 2301.873 1210.5059 C 2302.6895 1209.7727 2302.8214 1208.8306 2302.1738 1208.3457 C 2301.9376 1208.1689 2300.6008 1207.586 2299.2031 1207.0508 C 2295.9885 1205.8198 2294.2611 1204.1852 2293.7012 1201.8418 C 2293.429 1200.7025 2293.3319 1196.8024 2293.3984 1189.6836 L 2293.4961 1179.2051 L 2291.998 1176.2832 C 2290.5914 1173.5437 2290.4873 1173.1487 2290.3262 1169.9258 C 2290.0918 1165.2355 2290.5646 1163.0583 2292.7969 1158.5391 C 2295.9736 1152.1079 2299.3981 1149.3224 2307.5273 1146.5625 C 2309.6332 1145.8475 2318.9026 1146.0106 2323.0469 1146.8359 C 2328.2287 1147.8678 2334.4839 1151.796 2337.9297 1156.1816 C 2340.1374 1158.9916 2342.0525 1162.3702 2342.6406 1164.4961 C 2342.9439 1165.5929 2343.3751 1166.8626 2343.5996 1167.3164 C 2343.8593 1167.8412 2344.0067 1169.966 2344.0039 1173.1562 C 2344.0039 1177.7686 2343.9219 1178.3905 2343.041 1180.8613 C 2342.1463 1183.3693 2340.7321 1186.0483 2339.3301 1187.8945 C 2337.0474 1190.9006 2329.7024 1198.4098 2327.7754 1199.707 C 2323.9167 1202.3046 2321.315 1204.4072 2321.2285 1205 C 2321.115 1205.7785 2322.0495 1206.7273 2324.1152 1207.9316 C 2329.0442 1210.8052 2332.5481 1216.312 2334.043 1223.5312 C 2334.121 1223.9093 2334.3532 1224.9906 2334.5586 1225.9355 C 2334.9943 1227.9401 2335.6757 1236.5408 2335.6738 1240.0234 C 2335.6738 1245.0353 2335.0691 1252.1234 2334.5977 1252.6914 C 2333.4653 1254.0559 2332.0872 1252.9487 2330.5918 1249.4727 C 2329.6226 1247.2197 2328.861 1246.2511 2328.3223 1246.584 C 2328.1612 1246.684 2328.0293 1249.0962 2328.0293 1251.9453 C 2328.0293 1254.7944 2327.8829 1258.0709 2327.7031 1259.2266 C 2327.5232 1260.3823 2327.2044 1263.5469 2326.9941 1266.2578 C 2326.8819 1267.7042 2326.7444 1269.0748 2326.6152 1270.1289 C 2344.184 1268.1355 2364.1516 1265.899 2378.4219 1266.5898 C 2379.6253 1259.9294 2379.2899 1257.9316 2376.5273 1250.4941 C 2373.9462 1243.5452 2373.196 1238.2706 2373.1289 1226.627 C 2373.0439 1211.7685 2373.0172 1211.6637 2368.666 1208.7871 C 2363.0738 1205.0899 2359.0551 1190.5617 2358.6152 1172.4453 C 2358.2722 1158.3272 2360.4753 1151.7923 2368.1719 1144.0957 C 2371.8175 1140.45 2373.7306 1139.7402 2379.9062 1139.7402 C 2396.4572 1139.7402 2411.1926 1154.6475 2413.2754 1173.5 C 2414.591 1185.4088 2411.6007 1193.2337 2402.7578 1201.0176 L 2396.2402 1206.7539 L 2399.1367 1213.5098 C 2401.461 1218.9322 2402.2237 1225.3259 2403 1245.9062 C 2403.5321 1260.0087 2403.5476 1273.2176 2403.0352 1275.2598 C 2402.8694 1275.9203 2402.6146 1276.5318 2402.2988 1277.1016 C 2437.0124 1308.4286 2458.5961 1327.8067 2472.6113 1339.5996 C 2471.5835 1333.5684 2470.3496 1330.5518 2468.6133 1329.5645 C 2466.4996 1328.3626 2466.352 1327.0334 2467.1758 1316.5547 C 2468.1046 1304.7465 2471.4748 1294.5074 2477.418 1285.4297 C 2478.8476 1283.2458 2479.8251 1281.335 2479.5918 1281.1836 C 2479.3584 1281.0322 2475.2366 1278.9952 2470.4316 1276.6562 C 2457.6985 1270.4581 2454.5358 1265.528 2453.166 1249.7441 C 2450.539 1219.4765 2452.0721 1211.0488 2461.7637 1202.4863 C 2470.6609 1194.6256 2478.9866 1191.139 2492.3281 1189.6875 L 2503.8613 1188.4336 L 2503.0059 1183.1074 C 2502.4371 1179.567 2502.8218 1176.0188 2504.1562 1172.5234 C 2505.2607 1169.6313 2505.8151 1166.9935 2505.3867 1166.6602 C 2504.9582 1166.327 2502.9422 1166.0527 2500.9082 1166.0527 C 2495.5873 1166.0527 2490.9678 1164.145 2489.2695 1161.2461 C 2487.0525 1157.4621 2487.4906 1148.5707 2490.3672 1138.9766 C 2491.7817 1134.2593 2493.3314 1126.6938 2493.8125 1122.1641 C 2495.0184 1110.8137 2496.5511 1106.7302 2501.1309 1102.6738 C 2501.2429 1102.5748 2501.353 1102.4932 2501.4648 1102.3965 C 2430.2211 1102.3855 2343.6489 1102.3867 2267.8672 1102.3867 z M 2187.5859 1102.3906 L 2187.5859 1245.6777 C 2208.0847 1247.013 2226.4098 1250.9934 2245.9746 1256.998 C 2245.9976 1255.5177 2245.9356 1253.6291 2245.791 1251.0957 C 2245.2588 1241.7612 2244.0697 1238.7174 2241.8301 1240.957 C 2240.1944 1242.5928 2236.5337 1242.4702 2235.0898 1240.7305 C 2234.2965 1239.7747 2233.8611 1233.9077 2233.7715 1222.9805 C 2233.6436 1207.3888 2233.7709 1206.2777 2236.5488 1198.1582 C 2238.1503 1193.4832 2239.4771 1189.2796 2239.4961 1188.8164 C 2239.5151 1188.3532 2237.3165 1187.2282 2234.6113 1186.3164 C 2228.4544 1184.2412 2225.9341 1180.9169 2224.9355 1173.5586 C 2224.295 1168.8384 2223.4938 1167.1698 2220.2344 1163.7637 C 2218.0734 1161.5055 2214.3893 1157.1868 2212.0488 1154.168 C 2207.8519 1148.7547 2207.8008 1148.5923 2208.3066 1142.291 C 2209.4757 1127.7283 2223.5524 1110.7115 2238.1699 1102.459 L 2238.1699 1102.3906 L 2187.5859 1102.3906 z M 2504.6328 1106.4082 C 2503.8559 1106.5908 2502.9945 1107.1651 2501.832 1108.1641 C 2499.9954 1109.7425 2499.8273 1110.5776 2501.0078 1112.293 C 2502.7369 1114.8055 2506.6739 1115.1039 2509.0254 1112.9004 C 2510.3525 1111.6569 2510.2497 1110.8552 2508.4941 1108.7715 C 2507.355 1107.4192 2506.5163 1106.6452 2505.6836 1106.4082 L 2504.6328 1106.4082 z M 2519.4199 1107.5566 C 2518.8881 1107.5836 2518.3324 1107.6774 2517.7617 1107.8477 C 2513.1549 1109.2224 2514.7032 1115.4766 2519.6504 1115.4766 C 2521.0589 1115.4766 2522.8272 1114.5807 2523.5801 1113.4863 C 2525.6706 1110.4486 2523.1429 1107.3671 2519.4199 1107.5566 z M 2246.207 1116.3594 C 2245.3018 1116.4364 2244.3671 1117.2358 2242.9941 1118.6973 C 2239.7713 1122.1277 2239.8968 1128.7794 2243.2344 1131.3477 C 2245.923 1133.4166 2246.5249 1133.4976 2249.0605 1132.1406 C 2250.1049 1131.5817 2251.482 1129.3792 2252.1211 1127.2461 C 2253.206 1123.6248 2253.0923 1123.1301 2250.4062 1119.7637 C 2248.484 1117.3541 2247.3708 1116.2602 2246.207 1116.3594 z M 2223.834 1127.207 C 2221.5029 1127.4016 2219.318 1130.4854 2218.4922 1135.6602 C 2217.9791 1138.8757 2218.2778 1140.2034 2220.0137 1142.4102 C 2222.5209 1145.5975 2224.1003 1145.8496 2226.2852 1143.4082 C 2228.8004 1140.5977 2229.5742 1132.6372 2227.6211 1129.6562 C 2226.5929 1128.0871 2225.4397 1127.3012 2224.3027 1127.207 C 2224.1464 1127.194 2223.9894 1127.194 2223.834 1127.207 z M 2541.5469 1140.1719 L 2541.5469 1140.5234 C 2539.9619 1142.7328 2537.8823 1145.1361 2535.1016 1148.1445 L 2526.7168 1157.2168 L 2530.3145 1163.4414 C 2534.6644 1170.9671 2536.9034 1188.4656 2534.123 1193.2109 C 2532.5894 1195.8286 2532.8595 1196.2745 2538.6816 1200.7383 C 2539.6436 1201.4758 2540.6011 1202.3072 2541.5469 1203.1992 L 2541.5469 1203.8125 L 2541.5703 1203.8125 C 2541.5751 1175.0257 2541.5771 1159.0375 2541.5801 1140.1719 L 2541.5469 1140.1719 z M 2497.9727 1149.5391 C 2495.2929 1149.5391 2491.7773 1153.4754 2491.7773 1156.4766 C 2491.7773 1158.1155 2492.5574 1158.8281 2494.3535 1158.8281 C 2495.7703 1158.8281 2497.2088 1158.477 2497.5508 1158.0469 C 2497.8925 1157.6168 2498.591 1155.525 2499.1035 1153.4004 C 2499.8551 1150.2838 2499.6373 1149.5391 2497.9727 1149.5391 z M 2370.5508 1156.6211 C 2367.1055 1156.7466 2364.6961 1162.7606 2368.1367 1166.2012 C 2370.3724 1168.4369 2371.2525 1168.4369 2373.4883 1166.2012 C 2375.9317 1163.7577 2375.7281 1159.8085 2373.043 1157.5801 C 2372.1968 1156.8778 2371.3458 1156.5921 2370.5508 1156.6211 z M 2305.459 1159.1348 C 2304.7954 1159.1588 2304.1027 1159.376 2303.2969 1159.7871 C 2300.1578 1161.3885 2298.8779 1165.3256 2300.6348 1167.9805 C 2302.3015 1170.499 2304.8095 1170.965 2307.4453 1169.2461 C 2310.6618 1167.1486 2310.6617 1161.2981 2307.4453 1159.6348 C 2306.7562 1159.2784 2306.1226 1159.1105 2305.459 1159.1348 z M 2249.0312 1167.8125 C 2247.7441 1167.7905 2245.7664 1168.1886 2242.6641 1169.0488 C 2233.2995 1171.6456 2229.4511 1175.5572 2233.7793 1178.0781 C 2236.1973 1179.4865 2236.8258 1179.4255 2242.9219 1177.1973 C 2251.0099 1174.241 2253.8885 1170.9453 2250.6973 1168.2969 C 2250.3272 1167.9897 2249.8042 1167.8256 2249.0312 1167.8125 z M 2331.7617 1170.9277 C 2331.3027 1170.9497 2330.832 1171.0227 2330.3574 1171.1504 C 2328.8365 1171.5599 2327.1906 1172.9859 2326.6758 1174.3398 C 2326.1091 1175.8302 2325.903 1178.8884 2326.2754 1180.2715 C 2326.6308 1181.5912 2327.9848 1183.2101 2329.0605 1183.6016 C 2329.344 1183.7047 2330.2828 1183.8015 2331.1465 1183.8164 C 2332.466 1183.8394 2332.9411 1183.65 2334.125 1182.6367 C 2336.2366 1180.8292 2337.6504 1178.3298 2337.6504 1176.4043 C 2337.6504 1173.116 2334.9746 1170.7763 2331.7617 1170.9277 z M 2387.6797 1172.4453 C 2384.72 1172.4453 2383.5117 1176.5256 2385.6934 1179.1543 C 2388.06 1182.0059 2391.4804 1181.9876 2392.582 1179.1172 C 2393.603 1176.4565 2390.6556 1172.4453 2387.6797 1172.4453 z M 2368.8379 1196.1895 C 2367.9702 1196.1465 2366.9067 1196.9875 2366.582 1198.5547 C 2366.2609 1200.1048 2366.818 1200.784 2368.0684 1200.3672 C 2369.1685 1200.0005 2370.0684 1198.9188 2370.0684 1197.9648 C 2370.0684 1196.7885 2369.5128 1196.2226 2368.8379 1196.1895 z M 2307.8145 1198.3789 C 2307.0958 1198.3339 2306.35 1198.6499 2305.6855 1199.3145 C 2304.6267 1200.3733 2304.8088 1201.8475 2306.125 1202.8848 C 2307.4421 1203.9229 2307.4882 1203.9301 2308.8223 1203.2402 C 2310.6644 1202.2876 2310.7791 1200.1415 2309.0566 1198.8555 C 2308.6667 1198.5643 2308.2456 1198.4062 2307.8145 1198.3789 z M 2476.1328 1203.3535 C 2475.5759 1203.3375 2474.9906 1203.3533 2474.3789 1203.3984 C 2466.263 1204.012 2462.6691 1213.4587 2468.752 1218.1895 C 2471.7751 1220.5405 2474.3644 1220.0573 2479.3008 1216.2188 C 2486.572 1210.5639 2484.4862 1203.593 2476.1328 1203.3535 z M 2515.959 1226.2891 C 2514.1998 1226.2471 2512.4457 1226.6293 2510.5234 1227.4023 C 2505.3058 1229.5008 2502.3834 1233.8907 2502.4395 1239.5449 C 2502.4855 1244.1646 2504.4714 1246.7872 2510.3223 1249.9512 C 2514.3635 1252.1366 2517.3055 1252.1878 2522.3477 1250.1602 C 2527.3901 1248.1323 2530.2676 1243.6952 2530.2676 1237.9492 C 2530.2676 1233.9921 2529.6241 1232.9213 2525.5977 1230.1719 C 2521.8372 1227.6043 2518.891 1226.3584 2515.959 1226.2891 z M 2260.2168 1255.2754 C 2259.5634 1255.1904 2258.8906 1256.4273 2258.4414 1258.9082 C 2258.3179 1259.5904 2258.1684 1260.2362 2258.0078 1260.8652 C 2259.5904 1261.3977 2261.2044 1261.9581 2262.8125 1262.5137 C 2262.3611 1260.9813 2261.8643 1259.1445 2261.5938 1257.9082 C 2261.2215 1256.2075 2260.725 1255.3415 2260.2168 1255.2754 z M 2470.2305 1256.9883 C 2469.3735 1256.9363 2468.4249 1257.2787 2466.8008 1257.9844 C 2462.4241 1259.8862 2461.3776 1264.4663 2464.6738 1267.2988 C 2467.4949 1269.723 2470.2358 1269.8068 2473.4219 1267.5645 C 2476.6566 1265.2879 2476.4997 1260.7613 2473.1035 1258.3711 C 2471.8508 1257.4895 2471.0874 1257.0407 2470.2305 1256.9883 z M 2313.1035 1262.5312 C 2311.809 1262.5312 2311.5136 1264.0691 2311.3184 1271.791 C 2312.7481 1271.6483 2314.1753 1271.5078 2315.6855 1271.3457 C 2315.6205 1270.9717 2315.5547 1270.6513 2315.4941 1270.2617 C 2314.4338 1263.4408 2314.153 1262.5312 2313.1035 1262.5312 z M 2541.5469 1266.0371 L 2541.5469 1266.9922 C 2536.7808 1270.7773 2531.116 1273.8838 2523.5098 1276.9922 C 2518.4665 1279.0532 2514.3398 1280.9897 2514.3398 1281.2969 C 2514.3398 1281.6041 2515.4642 1283.0888 2516.8379 1284.5957 C 2522.2326 1290.5141 2523.9681 1297.1328 2525.334 1316.9863 C 2526.3858 1332.2751 2526.3124 1336.6442 2524.9844 1337.8887 C 2522.521 1340.1972 2519.6128 1339.8197 2515.3457 1336.6406 C 2510.0601 1332.7024 2509.0758 1334.439 2509.0508 1347.748 C 2509.0508 1349.0276 2509.03 1350.1483 2509 1351.2012 C 2514.4152 1349.0844 2523.4396 1348.0067 2541.5469 1352.2363 C 2541.5469 1352.2363 2541.5544 1298.7189 2541.5605 1266.0371 L 2541.5469 1266.0371 z M 2490.4648 1351.1973 C 2489.9728 1351.1973 2489.4388 1351.5672 2488.8828 1352.2949 C 2490.2574 1353.2078 2491.4709 1353.9399 2492.5547 1354.5137 C 2492.5427 1354.4677 2492.5247 1354.4167 2492.5137 1354.3711 C 2492.0026 1352.2527 2491.2917 1351.2038 2490.4648 1351.1973 z "
       transform="translate(0,-542.12731)"
       id="path4564" />
    <path
       style="fill:none;stroke:#0000ff"
       d="m 1624.6895,1100.7227 0,307.2324 c 16.9681,4.59 33.361,4.9948 49.5507,2.2304 -0.5019,-1.4664 -0.7376,-2.8312 -0.5019,-3.4453 0.3502,-0.9127 -0.2144,-2.561 -1.3047,-3.8086 -2.7597,-3.1579 -4.0711,-8.0088 -4.7871,-17.6992 -0.7457,-10.0924 0.8718,-14.2572 6.7969,-17.5 4.2229,-2.3112 4.7656,-5.0047 1.1894,-5.9023 -4.3851,-1.1006 -10.3219,-7.8632 -14.1211,-16.086 -3.2873,-7.1155 -3.5787,-8.4594 -3.2363,-14.916 0.538,-10.1432 4.1385,-16.7903 14.9629,-27.6308 7.508,-7.5192 9.6612,-9.0593 16.5,-11.8106 4.9824,-2.0045 8.9712,-3.0441 12.6133,-3.1347 3.6422,-0.091 6.9368,0.7674 10.5312,2.5585 6.2617,3.1203 9.6822,6.9804 13.2207,14.9219 3.6796,8.2584 5.0347,15.3672 5.2598,27.584 0.1435,7.7889 -0.2569,11.7223 -1.5899,15.5938 -3.4346,9.9756 -10.8604,17.3287 -19.0507,18.8652 -2.0028,0.3757 -3.8642,1.0426 -4.1348,1.4805 -0.5577,0.9023 2.2086,7.2935 6.0488,13.9765 2.1875,3.8059 2.532,5.4618 2.2305,10.7344 -0.072,1.2639 -0.1699,2.3396 -0.3145,3.3008 18.8192,-8.551 37.7888,-20.2403 57.5039,-33.4238 -1.2759,-0.2353 -1.6152,-0.5808 -1.6152,-1.0879 0,-2.4583 6.7467,-16.4356 7.9336,-16.4356 0.5858,0 1.0664,-0.4336 1.0664,-0.9629 0,-0.577 -2.5263,-0.726 -6.3066,-0.373 -7.886,0.7365 -11.3652,-0.8696 -15.7832,-7.291 -6.1648,-8.9602 -13.8596,-35.1492 -13.8946,-47.2852 -0.019,-6.6285 2.1261,-14.4983 6.2891,-23.0644 5.1294,-10.555 11.9871,-16.0587 25.5332,-20.4942 3.071,-1.0056 5.8864,-1.4371 10.4219,-1.4668 1.5118,-0.01 3.2139,0.025 5.1816,0.098 9.0075,0.3334 10.7432,0.6971 14.1758,2.9687 17.5809,11.6345 29.5531,32.7343 27.9531,49.2617 -0.845,8.7293 -4.1078,18.6267 -8.1777,24.8067 -3.8529,5.8507 -12.3638,11.868 -21.6758,15.3242 -2.6304,0.9763 -5.0285,2.1714 -5.3281,2.6562 -0.2955,0.478 0.744,2.3243 2.3105,4.127 16.8933,-11.6955 34.4505,-23.8685 53.0606,-35.6387 10.6112,-6.7112 21.5086,-9.4779 32.6133,-10.039 -0.7311,-10.4487 -1.6241,-13.8964 -5.4356,-21.4922 -4.7919,-9.5491 -5.433,-12.4754 -5.0625,-23.0918 0.3467,-9.9319 0.9127,-12.8583 3.4336,-17.7168 2.2436,-4.3242 3.8202,-6.1002 7.5605,-8.5235 3.6032,-2.3344 3.6942,-3.5172 0.3692,-4.7871 -4.6532,-1.777 -9.7695,-5.998 -12.8945,-10.6406 -0.6152,-0.9141 -2.0383,-3.897 -3.1622,-6.6269 l -2.0429,-4.9629 0.3125,-6.1328 c 0.3898,-7.6484 1.0122,-8.9658 6.6679,-14.0801 6.8807,-6.222 10.652,-8.3573 19.7813,-11.2051 5.5283,-1.7245 7.4636,-2.2573 9.752,-2.3242 0.7626,-0.022 1.5647,0.01 2.5527,0.061 2.3617,0.1299 5.1386,0.6168 6.1719,1.0801 1.0332,0.4633 2.6926,1.1436 3.6875,1.5137 4.3788,1.6292 12.2174,9.6822 14.3242,14.7148 1.3727,3.2791 2.5339,11.5796 2.2519,16.0996 -0.2285,3.6619 -0.6291,5.1585 -2.3945,8.9258 -2.4494,5.2268 -5.1409,7.9 -9.6523,9.5879 -4.5405,1.6988 -8.0504,3.6334 -8.4414,4.6523 -0.216,0.5628 0.025,1.4079 0.6035,2.1153 4.8899,5.9804 6.0003,7.4934 6.2226,8.4765 0.1411,0.6238 0.8632,3.428 1.6055,6.2325 1.7414,6.5796 2.1713,11.5025 1.498,17.1757 -0.8929,7.524 -1.506,9.5588 -5.1211,17.0059 -4.6111,9.4987 -5.1757,11.3166 -5.4668,17.6152 -0.1363,2.9522 -0.4839,6.3349 -0.7734,7.5157 -0.066,0.27 -0.1051,0.4476 -0.1641,0.6914 21.7072,3.4929 43.9514,10.1459 66.1915,7.998 0.9584,-63.099 0.5,-140.6511 0.5,-208.1015 z m 0,307.2109 z m 258.7812,-223.3965 c -0.6426,0.039 -1.3524,0.474 -2.3535,1.3164 -1.7675,1.4873 -2.2681,4.2182 -1.0059,5.4805 0.9743,0.9743 3.9002,0.7774 4.9024,-0.3301 1.5163,-1.6754 1.7015,-4.1227 0.4121,-5.4121 -0.7374,-0.7374 -1.3125,-1.0935 -1.9551,-1.0547 z m 31.6348,12.8164 c -4.7218,-0.022 -7.7285,3.1467 -7.7285,8.1465 0,3.3159 0.7856,4.6769 3.4902,6.0508 2.688,1.3652 5.3287,1.0617 7.5234,-0.8653 3.6545,-3.2087 4.4692,-6.8817 2.2559,-10.166 -1.4363,-2.1314 -3.2282,-3.155 -5.541,-3.166 z m -27.5743,7.1485 c -0.5239,-0.015 -1.0671,0.017 -1.623,0.1 -3.3765,0.5005 -3.7578,0.9741 -3.7578,4.6601 0,2.8168 0.1852,3.3809 1.5684,4.7637 1.3777,1.3779 1.9504,1.5675 4.6972,1.5605 1.7201,0 3.3939,-0.1854 3.7188,-0.4023 1.0744,-0.7173 1.8242,-2.7082 1.8242,-4.8418 0,-3.3506 -2.7584,-5.7374 -6.4278,-5.8398 z m -124.7011,56.9453 c -0.4991,-0.014 -1.0263,0.01 -1.586,0.064 -5.7069,0.5696 -10.1524,10.3009 -7.2597,15.8945 1.7001,3.2878 2.8846,3.8644 7.4199,3.6094 2.9726,-0.1671 3.8826,-0.8719 6.4043,-4.9609 2.7333,-4.4319 2.8557,-5.0422 1.75,-8.7324 -1.1856,-3.9572 -3.235,-5.7805 -6.7285,-5.875 z m 34.6914,9.9668 c -1.7144,-0.028 -3.3975,0.4404 -4.8711,1.4726 -2.773,1.9423 -6.209,8.5074 -6.209,11.8633 0,4.429 3.8677,10.4699 7.3496,11.4785 5.1424,1.4896 6.4086,1.244 10.043,-1.9473 4.8168,-4.2291 6.2461,-10.7863 3.5176,-16.1347 -2.1406,-4.1961 -6.0586,-6.6697 -9.8301,-6.7324 z m 100.3457,12.5586 c -1.2882,-0.085 -1.3162,2.601 -1.0742,14.3554 0.01,0.2559 0.01,0.4807 0.02,0.7344 0.9472,0.059 1.8941,0.1156 2.8437,0.1973 0.3421,-13.6334 0.3049,-14.3324 -0.6835,-14.8614 -0.4434,-0.2373 -0.8083,-0.406 -1.1055,-0.4257 z m -131.332,7.3925 c -0.51,-0.09 -1.134,0.2111 -1.5938,0.9551 -0.8155,1.3195 0.3798,3.1918 1.5684,2.457 0.5121,-0.3164 0.9316,-1.2231 0.9316,-2.0156 0,-0.8251 -0.3961,-1.3065 -0.9062,-1.3965 z m -4.6446,23.7149 c -0.4029,-0.019 -0.8064,0.1222 -1.2051,0.4531 -2.468,2.0483 -3.2367,5.5764 -2.58,11.8594 0.9204,8.806 5.6557,13.9367 8.3007,8.9941 3.1279,-5.8442 -0.6205,-21.1202 -4.5156,-21.3066 z m -86.666,3.5137 c -0.9293,0.016 -1.8494,0.2258 -2.6719,0.666 -2.1111,1.1298 -2.4492,2.0198 -2.4492,6.4414 0,2.822 0.5392,5.672 1.1992,6.332 1.3518,1.3518 4.6875,1.558 6.5059,0.4023 1.8751,-1.1917 4.0329,-7.1151 3.5371,-9.7089 -0.4742,-2.4806 -3.3333,-4.1804 -6.1211,-4.1328 z m 43.7227,8.6386 c -4.5445,0 -6.8438,3.118 -6.8438,9.2774 0,6.5333 1.9788,9.7226 6.0352,9.7226 2.3984,0 3.2855,-0.7113 4.9433,-3.9609 3.9093,-7.6628 1.8809,-15.0391 -4.1347,-15.0391 z m -21.0039,20.0508 c -0.6341,-0.018 -1.2995,0.02 -1.9883,0.1172 -2.696,0.3816 -3.8828,4.5628 -1.6895,5.9531 2.0943,1.3275 7.473,1.0235 8.7324,-0.4941 2.2325,-2.6899 -0.6158,-5.4509 -5.0546,-5.5762 z"
       transform="translate(0,-542.12731)"
       id="path4731"
       inkscape:connector-curvature="0"
       sodipodi:nodetypes="ccccsssscssscssssccccccssscscccccsscsccsccsccccccsssccccssssccccsscccccccccsccsccscsccccscccscccccccccccscsccccccccccsccssscccsscccssscscccccccc" />
    <path
       style="fill:none;stroke:#0000ff"
       d="m 1019.4043,1100.7129 0,165.0605 c 6.6773,-8.6974 16.5918,-13.5403 27.0762,-13.6718 7.3301,-0.092 14.9316,2.1125 21.8847,6.8964 5.2489,3.6113 9.4828,9.6334 12.627,17.9668 3.1077,8.2368 2.3493,19.3995 -1.8692,27.5489 -1.7082,3.3 -4.2579,7.3082 -5.6679,8.9062 -1.4099,1.5981 -2.5645,3.4891 -2.5645,4.2012 0,0.712 2.0105,2.974 4.4668,5.0273 5.1851,4.3341 6.5438,7.5195 6.5098,15.2657 -0.031,6.99 -1.3653,13.2252 -4.1328,19.3047 -2.4727,5.4314 -6.0481,7.3749 -9.9688,5.4199 -2.2588,-1.1262 -2.3669,-1.6294 -2.2187,-10.293 0.086,-5.0104 0.6639,-10.0601 1.2851,-11.2207 0.9719,-1.8162 0.8531,-2.1113 -0.8476,-2.1113 -1.0869,0 -2.2715,0.4808 -2.6348,1.0683 -0.3631,0.5875 -1.2756,0.8335 -2.0273,0.545 -2.1968,-0.8429 -2.6346,1.0944 -0.9727,4.3085 1.7138,3.3139 2.0564,11.8175 1.1348,16.8243 31.9665,15.8909 42.3873,38.0771 58.9218,46.8945 15.4614,8.2449 39.7843,11.783 58.6778,13.8809 -0.1175,-0.3086 -0.2254,-0.617 -0.3164,-0.9219 -0.6767,-2.2588 -2.6034,-5.3269 -4.2832,-6.8184 -3.0362,-2.6959 -3.0531,-2.7621 -2.6465,-11.3652 0.3461,-7.3225 0.8236,-9.2805 3.1055,-12.7285 3.3285,-5.0297 3.3536,-5.9172 0.1972,-7.1172 -3.1191,-1.1859 -3.2042,-2.7831 -0.209,-3.9219 3.8289,-1.4556 5.1773,-3.7556 3.877,-6.6094 -0.8283,-1.818 -1.9079,-2.4687 -4.0879,-2.4687 -3.56,0 -4.5334,1.3263 -4.2344,5.7656 0.2038,3.0261 0.04,3.2436 -1.7207,2.3008 -4.1124,-2.2009 -8.6137,-7.856 -11.8847,-14.9297 -2.8913,-6.2527 -3.4156,-8.5126 -3.4786,-15 -0.055,-5.6792 0.4552,-8.8206 1.9883,-12.25 2.7758,-6.2093 12.5673,-16.4748 21.8086,-22.8633 9.3561,-6.4679 17.1586,-8.1758 27.5801,-6.041 5.6907,1.1657 6.9521,1.9004 11.9668,6.9746 4.4272,4.4795 6.259,7.3638 8.709,13.7168 5.6103,14.5481 6.3589,27.7241 2.0918,36.7988 -2.8508,6.0626 -10.1309,14.4158 -15.041,17.2579 -9.6463,5.5835 -9.0885,4.9275 -7.2559,8.5488 0.8963,1.7711 2.8129,4.1902 4.2598,5.3769 2.5668,2.1054 2.6258,2.4084 2.3808,12.4883 -0.2338,9.6162 -1.0531,14.3807 -3.1113,16.9844 37.3205,3.7563 79.1023,4.982 120.4707,5.3574 -0.2185,-0.8238 -0.4379,-1.6641 -0.6367,-2.5449 -1.5564,-6.8939 -2.0765,-7.9414 -3.9356,-7.9414 -1.9213,0 -2.2217,-0.7473 -2.916,-7.25 -0.4257,-3.9875 -0.9142,-11.0856 -1.084,-15.7735 -0.3075,-8.4849 -0.3265,-8.5441 -4.5058,-12.9375 -2.309,-2.4273 -5.2177,-6.6917 -6.4629,-9.4765 -1.2452,-2.7848 -3.9183,-6.6375 -5.9414,-8.5625 -5.1424,-4.8929 -9.8717,-11.6941 -11.8438,-17.0332 -4.925,-13.3329 1.2541,-33.1764 13.4082,-43.0586 10.4049,-8.4601 15.2411,-10.9772 21.2383,-11.0488 7.0986,-0.085 11.0975,2.1136 15.3613,8.4414 7.1568,10.6215 10.9397,28.0559 10.0118,46.1425 -0.623,12.1446 -2.168,18.1889 -6.7032,26.2247 l -2.9961,5.3085 3.4747,4.5508 c 5.1437,6.7388 7.8549,16.3187 6.9257,24.4727 -0.4072,3.575 -0.6288,10.393 -0.4922,15.1523 0.059,2.0486 0.033,3.8626 -0.07,5.4707 7.0059,0.019 13.9096,0.014 20.8223,0.012 l 0,0.01 0.5,0 0,-330.5117 z m 49.0762,169.3691 c -1.5005,0.067 -2.8821,0.5842 -3.6973,1.5664 -0.8071,0.9725 -1.3574,4.0486 -1.3574,7.6016 0,5.0537 0.3607,6.2599 2.3457,7.8672 3.21,2.5994 5.5965,2.3793 8.0488,-0.7383 2.8359,-3.6056 2.874,-11.5614 0.07,-14.3652 -1.2082,-1.2083 -3.0176,-1.8612 -4.7597,-1.9317 -0.2172,-0.01 -0.4367,-0.01 -0.6504,0 z m -38.2578,23.9844 c -1.8374,-0.084 -3.6058,0.5941 -4.9258,2.0527 -1.3858,1.5313 -1.9063,3.5991 -1.9063,7.5879 0,4.5562 0.3998,5.808 2.3614,7.3965 3.1933,2.5857 6.3272,2.4029 9.08,-0.5273 1.4122,-1.5033 2.4851,-4.1575 2.7969,-6.9239 0.4348,-3.8576 0.1448,-4.8474 -2.0703,-7.0625 -1.5922,-1.5922 -3.4985,-2.4391 -5.3359,-2.5234 z m -10.8184,16.834 0,37.4531 c 5.6958,1.0417 11.0151,2.2417 15.9512,3.5918 -0.7078,-6.4494 -0.452,-13.2322 1.1875,-17.4316 0.8588,-2.2 1.7785,-5.3997 2.0468,-7.1114 0.4678,-2.9843 0.2228,-3.2357 -5.9472,-6.123 -5.1976,-2.4324 -9.7362,-6.0353 -13.2383,-10.3789 z m 294.1895,0.9551 c -1.2843,0 -2.3169,0.6074 -3.795,2.0859 -2.9232,2.9232 -3.1958,5.4943 -1.0254,9.6914 2.0316,3.9286 6.4439,4.0776 9.4024,0.3164 3.7008,-4.7047 2.1305,-10.5592 -3.1895,-11.8945 -0.5097,-0.1279 -0.9646,-0.1982 -1.3925,-0.1992 z m -134.3379,8.6601 c -5.097,-0.2097 -9.1962,7.5179 -4.543,13.4336 2.6969,3.4286 4.4824,3.3223 8.0273,-0.4726 3.436,-3.6782 3.7513,-7.6031 0.8614,-10.7051 -1.4135,-1.5172 -2.9185,-2.1972 -4.3457,-2.2559 z m 122.375,2.1875 c -0.8648,-0.038 -1.4616,0.4951 -2.5,1.7774 -2.2881,2.8257 -2.3441,3.9999 -0.3262,6.8808 1.9188,2.7394 2.8868,2.7792 5.4433,0.2227 2.8941,-2.8941 2.6041,-6.7686 -0.6171,-8.2363 -0.8663,-0.3947 -1.4811,-0.622 -2,-0.6446 z m -228.7403,13.3106 c -0.55,0 -1,0.45 -1,1 0,0.55 0.45,1 1,1 0.55,0 1,-0.45 1,-1 0,-0.55 -0.45,-1 -1,-1 z m 126.9414,3.6679 c -1.4115,0.023 -2.8898,0.6629 -4.4804,1.9141 -5.0474,3.9703 -4.4057,12.0724 1.1914,15.0742 4.1854,2.2446 6.8718,1.329 9.2793,-3.1601 2.4752,-4.6153 2.2892,-7.2144 -0.7696,-10.8496 -1.6994,-2.0196 -3.406,-3.0086 -5.2207,-2.9786 z m -149.9414,0.3321 c -0.55,0 -1,0.45 -1,1 0,0.55 0.45,1 1,1 0.55,0 1,-0.45 1,-1 0,-0.55 -0.45,-1 -1,-1 z m 273.5235,30.9961 c -0.5851,0.087 -1.1601,0.5683 -2.0918,1.5 -2.4654,2.4654 -2.6605,5.792 -0.5176,8.8515 2.0722,2.9585 5.0113,2.8108 7.0859,-0.3554 2.0193,-3.0818 1.0488,-6.9065 -2.3183,-9.1309 -0.9781,-0.6462 -1.5732,-0.9526 -2.1582,-0.8652 z"
       transform="translate(0,-542.12731)"
       id="path4747"
       inkscape:connector-curvature="0"
       sodipodi:nodetypes="ccsssscsccccccscccccccssccccsscscssscsssscscccsccssccscsscccccccccccccscccccccsccsscccccsccccscccccccccsssccscssscscsscscsssccssccc" />
    <path
       sodipodi:nodetypes="ccccccccccccc"
       style="color:#000000;display:inline;overflow:visible;visibility:visible;fill:none;stroke:#ff0000;stroke-width:1;stroke-linecap:butt;stroke-linejoin:miter;stroke-miterlimit:4;stroke-dasharray:none;stroke-dashoffset:0;stroke-opacity:1;marker:none;enable-background:accumulate"
       d="m 2151.8901,489.21995 0,35.39394 -35.3566,0 0,425.3125 35.3566,0 0,35.35656 425.3125,0 0,-35.35656 35.3939,0 0,-425.3125 -35.3939,0 0,-35.39394 z"
       id="path3125-2-0"
       inkscape:connector-curvature="0" />
    <rect
       style="color:#000000;display:inline;overflow:visible;visibility:visible;fill:none;stroke:#00ff00;stroke-width:1;stroke-linecap:butt;stroke-linejoin:miter;stroke-miterlimit:4;stroke-dasharray:none;stroke-dashoffset:0;stroke-opacity:1;marker:none;enable-background:accumulate"
       id="rect3100-5-2"
       width="424.84988"
       height="424.84988"
       x="2152.1619"
       y="524.83759" />
    <rect
       style="color:#000000;display:inline;overflow:visible;visibility:visible;fill:none;stroke:#00ff00;stroke-width:1;stroke-linecap:butt;stroke-linejoin:miter;stroke-miterlimit:4;stroke-dasharray:none;stroke-dashoffset:0;stroke-opacity:1;marker:none;enable-background:accumulate"
       id="rect3100-5-2-13"
       width="424.84988"
       height="424.84988"
       x="1589.2841"
       y="523.1626" />
    <path
       inkscape:connector-curvature="0"
       id="rect3100-5-2-13-4"
       d="m 984.07617,452.6891 0,70.53909 -70.53906,0 0,424.6972 70.53906,0 0,70.53911 424.69723,0 0,-70.53911 70.5391,0 0,-424.6972 -70.5391,0 0,-70.53909 -424.69723,0 z"
       style="color:#000000;display:inline;overflow:visible;visibility:visible;fill:none;stroke:#ff0000;stroke-width:1.15378702;stroke-linecap:butt;stroke-linejoin:miter;stroke-miterlimit:4;stroke-dasharray:none;stroke-dashoffset:0;stroke-opacity:1;marker:none;enable-background:accumulate" />
    <rect
       style="color:#000000;display:inline;overflow:visible;visibility:visible;fill:none;stroke:#00ff00;stroke-width:1;stroke-linecap:butt;stroke-linejoin:miter;stroke-miterlimit:4;stroke-dasharray:none;stroke-dashoffset:0;stroke-opacity:1;marker:none;enable-background:accumulate"
       id="rect3100-5-2-13-6"
       width="424.84988"
       height="424.84988"
       x="983.99982"
       y="523.15186" />
    <path
       style="color:#000000;display:inline;overflow:visible;visibility:visible;fill:none;stroke:#0000ff;stroke-width:1;stroke-linecap:butt;stroke-linejoin:miter;stroke-miterlimit:4;stroke-dasharray:none;stroke-dashoffset:0;stroke-opacity:1;marker:none;enable-background:accumulate"
       d="m 367.45312,1100.7129 0,298.3027 c 16.37935,1.6397 31.25414,3.2727 44.70508,4.8867 -3.69,-7.3956 -4.70465,-14.9138 -3.26758,-23.6015 1.5102,-9.1294 1.08813,-10.1173 -5.23437,-12.2656 -5.027,-1.7082 -10.12695,-10.4901 -10.12695,-17.4317 0.001,-4.9369 5.94696,-18.8629 10.57226,-24.7617 3.4211,-4.3629 7.4493,-6.6529 11.6543,-6.625 4.6142,0.031 23.4104,10.3054 26.5332,14.5039 5.7137,7.6821 2.34464,23.1121 -6.44336,29.5137 l -3.30273,2.4062 2.25976,8.4375 c 2.3364,8.7262 2.66637,25.2766 1.03907,32.836 17.9958,2.4282 32.92427,4.7956 45.41797,7.0703 -0.1452,-1.3373 -0.24415,-2.5791 -0.24415,-3.418 10e-6,-2.4828 -0.38024,-3.8436 -1.31054,-4.6855 -0.7213,-0.6528 -1.50092,-0.9972 -1.73242,-0.7657 -0.2315,0.2316 -0.81317,-0.3123 -1.29297,-1.209 -1.5804,-2.9528 -0.38433,-17.7584 2.07617,-25.707 2.6987,-8.7179 4.32026,-12.7625 6.10156,-15.209 0.7851,-1.0783 1.2901,-2.0451 1.1211,-2.1484 -0.169,-0.1033 -2.0797,-1.084 -4.2461,-2.1797 -7.8548,-3.9728 -11.04833,-8.3023 -12.61133,-17.0898 -1.1587,-6.5145 -0.93466,-9.6708 1.24414,-17.4414 0.8091,-2.8852 1.56274,-8.3569 1.77344,-12.8907 0.6555,-14.0995 2.49723,-18.8604 9.23633,-23.8691 15.1713,-11.2755 28.59872,-10.7526 39.16602,1.5254 5.1582,5.9932 7.00523,9.7973 8.11523,16.7051 1.4606,9.0897 -0.85395,20.0094 -6.31055,29.7656 -3.3543,5.9975 -10.28039,14.7037 -14.77929,18.5781 -1.9975,1.7202 -3.63252,3.348 -3.63282,3.6172 -2e-4,0.2692 0.98847,2.0808 2.19727,4.0254 3.8013,6.1151 5.28637,13.2665 5.23437,25.2051 -0.043,9.7777 -0.15636,10.6031 -1.94726,14.1191 -1.0461,2.0537 -2.50358,4.0541 -3.23828,4.4473 -1.1389,0.6095 -1.34209,2.2244 -1.61719,13.3574 56.7868,13.0027 36.15207,21.4058 70.16797,16.5898 -1.0099,-1.615 -1.86766,-3.4138 -2.22656,-4.7812 -0.5805,-2.2123 -1.67564,-5.2423 -2.43164,-6.7344 -1.8858,-3.722 -2.62713,-13.1876 -1.39063,-17.7461 0.9412,-3.4703 2.20604,-5.7098 9.55664,-16.916 l 2.61328,-3.9863 -2.86718,-1.5781 c -11.26731,-6.2033 -12.47493,-7.2084 -17.14063,-14.2657 -3.6716,-5.5537 -4.97664,-8.5497 -5.93164,-13.6113 -2.2785,-12.0758 0.58314,-22.5492 7.74414,-28.3379 4.4206,-3.5735 14.2583,-8.8915 16.45313,-8.8945 0.8247,-9e-4 3.53634,-0.784 6.02734,-1.7383 6.4477,-2.47 12.27982,-3.7441 17.09766,-3.7832 2.89069,-0.024 5.41698,0.3984 7.49218,1.2734 9.2785,3.9123 18.53321,22.0968 18.53321,36.4141 0,5.7783 -0.4739,7.9082 -2.9668,13.3164 -3.521,7.639 -10.19186,14.4197 -17.91016,18.2051 -2.8569,1.4011 -5.19531,2.8989 -5.19531,3.3281 0,0.4292 0.65618,2.0493 1.45898,3.6016 2.8726,5.555 5.23821,16.7498 4.78321,22.6406 -0.3398,4.3979 -1.41144,7.4271 -5.36914,15.0859 9.2525,-4.8512 16.75168,-11.6517 22.23828,-20.7988 2.3037,-3.8407 7.76371,-8.4964 15.10351,-13.375 -0.6654,-1.1955 -0.72437,-2.4199 -0.73437,-7.9844 -0.015,-8.1398 -0.17893,-9.0937 -1.64063,-9.0937 -0.5835,0 -1.46623,-0.4474 -1.96093,-0.9942 -0.7979,-0.8816 -0.89625,-1.8096 -0.90625,-8.2129 -0.015,-9.935 1.11223,-15.7779 3.83203,-19.9433 0.6374,-0.9763 1.1582,-1.9898 1.1582,-2.252 0,-0.2621 -0.86427,-0.9174 -1.92187,-1.457 -3.421,-1.7453 -3.78907,-2.8913 -3.78907,-11.8926 0,-6.8179 -0.13304,-8.2 -0.99804,-10.4726 -2.5534,-6.7086 0.76684,-15.9356 6.90234,-19.1778 2.8112,-1.4856 4.97501,-2.1736 7.50781,-2.1836 1.5196,-0.01 3.17144,0.2332 5.17774,0.6895 9.8162,2.2326 16.32002,13.6012 13.60742,23.7871 -0.846,3.177 -1.38851,4.1554 -4.38281,7.8926 -2.42,3.0204 -5.51256,6.1655 -8.50196,8.6445 l -1.39843,1.1582 2.63086,2.4473 c 5.29498,4.9281 6.65531,9.425 6.69531,22.125 0.021,6.6332 -0.11611,8.63 -0.63281,9.1465 -0.9,0.8996 -1.63451,0.3348 -2.72461,-2.0996 -0.5061,-1.1305 -1.01677,-1.8756 -1.13477,-1.6543 -0.1173,0.2211 -0.24044,2.5455 -0.27344,5.164 -0.0306,2.4421 -0.14496,4.7232 -0.31836,6.836 8.0184,-4.249 16.88085,-8.3773 25.81055,-12.0293 -0.4968,-2.5174 -0.87365,-5.5342 -1.18945,-9.2422 -0.6154,-7.2257 -1.44175,-10.7748 -3.65235,-15.7012 -2.3762,-5.2952 -3.18282,-13.1864 -2.32812,-22.7852 0.993,-11.154 2.80177,-16.1757 7.54687,-20.957 1.9504,-1.9653 3.54688,-3.9666 3.54688,-4.4473 0,-0.4807 -0.82052,-1.2478 -1.82422,-1.705 -8.1912,-3.7323 -14.21638,-16.2015 -14.23438,-29.461 l -0.0176,-6.3222 4.49218,-5.9473 c 4.8913,-6.4778 5.70826,-7.0417 15.53516,-10.7012 4.1355,-1.54 7.73753,-2.3416 10.92773,-2.3652 7.0184,-0.052 12.03793,3.6629 16.32813,11.5742 1.43474,2.6458 2.54424,5.1848 3.36914,7.7266 l 0.54687,0 0,-160.0215 z m 314.3125,157.5371 c -1.3654,0.063 -2.74023,1.8303 -2.74023,3.9141 0,2.182 0.24085,2.5293 1.74805,2.5293 0.9613,0 1.9477,-0.519 2.1914,-1.1543 0.6779,-1.7666 0.52832,-4.5487 -0.27148,-5.043 -0.2972,-0.1836 -0.61263,-0.2608 -0.92774,-0.2461 z m 25.87891,13.043 c -0.5613,0 -1.15851,0.073 -1.78711,0.2304 -4.8597,1.2198 -5.65046,11.0248 -1.03906,12.8828 2.5837,1.0409 3.42159,0.8481 5.55469,-1.2851 4.8007,-4.8008 2.69818,-11.809 -2.72852,-11.8281 z m -22.61914,5.0859 c -2.8938,0 -4.53906,1.9665 -4.53906,5.4277 0,4.4772 1.56686,6.2579 5.50586,6.2579 2.8499,0 3.28521,-0.2195 3.69531,-1.8536 1.07,-4.2635 -1.57011,-9.832 -4.66211,-9.832 z m 35.625,8.75 c -1.59578,3.1926 -4.32435,5.398 -9.01953,7.8652 -2.7532,1.4465 -5.17055,3.0617 -5.37305,3.5899 -0.2028,0.5282 0.83364,2.7709 2.30274,4.9844 7.0246,10.5829 7.97237,30.1591 2.13867,44.1504 -2.2651,5.4321 -2.68367,7.3923 -3.20117,15.0117 -0.0364,0.5355 -0.0927,1.0387 -0.13672,1.5644 4.8021,-1.3731 9.99495,-2.6589 14.21051,-3.4059 -0.0679,-15.6452 -0.11872,-52.7063 -0.11872,-73.7601 z m -235.41992,7.9668 c -0.9457,0.01 -1.655,0.5353 -2.9043,1.9336 -2.8553,3.1956 -2.78078,6.6948 0.19922,9.4785 2.7177,2.5388 4.45857,2.6216 6.75977,0.3203 1.3507,-1.3507 1.75781,-2.5123 1.75781,-5.0136 0,-3.6476 -1.52957,-5.7577 -4.75977,-6.5684 -0.3968,-0.1 -0.73753,-0.1534 -1.05273,-0.1504 z m 16.00391,2.8203 c -1.05351,0.1027 -2.11302,0.7142 -2.97852,1.8145 -2.1271,2.7041 -1.95166,6.2343 0.40234,8.0859 1.0378,0.8164 2.02346,1.4844 2.18946,1.4844 0.166,0 1.25075,-1.0392 2.41015,-2.3086 2.3966,-2.624 2.76948,-5.7985 0.92188,-7.8399 -0.8449,-0.9337 -1.89192,-1.3389 -2.94531,-1.2363 z m 141.06054,12.9785 c -2.7038,0 -4.27631,5.3086 -2.03711,6.877 1.4515,1.0168 2.12453,0.9335 3.48633,-0.4277 2.2209,-2.2213 1.27088,-6.4493 -1.44922,-6.4493 z m 16.80664,8.2657 c -0.6549,0.047 -1.2916,0.2639 -1.7832,0.6621 -1.5445,1.2506 -2.00642,5.8633 -0.72852,7.2754 0.9384,1.0368 2.19029,1.1931 3.58399,0.4472 2.0157,-1.0787 3.08211,-5.4903 1.75781,-7.2676 -0.5983,-0.8031 -1.73868,-1.1958 -2.83008,-1.1171 z m -239.46679,7.582 c -0.862,0.047 -1.80292,0.7677 -2.57422,2.209 -1.1239,2.1002 -1.10237,3.24 0.0859,4.6718 2.0837,2.5106 5.43292,-0.099 4.88282,-3.8046 -0.3087,-2.0799 -1.28418,-3.1362 -2.39258,-3.0762 z m 163.7207,2.0586 c -1.6566,0 -3.64913,2.2519 -2.76953,3.1308 1.11,1.1101 3.48061,0.1632 3.80468,-1.5195 0.17972,-0.9334 -0.25625,-1.6113 -1.03515,-1.6113 z m 21.24609,0.2558 c -0.4935,-10e-5 -1.04062,0.081 -1.70312,0.2188 -4.7689,0.9914 -7.38696,4.1767 -7.91016,9.6211 -0.4229,4.4017 -0.24739,4.903 2.81641,7.9668 4.0613,4.0612 6.27818,4.1078 10.51758,0.2226 2.6544,-2.4327 3.421,-3.9216 3.8125,-7.3945 0.456,-4.0464 0.25817,-4.5818 -2.85743,-7.6973 -2.1957,-2.1959 -3.19548,-2.9365 -4.67578,-2.9375 z m -35.91015,0.42 c -3.7387,-0.102 -8.03286,7.8143 -5.31446,11.0898 1.4959,1.8024 2.15979,1.5458 5.32617,-2.0605 3.26241,-3.7157 3.726,-7.3306 1.1211,-8.7247 -0.3665,-0.1961 -0.74601,-0.2941 -1.13281,-0.3046 z m -162.91602,6.1933 c -0.0889,-0.01 -0.18603,-0.01 -0.29101,0.01 -0.12001,0.016 -0.25003,0.047 -0.39063,0.094 -0.9676,0.3222 -1.96254,1.6342 -2.21094,2.916 -0.289,1.4906 0.18144,2.121 1.30664,1.7461 0.9676,-0.322 1.96254,-1.6343 2.21094,-2.916 0.2213,-1.1411 -0.003,-1.7781 -0.625,-1.8457 z m 75.78516,1.5801 c -3.5444,-0.1341 -6.27344,2.3655 -6.27344,6.4648 0,6.4738 8.20185,10.4427 12.56445,6.0801 3.3035,-3.3034 2.01073,-9.1372 -2.54687,-11.4941 -1.2921,-0.6682 -2.56274,-1.0061 -3.74414,-1.0508 z m 162.13086,1.3398 c -0.1356,2e-4 -0.27251,0.024 -0.40821,0.076 -0.7451,0.2859 -1.04279,2.2482 -0.43359,2.8574 0.6709,0.6709 2.01346,0.2729 2.31836,-0.6875 0.3389,-1.0681 -0.52746,-2.2471 -1.47656,-2.2461 z m 49.9414,19.7579 c -0.8583,0 -1.05503,1.9674 -1.08203,10.8046 0.7636,-0.278 1.52926,-0.5655 2.28906,-0.8339 -0.1637,-7.9923 -0.41913,-9.9707 -1.20703,-9.9707 z m -284.97265,1.9804 c -1.2129,0 -2.05664,1.1186 -2.05664,2.7246 0,3.1865 3.0552,2.7354 3.6914,-0.5449 0.2502,-1.2902 -0.41716,-2.1797 -1.63476,-2.1797 z m 167.91406,7.5664 c -0.2312,0.01 -0.46839,0.06 -0.70899,0.1524 -3.6073,1.3843 -4.1811,8.0258 -0.9707,11.2363 1.8215,1.8215 2.17283,1.8138 4.26563,-0.08 3.1694,-2.8684 0.88326,-11.4623 -2.58594,-11.3086 z m 70.79297,16.3282 c -0.0584,-0.02 -0.11964,-0.019 -0.18164,0 -0.0713,0.026 -0.14466,0.078 -0.22266,0.1562 -0.1794,0.1794 -0.44304,3.0788 -0.58984,6.4629 0.7607,-0.4575 1.55059,-0.9166 2.33789,-1.375 -0.0613,-0.3834 -0.11078,-0.6518 -0.17578,-1.0723 -0.4331,-2.8031 -0.75887,-4.0331 -1.16797,-4.1757 z"
       transform="translate(0,-542.12731)"
       id="rect3053-4-7-1-4-8"
       inkscape:connector-curvature="0"
       sodipodi:nodetypes="cccsccccccccccscccsssssccssssscsccccccsccccssscccssccscccsccscccscssccscsccccccccccsccssccccscccccccssccccccscsssssccccccccccccccscccscssccsccscccccccsccccsccscccsccccccsccsccccccsccssccsccscsssscsccsccccscccccccc" />
    <path
       inkscape:connector-curvature="0"
       id="rect3100-5-2-13-6-9"
       d="m 332.14258,434.98988 0,88.25781 -88.25781,0 0,424.6602 88.25781,0 0,88.25581 424.66015,0 0,-88.25581 88.25586,0 0,-424.6602 -88.25586,0 0,-88.25781 -424.66015,0 z"
       style="color:#000000;display:inline;overflow:visible;visibility:visible;fill:none;stroke:#ff0000;stroke-width:1.18928289;stroke-linecap:butt;stroke-linejoin:miter;stroke-miterlimit:4;stroke-dasharray:none;stroke-dashoffset:0;stroke-opacity:1;marker:none;enable-background:accumulate" />
    <rect
       style="color:#000000;display:inline;overflow:visible;visibility:visible;fill:none;stroke:#00ff00;stroke-width:1;stroke-linecap:butt;stroke-linejoin:miter;stroke-miterlimit:4;stroke-dasharray:none;stroke-dashoffset:0;stroke-opacity:1;marker:none;enable-background:accumulate"
       id="rect3100-5-2-13-6-7"
       width="424.84988"
       height="424.84988"
       x="332.04672"
       y="523.15179" />
    <path
       style="color:#000000;display:inline;overflow:visible;visibility:visible;fill:none;stroke:#ff0000;stroke-width:1.1171602;stroke-linecap:butt;stroke-linejoin:miter;stroke-miterlimit:4;stroke-dasharray:none;stroke-dashoffset:0;stroke-opacity:1;marker:none;enable-background:accumulate"
       d="M 1589.3418 1012.5254 L 1589.3418 1065.3496 L 1536.5195 1065.3496 L 1536.5195 1490.082 L 1589.3418 1490.082 L 1589.3418 1542.9043 L 2014.0742 1542.9043 L 2014.0742 1490.082 L 2066.8984 1490.082 L 2066.8984 1065.3496 L 2014.0742 1065.3496 L 2014.0742 1012.5254 L 1589.3418 1012.5254 z "
       transform="translate(0,-542.12731)"
       id="rect3100-5-2-1" />
    <text
       xml:space="preserve"
       style="font-style:normal;font-variant:normal;font-weight:bold;font-stretch:normal;font-size:32px;line-height:125%;font-family:Cambria;-inkscape-font-specification:'Sans Bold';text-align:start;letter-spacing:0px;word-spacing:0px;text-anchor:start;fill:#000000;fill-opacity:1;stroke:none"
       x="162.39922"
       y="-281.3132"
       id="text3010-5"
       sodipodi:linespacing="125%"><tspan
         sodipodi:role="line"
         id="tspan3012-7"
         x="162.39922"
         y="-281.3132">1) Blue: Cut first</tspan><tspan
         sodipodi:role="line"
         x="162.39922"
         y="-241.31319"
         id="tspan3014-5">2) Green: Score</tspan><tspan
         sodipodi:role="line"
         x="162.39922"
         y="-201.31319"
         id="tspan3020-2">3) Red: Cut last</tspan><tspan
         sodipodi:role="line"
         x="162.39922"
         y="-161.31319"
         id="tspan4172-3" /><tspan
         sodipodi:role="line"
         x="162.39922"
         y="-121.31319"
         id="tspan4481">0.5 cm layer distance</tspan><tspan
         sodipodi:role="line"
         x="162.39922"
         y="-81.313187"
         id="tspan4176-9" /><tspan
         sodipodi:role="line"
         x="162.39922"
         y="-41.31319"
         id="tspan3022-6" /><tspan
         sodipodi:role="line"
         x="162.39922"
         y="-1.3131897"
         id="tspan3018-1" /><tspan
         sodipodi:role="line"
         x="162.39922"
         y="38.68681"
         id="tspan3016-7" /></text>
    <text
       xml:space="preserve"
       style="font-style:normal;font-weight:normal;font-size:60px;line-height:125%;font-family:sans-serif;letter-spacing:0px;word-spacing:0px;fill:#000000;fill-opacity:1;stroke:none;stroke-width:1px;stroke-linecap:butt;stroke-linejoin:miter;stroke-opacity:1"
       x="2732"
       y="609.36084"
       id="text4888"
       sodipodi:linespacing="125%"><tspan
         sodipodi:role="line"
         id="tspan4890"
         x="2732"
         y="609.36084" /></text>
  </g>
</svg>
